<?xml version="1.0" encoding="UTF-8" standalone="no"?>
<!-- Created with Inkscape (http://www.inkscape.org/) -->

<svg
   xmlns:dc="http://purl.org/dc/elements/1.1/"
   xmlns:cc="http://creativecommons.org/ns#"
   xmlns:rdf="http://www.w3.org/1999/02/22-rdf-syntax-ns#"
   xmlns:svg="http://www.w3.org/2000/svg"
   xmlns="http://www.w3.org/2000/svg"
   xmlns:sodipodi="http://sodipodi.sourceforge.net/DTD/sodipodi-0.dtd"
   xmlns:inkscape="http://www.inkscape.org/namespaces/inkscape"
   width="336.77921"
   height="55.268833"
   id="svg3765"
   version="1.1"
   inkscape:version="0.48.3.1 r9886"
   sodipodi:docname="New document 5">
  <defs
     id="defs3767" />
  <sodipodi:namedview
     id="base"
     pagecolor="#ffffff"
     bordercolor="#666666"
     borderopacity="1.0"
     inkscape:pageopacity="0.0"
     inkscape:pageshadow="2"
     inkscape:zoom="1.979899"
     inkscape:cx="179.53386"
     inkscape:cy="-7.1298859"
     inkscape:document-units="px"
     inkscape:current-layer="layer1"
     showgrid="false"
     fit-margin-top="0"
     fit-margin-left="0"
     fit-margin-right="0"
     fit-margin-bottom="0"
     inkscape:window-width="1215"
     inkscape:window-height="776"
     inkscape:window-x="65"
     inkscape:window-y="24"
     inkscape:window-maximized="1" />
  <metadata
     id="metadata3770">
    <rdf:RDF>
      <cc:Work
         rdf:about="">
        <dc:format>image/svg+xml</dc:format>
        <dc:type
           rdf:resource="http://purl.org/dc/dcmitype/StillImage" />
        <dc:title></dc:title>
      </cc:Work>
    </rdf:RDF>
  </metadata>
  <g
     inkscape:label="Layer 1"
     inkscape:groupmode="layer"
     id="layer1"
     transform="translate(-143.03897,-313.29919)">
    <g
       transform="translate(-263.52353,241.13365)"
       id="text3781"
       style="font-size:40px;font-style:normal;font-variant:normal;font-weight:normal;font-stretch:normal;text-align:start;line-height:0%;letter-spacing:0px;word-spacing:0px;writing-mode:lr-tb;text-anchor:start;fill:#f9f9f9;fill-opacity:1;stroke:none;display:inline;font-family:Sawasdee;-inkscape-font-specification:Sawasdee">
      <path
         inkscape:connector-curvature="0"
         id="path3929"
         style="font-size:72px;font-weight:bold;line-height:0%;fill:#f9f9f9;font-family:Sawasdee;-inkscape-font-specification:Sawasdee Bold"
         d="m 424.75,72.4375 c 0.56687,-0.07494 0.0401,-0.508962 0,0 z m 0.625,0 c 0.24709,0.0084 -0.56433,-0.249762 0,0 z m -0.46875,0.15625 c 0.42827,-0.103191 0.22075,-0.494296 0,0 z m 0.125,-0.0625 c -0.50562,0.854064 1.18311,0.879212 0.625,0.09375 -0.11873,0.108462 -0.57437,0.141219 -0.625,-0.09375 z m 1.5,0.09375 c -0.49004,0.876215 -0.21256,0.116996 -0.43101,0.854833 0.4894,0.411028 -0.92331,0.31035 -1.71964,0.163357 -1.03665,0.290993 -0.95526,-1.28074 -2.09935,-0.54944 0.28726,0.346646 -0.26935,0.452658 -1.22477,0.981453 -0.56956,-0.130318 -1.20768,0.01472 -1.86898,-0.293953 -0.47307,0.530442 -0.99652,0.791647 -1.46406,0.985926 0.21731,0.977248 -0.45419,0.299286 -0.62969,0.701574 -0.61636,0.596696 -0.89342,1.261802 -1.09375,2.021864 -0.70844,0.295249 -1.25359,-0.482588 -1.78125,0.665636 -0.0334,1.009531 -0.91239,1.431632 -0.0755,2.057342 -0.3428,0.709313 -1.8302,-0.129766 -1.75538,0.895077 0.097,-0.121302 -0.91617,1.245648 -0.45087,1.883856 0.031,1.039803 0.55871,1.383549 0.43682,2.281545 -0.40661,0.361069 -1.32004,0.79153 -0.83761,1.443049 0.56764,0.648007 0.91203,1.432164 0.33881,2.095381 1.0454,0.161529 1.02897,0.563775 1.35017,1.385174 -0.89332,0.998411 0.22963,1.324738 -0.32305,1.711656 0.60541,0.823933 0.16546,1.456935 0.25628,1.826836 0.70808,0.72065 0.60549,-0.772249 1.7166,-0.611166 -0.058,0.820394 -0.25907,0.721661 0.0937,1.9375 0.33169,-0.550631 1.09334,0.06734 1.28186,-0.280239 0.0705,0.302583 0.84237,-0.07009 0.73358,1.147269 0.74656,0.953708 1.20869,-0.864385 0.77299,-0.805727 -0.44925,-0.518255 1.88674,0.145499 0.89121,0.075 -0.0415,-0.435077 -0.0296,1.586147 0.97661,1.894946 -0.52344,0.758038 0.25968,-0.129638 -0.1028,0.585344 0.95832,0.523361 1.97211,-0.919073 2.01367,-0.447768 -0.0518,0.139501 0.0604,1.319841 0.68288,1.206174 0.52138,-0.103469 0.66191,0.244413 1.5625,-0.3125 -0.19146,0.568938 1.8399,1.214869 1.10139,2.032701 0.6994,-0.375028 0.89055,0.28933 1.55017,0.10948 0.79732,-0.870444 0.62324,0.18016 1.25469,0.60782 0.5563,-0.13658 1.55884,0.58579 1.41608,0.6882 0.54951,0.56031 1.17663,-0.38809 1.51713,0.36351 1.68123,-0.84825 0.33429,1.07906 0.70243,1.11072 0.88075,-1.1717 0.30094,1.53729 1.39561,-0.13118 0.32118,0.99757 0.78438,1.23908 1.71875,1.4375 0.94948,0.79183 0.62483,1.8718 0.57207,2.25283 0.68175,1.14365 0.64209,-0.73675 0.69311,0.7106 0.93985,-0.50216 0.23335,0.42558 0.86835,1.1701 0.46865,-0.053 1.69851,0.58023 0.92836,1.30498 -0.30359,0.8796 -0.68414,0.73927 0.36309,1.36719 -0.0492,0.94531 -0.50753,0.74349 -1.34989,1.46137 -0.20952,0.48979 0.34722,1.9263 -1.16884,2.01418 0.58503,1.26493 -0.19315,0.99475 -0.71921,1.69702 -0.51292,1.249 -0.37235,0.73225 -0.82233,1.4185 -0.0259,1.38008 -0.01,0.92918 -0.75732,0.23514 -0.35166,0.84047 -1.08873,1.21169 -1.22224,1.605 -0.50362,-0.1756 -1.57225,0.7712 -1.69359,1.06487 -1.19454,0.57152 -1.11768,-0.11077 -1.89067,0.6784 -0.32165,-0.42484 -0.62759,-0.79361 -1.58214,-0.26143 0.23794,0.55036 -0.65824,-0.19047 -1.125,0.75 -1.25204,-1.12085 -0.74395,0.30635 -1.25472,-0.34296 -0.90698,0.83681 -0.2763,0.24244 -1.03078,-0.51044 0.57083,0.64148 -1.84,-0.98589 -1.8082,0.322 -0.86674,-0.30699 -1.68009,-0.71185 -1.79044,-0.74905 -0.98786,-0.42147 -0.10472,-1.98758 -1.24463,-1.08401 -0.69023,-0.17785 -1.58796,-0.53711 -1.77748,-1.19804 0.62014,-1.4097 -0.73727,-0.78433 -0.0566,-1.08345 -0.7744,0.1399 -1.98593,0.12926 -1.3059,-0.40906 -0.41175,-0.46321 -0.60313,-0.74358 -1.04375,-1.63249 -0.98285,-0.72184 1.89706,-0.60593 0.26065,-0.96786 -0.79301,-0.38028 0.36951,-1.06945 -0.52173,-2.04971 -0.91585,0.0364 -0.34023,0.29724 -0.63438,-0.35314 -0.0328,-0.67456 -0.52423,-0.65997 -0.0733,-0.87929 -0.7731,-0.54441 0.25324,-1.14916 -0.78851,-1.16825 -0.60235,-0.43747 -0.25172,-0.69447 -1.02279,-0.13707 -0.41899,-0.70826 0.11268,-1.28078 -0.57628,-0.85555 -0.78879,0.51319 -0.78503,0.45912 -0.98742,0.59837 -0.30532,0.0454 -1.38354,-0.7334 -1.75,-0.375 -1.36989,1.04079 0.23217,0.76863 -0.8125,1.4375 -0.0183,0.2431 0.13635,0.32309 0.87031,0.25 0.74568,0.63319 -0.62045,0.31214 -0.87031,1.09375 0.92028,-0.0451 -0.71013,-0.0238 0.17842,1.04952 0.37905,0.8525 0.1823,1.04484 0.52158,1.52452 0.10802,0.53742 1.2732,0.86116 1.7375,1.14471 0.0341,0.68306 -0.22325,1.2496 -0.25,1.96875 -0.38493,1.1124 0.58986,1.42254 1.12497,1.2657 0.61155,-0.0226 1.39852,1.09552 1.13454,2.02733 0.29616,0.87072 0.4305,1.79557 1.04704,1.68561 0.76874,-1.18351 0.9501,1.2185 0.48925,0.73319 0.85791,0.61893 1.19338,0.60834 2.21146,0.93242 1.057,0.74013 1.43294,0.18731 1.85759,0.93134 0.42034,-0.26617 1.23656,0.004 0.6664,0.39316 0.70275,0.48007 1.20728,0.54599 1.80022,1.26952 1.03835,-0.33944 0.94913,0.99332 1.73103,-0.10858 0.006,-1.24905 0.72755,-0.0516 1.00724,-0.0586 1.04344,-0.53687 1.22742,0.29484 2.24276,0.0851 0.24054,-0.48985 1.5226,0.40102 2.22413,-0.1551 1.31401,-0.45336 0.88757,0.28696 2.12903,0.23469 1.23653,-1.24316 0.92233,1.16805 1.52184,-0.51709 0.90452,-0.95956 2.60574,-0.95264 3.53125,-2 0.49818,-0.23417 1.8856,-1.43575 1.62926,-0.59801 0.69786,0.18492 0.43221,0.74963 0.76619,0.23651 0.51228,-0.15725 0.44471,-1.12134 -0.5517,-0.826 0.21544,-0.44405 1.23257,-0.61035 1.18254,-1.42695 1.32291,-0.99188 -0.24593,0.064 0.59871,0.48945 0.6103,0.12386 -0.034,-0.75894 0.63809,-1.53057 0.38783,-0.38625 1.0192,-0.44762 0.58066,-1.15693 0.90358,-0.0651 -0.0752,-0.78157 0.86956,-1.4228 0.49931,-0.41371 1.76501,-0.94773 1.15074,-1.54087 -0.036,-1.50961 1.65356,0.0483 1.01327,-1.28683 0.76496,-0.14194 1.0362,-1.593 -0.0817,-0.52836 -0.0898,-0.53104 -0.78267,-1.11565 0.20439,-1.68989 1.62292,0.63676 0.80768,-0.69329 -0.1238,-0.93032 0.1112,0.0533 -0.83834,-0.64897 0.52882,-0.66657 -0.59025,-0.64772 0.59031,-1.33004 -0.41735,-0.73457 0.90341,-0.68927 0.61971,-1.80388 0.23884,-1.87764 -0.0585,-1.34683 -0.3177,-0.4585 -0.61278,-1.67703 1.42941,0.51215 -0.29208,-0.3353 -0.18271,-0.81724 -0.41313,-0.85213 0.21522,-1.42546 -0.75258,-1.45266 -1.23785,-1.36262 -0.0142,1.06977 -0.83469,-0.0315 -0.15575,-0.51266 -0.70616,-0.4959 -0.0625,-1.46875 1.29549,-0.56614 -0.99124,-0.27966 -0.83152,-0.33605 0.65476,-0.51558 0.27325,-0.15079 0.0915,-1.32786 -0.49651,1.13384 -0.80551,-0.74867 -0.93333,-0.79263 -0.40151,-0.27303 -0.53664,-1.566614 -1.35785,-0.32471 0.10897,-1.433763 -1.68898,0.35546 -0.80945,-1.158722 -0.6971,-1.136833 -0.33406,0.411698 -1.3468,-0.310029 -0.9382,0.296911 -0.74215,-0.125858 -1.75697,-0.843565 -0.58109,-0.954642 -0.22592,-1.112272 -1.37656,-0.883713 -0.94895,-1.336208 -0.58631,0.177301 -1.55397,-0.428972 -0.0938,-1.47939 -0.83902,-0.667064 -0.90564,-0.35271 -1.21509,-0.128999 -0.75182,-0.485909 -1.64524,-0.419415 -0.52565,0.05372 0.60648,-2.012279 -0.35537,-1.196625 -0.9969,-0.885111 -1.42371,1.11125 -1.1694,-0.697671 -0.37003,-0.533828 -1.29522,-1.326732 -1.88082,-1.189056 -0.87728,-0.377793 -0.0508,0.411738 -0.77201,0.525834 0.15042,-0.168169 -1.11797,-0.711415 -1.73309,-0.734054 0.85345,-0.06805 -0.9934,-0.613973 -0.79569,-1.135799 -1.14616,-0.130324 -0.60243,-1.044541 -1.74274,-1.238004 -1.30177,0.295112 -0.58855,-1.00114 -1.57191,-1.43381 0.1919,-0.444591 -1.43058,0.194271 -0.58008,-1.439788 0.36593,-0.907065 1.13532,-0.950786 0.24929,-1.856784 -0.92471,-1.069204 -0.14617,-0.347775 0.5402,-1.387124 0.50775,-0.147421 -0.30882,-0.558653 -0.40951,-1.242729 -0.14432,-0.613222 1.26378,-1.013385 1.33451,-1.233515 -0.35564,-1.032936 0.29793,-0.83777 0.40625,-1.625 0.85452,0.49443 1.69212,0.42437 2.19677,0.262613 -0.0455,-0.581353 0.40098,-1.606574 1.17823,-1.887613 0.57082,-0.969568 0.62663,-0.451758 1.27756,0.05985 0.563,1.321528 0.98435,0.524033 1.93099,0.30822 -1.01266,0.0058 0.82151,-0.423602 0.6472,-0.673312 1.16582,-0.340181 -0.33248,0.57441 0.73197,0.600289 0.57205,1.239576 0.44968,0.766549 1.19353,1.26276 0.53141,-1.300731 0.9312,0.704676 1.03125,0.504693 0.43169,-0.08456 1.67421,-0.992714 1.58682,0.239804 0.68654,0.31659 0.1015,1.374011 1.43454,1.373162 0.83803,0.258468 -0.1985,0.803383 0.39971,1.928909 0.68002,0.907443 1.81587,0.922349 1.19841,1.534543 0.69284,-0.284696 2.39966,1.410789 1.85942,-0.03581 0.80638,0.116794 1.44797,-1.042206 2.40551,-0.588299 0.42381,-0.153619 1.34712,-0.436614 0.77894,-0.746344 0.89591,-0.978898 -0.43965,-0.320276 0.0242,-1.112212 -1.2495,0.02218 -1.30083,-0.614265 -1.29,-0.819553 0.46114,-0.312116 0.5787,-1.000124 0.69625,-1.586697 -0.26865,-0.738395 -0.45216,-1.977009 -0.21222,-1.911647 -0.92888,0.362873 -0.93045,1.282007 -1.72289,0.394758 -0.24486,-0.668394 -0.20331,-0.758549 -0.35029,-1.115764 -0.79178,0.09592 -0.89258,-0.476269 -0.99156,-0.731561 0.33951,-0.231105 -0.29587,-1.087396 -1.01643,-1.250776 -0.66333,-0.313274 -0.40972,0.329242 -0.58161,-0.76001 -0.83044,0.09266 -1.23628,0.08529 -1.46875,-0.615614 -0.7858,0.227248 -0.0897,-1.05057 -0.8963,-1.092167 -0.16321,0.531012 -0.46269,0.145852 -1.1662,0.614031 -0.42393,-0.888673 -1.45217,-0.197631 -0.5625,-0.6875 -0.77801,-0.420688 -1.01034,0.15958 -1.40625,0 -1.07798,-0.196754 -1.47019,0.0061 -1.46875,-0.96875 z m -8.625,11.59375 c 0.25393,0.490147 1.31382,-0.232243 0,0 z m 21.75,18.09375 c 0.46591,0.79557 0.55945,-0.21492 0,0 z m 0.78125,15.53125 c -0.64281,0.17974 0.0295,0.77493 0,0 z m -2.09375,3.34375 c -0.26078,0.0269 0.0786,0.34534 0,0 z M 438.25,121.25 c -0.15835,-0.0257 0.0257,0.15835 0,0 z m -0.0313,0.0625 c -0.50158,-0.0555 -0.002,0.44842 0,0 z M 408,111.15625 c 0.0863,-0.42519 -0.53381,-0.0947 0,0 z M 413.28125,111 c 0.47918,0.0209 0.0752,-0.3552 0,0 z m 0.0937,-0.15625 c 1.01513,-0.44312 0.58527,-0.93232 0,0 z M 412.0625,85.375 c 0.22859,-0.660102 -0.28066,-0.681828 0,0 z m 0.0625,-0.5 c 0.13582,-0.335696 -0.3494,0.12281 0,0 z m 13.03125,-5.53125 c 0.29828,-0.01646 0.6149,-0.211579 0,0 z m -0.0937,0.09375 c 0.18426,0.0054 -0.0824,-0.143634 0,0 z m 5.21875,0.71875 c -0.30459,0.0086 0.82135,-0.613408 0,0 z m -17.0938,1.53125 c 0.70485,0.572476 -1.26806,-0.16802 0,0 z m 20.125,0.9375 c -0.65948,0.602852 -0.4201,-0.791466 0,0 z m 0.0625,0.0625 c 0.23517,0.955032 -0.90528,0.819228 0,0 z m 0.0937,0.71875 c -0.55388,0.186651 0.0351,-0.375447 0,0 z M 439.125,83.5 c 0.27548,0.335137 0.19315,-0.188652 0,0 z m 0.3125,0.15625 c 0.12913,-0.168369 -0.36333,-0.337366 0,0 z m 0.125,0.03125 c -0.11617,0.453013 1.15422,-0.310613 0.34375,-0.09375 -0.34834,0.282944 -0.23393,-0.474684 -0.34375,0.09375 z M 439.5,83.90625 c -0.33265,0.475789 0.44583,-0.159171 0,0 z M 439.9375,83.75 c -0.075,-0.09519 0.21912,-0.151877 0,0 z M 439.75,84 c 0.26738,0.01811 0.12488,-0.309876 0,0 z m -27.875,0.84375 c 0.10636,-0.04738 -0.0192,-0.360278 0,0 z m -0.5625,0.71875 c 0.62039,0.368485 0.0204,-0.720342 0,0 z m -0.21875,0.15625 c 0.63419,0.69911 0.39248,-0.282727 0,0 z m 0.875,0.40625 c -0.49615,0.624622 -0.14525,-0.555674 0,0 z m 4.625,0.28125 c -0.33199,0.340286 -0.21121,-0.699872 0,0 z m 17.03125,0.0625 c -0.18503,-0.393806 -0.47612,-0.287857 0,0 z M 432.65625,86.5 c 0.18034,-0.0148 -0.0426,-0.07984 0,0 z m -22.46875,0.3125 c 0.30625,-0.252045 -0.13866,-0.428645 0,0 z m 6.625,0.03125 c -0.007,0.486918 -0.33693,-0.210292 0,0 z m -0.1875,0.09375 c -0.56227,0.574348 0.25794,-0.477006 0,0 z m 3.78125,3.4375 c -0.22995,0.310436 -0.64195,0.959514 0.15625,0.15625 0.46635,0.417001 -0.1035,-0.554255 -0.15625,-0.15625 z M 420,90.75 c 0.41119,-0.119129 -0.17677,-0.145075 0,0 z m -5.6875,3.15625 c -0.27609,-0.184057 -0.1709,-0.113935 0,0 z m 13.9375,1.125 c 0.92205,0.395429 -0.18865,-1.305494 0,0 z m 1.5,1.46875 c -0.31134,0.209667 -0.0903,-0.155123 0,0 z m -6.5625,2.1875 c 0.32485,0.0186 -0.32613,-0.356401 0,0 z m 0.125,0.15625 c 0.77416,0.310314 0.46589,-0.226024 0,0 z m 0.5625,0.5 c -0.42274,0.480816 0.27151,-0.278954 0,0 z m 0.1875,0.03125 c 0.47893,0.054 -0.0295,-0.154768 0,0 z m 13.1875,0.21875 c 0.4476,0.295136 0.15966,-0.445538 0,0 z m -13.1875,0 c 0.37183,0.57687 0.0968,-0.345795 0,0 z m 15.65625,2.59375 c 0.98396,0.46922 -0.43093,-1.23751 0,0 z m 0,1.03125 c -0.0802,0.44264 -0.19024,-0.006 0,0 z m 0.9375,1.21875 c 0.1125,-0.11771 -0.25156,-0.21041 0,0 z m 1.125,1.28125 c 0.5844,-0.13693 0.14688,-0.40683 0,0 z m -32.84375,2.5 c -0.41545,0.69675 0.52333,1.06537 0.65625,0.0625 -0.0905,-0.5946 -0.5099,-0.69865 -0.65625,-0.0625 z m 3,0.21875 c -0.0668,-0.28944 -0.52152,-0.14202 0,0 z m -0.3125,0.28125 c 0.45237,0.35541 0.6096,-0.37392 0,0 z m -2.6875,0.15625 c 0.0972,-0.30631 -0.56139,-0.0631 0,0 z m 1.375,0.34375 c -0.13704,-0.0581 0.22749,-0.10689 0,0 z m 26.40625,0.1875 c -0.40561,0.46191 1.55216,-0.51344 0,0 z m -24.5,-0.0313 c 0.24024,0.20689 -0.0623,-0.2943 0,0 z m 0.9375,0.34375 c 0.41523,-0.12633 -0.26562,-0.48157 0,0 z m -0.1875,0.0937 c 0.26405,-0.0894 0.0191,-0.45546 0,0 z m -4.75,0.0625 c -0.39658,-0.059 0.14039,-0.54543 0,0 z m 4.625,0.0625 c 0.11403,0.21285 -0.80557,-0.46213 0,0 z m 0.46875,0.25 c 1.03154,0.42497 -0.38401,-0.9561 0,0 z m 0,0 c -0.0414,-0.12047 -0.19591,0.099 0,0 z m 23.40625,-0.28125 c -1.42712,0.76037 0.79195,-0.0668 0,0 z m -0.4375,0.40625 c -0.57004,1.01682 0.76666,0.33765 0,0 z m -23.21875,0.0625 c 0.32596,0.11584 0.0549,-0.38285 0,0 z m -5.46875,0.78125 c 0.3547,0.27372 0.18531,-0.41172 0,0 z m 5.0625,0.5 c -0.1257,0.53438 -0.16574,-0.37181 0,0 z m -6.09375,0.75 c 0.89267,0.26948 0.15128,-0.92129 0,0 z m 0.46875,-0.0313 c 0.39255,0.1831 -0.0801,-0.35813 0,0 z m 5.375,-0.3125 c 0.0761,0.29055 -0.31138,-0.30114 0,0 z m -0.0313,0.25 c 0.70439,-0.15024 0.8089,-0.0951 0,0 z m 1.84375,1.84375 c -0.4974,0.10631 -0.63332,-0.35133 0,0 z m -0.375,0.125 c 1.07272,0.0103 -1.58279,0.0362 0,0 z m -4.0625,0.78125 c -0.98316,0.22192 0.31708,-0.6763 0,0 z m 25.125,0.46875 c 0.37968,0.0679 -0.38799,-0.65265 0,0 z m 0.78125,0.4375 c -0.44706,0.2258 0.2152,-0.34554 0,0 z m -0.375,0.71875 c -0.85977,1.5195 -0.14816,-2.10893 0,0 z m -26.6875,-0.40625 c 0.16732,0.20928 0.17116,-0.13302 0,0 z m 0.25,0.15625 c 0.46583,0.34758 0.35056,-0.31534 0,0 z m -0.0937,0.0313 c -0.10185,1.01091 1.02052,0.0578 0,0 z m 0.3125,0.21875 c -0.22987,0.43695 -0.0916,-0.17366 0,0 z M 410,117.8125 c -0.0751,1.01938 0.0379,-1.15854 0,0 z m -0.0313,-0.0937 c 0.31914,-0.4055 -0.13186,-0.12283 0,0 z m -1,0.5625 c -0.59012,0.52936 1.10658,0.33922 0.0625,-0.0625 l -0.0625,0.0625 z m 23.09375,0.65625 c 0.23584,0.12775 -0.0122,-0.44644 0,0 z m 7,1.34375 c -0.56515,0.2701 0.74864,0.51104 0,0 z m -15.125,0.59375 c 0.49671,0.54535 0.37824,-0.37358 0,0 z m 14.375,1.03125 c 0.17197,-0.66537 -0.18241,-0.80522 0,0 z M 412.46875,123 c 0.0729,-0.44703 0.022,-0.7455 0,0 z m 0,0 c 0.10449,0.50297 0.31629,-0.26182 0,0 z m 0.125,0.15625 c -0.23702,-0.25793 0.0427,0.31924 0,0 z m 2.0625,0.15625 c 0.59748,0.50763 -0.52991,-0.27205 0,0 z m -0.1875,0 c -0.65761,0.0654 -0.45863,-0.14097 0,0 z m 22,1.15625 c -0.0718,-0.6473 -0.48157,-1.00034 0,0 z M 414.8125,124.1875 c 0.46838,0.85081 -0.69214,-0.20594 0,0 z m 3.03125,1.1875 c 0.0945,0.0851 0.0782,-0.13777 0,0 z m 6.84375,0.46875 c -0.64604,1.10382 -0.12774,-0.9736 0,0 z m 0.3125,0.3125 c 0.0711,0.17172 -0.17172,-0.0711 0,0 z" />
      <path
         inkscape:connector-curvature="0"
         id="path3931"
         style="font-size:72px;font-weight:bold;line-height:0%;fill:#f9f9f9;font-family:Sawasdee;-inkscape-font-specification:Sawasdee Bold"
         d="m 466.6875,88.53125 c -0.0949,0.209612 0.32758,-0.07481 0,0 z m -0.15625,0.8125 c 0.15294,0.212538 0.32747,-0.468249 0,0 z m 0.8125,0.15625 c -1.4069,-0.20198 1.03904,0.403842 -0.40625,0.46875 -0.2973,0.671902 -0.34925,-0.348101 -0.762,-0.367742 0.17441,1.189389 -0.64705,0.43241 -0.81193,1.227093 -0.23357,0.02699 -0.53663,-1.333639 -1.39013,-0.796851 -0.20525,0.163543 0.37711,1.066299 -1.11373,0.906947 -0.38941,-0.08848 -0.64468,0.04965 -1.67221,0.468053 0.61801,-0.257585 -0.79958,1.592115 -0.67926,0.589149 -0.85696,-1.454738 -0.39454,-0.413393 -0.90905,0.23805 0.15998,0.804147 -1.7609,-0.939634 -1.22073,0.707584 -0.94287,-0.736648 -0.54141,1.383073 -1.30691,1.144311 -0.63722,1.568914 -0.63529,0.142065 -1.39548,0.98877 -0.26921,0.906438 -1.07706,0.661985 -1.21513,1.032131 -0.30839,0.301102 -0.33528,0.970943 -1.18114,0.667363 0.4308,0.684815 -1.30004,-0.400222 -0.43605,0.226392 0.40537,0.09249 -0.7285,0.619817 -0.21875,1.0625 -0.75737,0.440908 -0.44081,0.467547 -0.91696,0.922227 1.03676,-0.07143 -1.20321,1.412403 -0.76993,1.391283 0.92042,0.75477 -0.14564,1.60119 -0.72662,1.54949 -0.52925,0.11082 1.08073,0.80013 -0.0552,0.54325 -0.0677,0.58441 -0.54789,0.38549 -0.21875,1.21875 -0.50349,0.19752 -0.6372,-1.53325 -0.83605,-0.51223 -0.71547,0.27154 1.52944,1.77135 0.3673,1.94973 0.66,-0.10861 0.59352,2.29016 -0.0625,1.90625 -0.19485,-0.062 -0.38778,-0.24136 -0.92102,0.09 0.0697,0.55354 -0.77842,0.68905 0.29187,0.68363 0.19223,0.0752 0.0355,0.58723 0.0666,1.50765 -0.79412,0.18603 0.21925,0.96482 0.3125,1.40625 0.0837,0.38949 0.42134,0.95173 0.375,0.96875 0.42029,-0.11249 1.03101,-0.12854 0.23822,0.30299 -0.98578,-0.4268 -0.79157,0.74747 -0.23396,0.32627 0.55069,0.37865 -0.6227,2.17975 0.4463,1.80264 0.0939,0.66968 1.95429,1.2423 1.13195,1.34873 -0.32224,-0.35758 0.75432,2.74986 0.70812,1.81002 0.40934,-0.66708 0.55734,0.83567 0.88156,0.99481 -0.28148,-0.0323 -1.13041,-0.19616 -0.39094,0.82079 0.70624,0.21428 1.27608,-0.0157 1.05711,1.07598 -0.68592,1.36816 0.55629,-0.59928 0.76789,0.35403 0.28449,-0.63991 1.72655,-0.48847 0.91681,0.3505 -0.76226,0.43549 -0.92778,0.88034 0.32495,0.5675 -1.1667,0.31232 1.58053,0.27373 0.0895,0.40199 -0.67558,0.91601 0.2078,0.63489 0.53125,1.375 1.29136,-0.17832 1.44567,-0.13585 0.83295,0.23225 -0.68169,0.67301 0.86229,-0.3654 0.57799,-0.201 0.74634,-0.0244 0.94898,1.15428 0.99531,1.3125 -0.14759,-0.14562 0.69054,0.97402 0.40625,-0.0625 -0.24691,-0.77655 -0.3357,-0.24234 0.25,-0.28125 0.20741,0.72281 -0.0119,0.547 0.84375,0.6875 1.20966,-1.46978 0.28703,1.12854 1.125,0.96875 0.52621,1.57204 0.66057,0.066 0.71875,0.40625 0.67477,0.51454 1.16306,-0.38725 1.42826,-0.32898 0.20301,-1.20478 1.32273,0.97849 1.22782,-0.48999 0.33621,-0.60287 1.35731,1.80922 1.51942,1.06171 0.74769,-0.0588 1.90278,-0.78886 1.6995,-0.18024 0.53065,-0.39333 1.81713,0.51529 0.6875,-0.375 0.74237,0.19408 0.9492,1.92468 1.53125,0.53125 0.79442,0.24672 1.93706,0.48757 2.06657,0.3905 0.69,-0.88076 0.45739,0.25884 0.90218,-0.10925 0.76384,-0.72254 0.51495,-1.03678 0.71875,-0.9375 0.85306,-0.67378 1.68046,0.48076 1.70752,-0.20798 -0.59434,-0.21057 0.64083,-0.0567 1.27679,-0.46871 0.85114,-0.35591 0.25396,-1.62536 0.67194,-0.76081 0.4093,0.0531 1.73813,-0.0297 1.39471,-0.7625 1.1961,0.25683 -0.31422,-0.85007 0.76504,-0.91419 0.28668,-0.84436 0.90618,-0.53325 1.17636,-0.63436 0.24642,0.48435 0.90836,-0.35542 1.27753,-1.14413 1.05986,-0.47275 1.57288,-1.1786 1.94886,-0.57607 0.13159,-0.78709 0.36695,-0.69693 0.0821,-1.4652 -0.82149,0.56699 -0.7637,-0.47472 -0.69364,-0.57144 0.50962,-1.1824 1.39007,0.93825 1.67402,-0.18211 0.50398,-0.18481 1.18037,-0.37483 0.48103,-0.48827 0.10222,-0.14532 -0.96834,-1.5379 -0.23103,-1.66798 0.15005,0.45461 0.58049,1.22465 1.25,0.84375 -0.88348,-0.3029 0.90983,-1.22157 -0.25,-1.3125 0.27052,-0.45007 1.32357,-0.84162 0.8125,-0.875 0.0163,-0.80706 -1.73969,-0.28834 0.002,-0.9718 -0.48887,-0.43801 -0.10805,-1.22439 0.37253,-1.68445 -0.27455,-0.58505 0.24845,-1.1454 0.0891,-1.0625 0.45131,-1.15613 -0.13517,0.0849 -0.33906,-0.46875 0.62472,-0.30706 0.88577,-0.47053 0.67169,-0.96078 -0.40529,-0.74045 -0.50186,-1.10165 -0.65536,-1.28753 0.25284,-0.29772 -0.21248,-1.47994 0.57742,-2.18919 -0.10133,-0.86414 0.41606,-0.29135 -0.3125,-0.90625 -0.0256,0.15173 0.3193,-0.30082 -0.25,-0.65625 -0.37114,0.71665 -0.91524,-1.08784 -0.11387,-0.58248 0.23631,-0.8963 -1.80444,-0.23357 -0.91738,-1.41752 0.7825,0.60183 -0.33444,-0.50823 0.0301,-0.86782 0.18376,-1.49748 -0.69719,0.48536 -0.84255,-0.94468 -0.26515,-0.61471 0.58215,-1.329359 -0.15625,-1.5 0.65923,-0.721768 -1.53858,-0.924459 -0.65625,-0.875 1.11628,-0.434239 0.0259,-0.05155 -0.19158,-0.497284 -0.44759,0.530779 -0.70511,0.786972 -0.77717,-0.190216 0.21113,-0.448001 -0.87313,-0.276077 -0.57876,-0.868759 -0.49569,0.664426 -1.16491,-0.536263 -0.51499,-0.849991 0.39241,-0.478969 -1.02449,0.586323 -1.25,-0.1875 0.97372,-0.667351 -0.58397,0.22198 -0.375,-0.34375 -1.26202,0.01052 0.11675,-0.810256 0.15625,-0.6875 0.89676,-0.481385 -0.19737,-0.935734 -0.6875,-0.125 -0.27749,-0.987011 -1.15987,-0.908114 -1.65625,-1.75 0.25563,-0.860155 -1.19201,0.434635 -0.8125,-0.28125 -0.73735,0.120898 -0.9576,-1.214459 -0.65794,-1.360082 -0.46598,0.394345 -0.36554,0.07052 -1.02956,-0.108668 -0.46899,0.891067 -0.25517,1.419274 -1.16538,0.667872 0.62921,-0.674241 0.64785,-0.422627 0.47788,-1.449122 -0.62655,0.22286 -0.57785,0.995914 -1.23592,1.0625 -0.90673,0.02629 -0.5494,-1.536834 -1.29533,-0.78125 -0.75805,0.692729 -0.60068,-0.728793 -1.28125,-0.8125 -0.64622,1.222318 -0.90283,-0.840193 -1.77419,0.562924 -0.97255,0.720048 -0.35489,-1.423169 -1.40152,-0.40971 0.40748,0.907237 -0.0201,0.33761 -0.62599,-0.104216 -0.11199,1.113853 -0.11276,-0.946458 -0.35455,-0.267748 z m 13.875,4.5625 c 0.4014,0.363218 -0.25396,-0.496285 0,0 z m 4.875,6.84375 c 1.16002,-0.28823 -0.0571,-0.35429 -0.39686,-0.59375 -0.5506,0.11942 0.23579,0.4927 0.39686,0.59375 z M 454.96875,121 c 0.11562,-0.37943 0.38446,-1.39241 0,0 z m -3.03125,-3.375 c -1.46344,-0.91675 0.25373,0.35016 0,0 z m -2.5,-5.71875 c 0.16382,-0.0291 0.17372,-0.35815 0,0 z m 0.5625,-10 c -0.14507,-0.17677 -0.11913,0.41119 0,0 z m 2.625,-4.9375 c -0.33777,0.402642 -0.0509,0.498756 0,0 z m 13.84375,-7.15625 c -0.12764,0.477363 0.15418,-0.0267 0,0 z m 4.8125,-0.1875 c 0.24045,-0.424409 -1.3188,-0.401274 0,0 z m -2.375,-0.1875 c 0.16582,0.155954 0.4399,-0.251949 0,0 z M 463.75,89.75 c 0.22997,-0.342296 0.19494,-0.398337 0,0 z m 3.46875,-0.0625 c -0.14499,-0.104462 -0.4844,-0.05178 0,0 z m 7.96875,0.28125 c 0.28226,-0.170527 -0.46028,-0.243951 0,0 z m -14.3125,0.8125 c -0.85994,-0.143765 -0.41447,0.440084 0.0625,0.3125 0.42603,0.06457 0.16991,-0.398078 0.1875,-0.40625 -0.32002,-0.453889 -0.2487,-0.535793 -0.25,0.09375 z m 0.0937,0.6875 c 0.25854,0.115406 0.0446,-0.294042 0,0 z m 18.4375,0.6875 c -0.67305,0.114221 -0.0638,0.185648 0.28125,0.40625 0.2076,-0.23735 0.14114,-0.730666 -0.28125,-0.40625 z m -18.8437,0.15625 c -0.43529,-0.270131 -0.14215,-0.379276 0,0 z M 460.25,92.75 c -0.20118,-0.02946 0.14226,-0.272314 0,0 z m 0,0.03125 c -0.5069,1.302375 -0.85247,-0.532142 0,0 z m 0.15625,0.03125 c 0.10111,0.291495 -0.32963,-0.209202 0,0 z m 20.5,0.34375 c 0.13649,1.290689 1.12345,0.234241 0.14447,-0.197011 -0.32186,-0.214792 -0.26879,-0.04539 -0.14447,0.197011 z m -23.6875,0.0625 c -0.2709,-0.238964 -0.54221,-0.348975 0,0 z m 23.6875,1.125 c -0.15684,0.303476 -0.23834,-0.04993 0,0 z M 481.5,95.0625 c 0.0651,0.447813 0.72676,-0.699229 0,0 z m 0,0.15625 c -0.096,-0.01613 0.0161,0.09597 0,0 z m -15.34375,-0.1875 c 0.33653,0.108576 1.18241,-0.457805 1.15165,0.398007 0.23634,-0.0612 0.65293,1.288762 0.9992,1.202273 0.26305,-0.841163 0.23471,-1.353572 1.0872,-1.363047 0.36403,-0.472661 2.02917,-0.297131 1.4182,0.387767 -0.47444,0.140603 -0.28744,0.568629 0.45226,0.678297 -0.25816,-0.773689 0.38857,-0.517563 0.42274,-0.240797 0.18789,0.601354 1.10551,-0.518939 0.56825,-0.650634 -0.14444,-0.82084 0.91241,0.955581 1.34751,0.576358 0.0932,-0.400945 0.97724,-1.8e-5 1.27308,0.568318 -0.0264,0.890252 1.54465,0.926696 1.21538,0.06789 0.44051,0.62309 -0.13745,0.967436 0.35533,1.417434 0.0695,0.57247 0.23852,-0.266016 0.73327,-0.603173 0.63146,1.12031 0.15223,-0.395437 0.72593,-0.251197 0.99913,1.029077 -0.65413,-0.108155 0.0625,0.65625 -0.57817,-0.291489 -0.61506,1.159054 -0.1875,0.71875 0.241,-0.03577 0.82981,0.605394 0.78125,0.90625 0.18377,0.289574 0.67203,0.656924 1.14326,1.177664 -0.16225,0.40983 -1.33806,0.0956 -0.59165,0.53924 1.81276,-0.24607 -0.88662,1.84439 0.41776,1.39686 0.41453,-0.58493 0.60336,0.45365 0.23632,0.41189 0.58878,0.10274 1.04845,0.77824 1.21433,0.5113 0.80758,0.98167 0.32383,1.39965 0.45153,2.20623 0.70198,0.59012 0.50557,1.33967 0.25345,2.00682 -0.17361,1.00068 0.80815,-0.27327 0.53125,0.84375 -0.47692,0.76053 0.10337,0.81461 0.0621,1.45281 0.25087,0.17686 0.13459,1.77965 -0.12462,0.92219 -0.35683,0.6827 -1.45301,0.63794 -0.8125,1.59375 0.19737,0.30788 -0.12065,0.31789 -0.5625,0.53125 -0.10425,0.56222 -0.38657,0.19996 -0.46875,0.78125 0.33001,0.14983 -0.26867,0.33782 -0.28125,1.125 -1.38536,0.88673 -0.78829,0.35026 -0.36394,0.99497 0.2218,1.25737 -0.61624,0.88682 -0.87328,1.68379 -0.99287,0.35945 -1.31345,-0.41156 -1.23734,0.2073 0.019,0.26848 -0.9049,0.2915 -0.92754,-0.20621 -0.12002,0.91382 0.23083,0.85487 0.37085,1.32015 0.0779,-0.10793 -0.81434,0.4006 -0.38809,0.80235 1.05153,-0.38904 1.18781,1.3639 0.89404,0.39546 -1.10846,0.61332 -0.52077,0.19368 -1.25595,-0.51031 0.0907,-0.28208 -0.26791,-0.05 -0.19499,-0.23125 -0.43564,0.43337 -0.39663,-0.0643 -1.24677,0.45426 -0.83394,0.60442 -0.72051,0.0641 -0.87074,0.46449 -0.41281,0.76871 -1.73977,0.63869 -1.15625,1.03125 -0.36782,0.78409 -0.92808,-0.86999 -1.1875,0.1875 -0.77272,0.0284 -0.84078,-0.45191 -0.75,0.21875 -0.78466,-0.13074 -1.19996,-1.54955 -1.09746,-0.57931 -0.67025,-1.12227 -0.82399,1.46133 -1.65254,0.64181 0.31241,-0.84998 -0.51874,-1.2538 -0.28125,-1.16564 -0.6427,-0.4523 -0.41663,1.20963 -1.25419,0.70168 -0.716,-0.31238 -1.27956,-0.089 -1.51798,-0.049 -0.52278,-0.0442 -0.65684,-0.15976 -1.69658,0.10673 1.17828,-0.9021 -0.84239,-0.83471 -0.39445,-1.03376 -0.0572,0.25377 -0.53119,-1.74863 -0.91805,-0.30999 -0.7572,-0.80225 -0.31977,-0.41561 -0.96875,-0.28125 0.32393,-0.62397 -0.85969,-0.33768 -0.58951,-1.02504 0.5293,-1.34867 -0.3729,-0.0849 -0.99519,-0.29587 0.28794,-0.81802 -0.61121,-0.44061 -0.17022,-1.61032 -0.94641,0.67651 -0.20978,-0.55536 -1.52633,-0.50627 -0.76504,-0.32885 -0.9858,0.46761 -0.98797,-0.11511 0.13261,-1.1393 0.60094,-0.53375 0.51922,-1.54114 -0.94418,0.53042 -0.20982,-0.0339 -1.52644,-0.3422 -0.41783,-0.76695 1.04316,-0.28849 0.16284,-1.32273 -0.37114,-0.22175 0.40009,1.21677 -0.7512,0.93925 0.58721,-1.03851 -0.37023,-0.17424 -0.32786,-0.66234 -0.26458,0.0312 0.1036,-1.44848 -0.22156,-1.56529 0.98008,0.0462 0.18305,-0.70596 1.01107,-0.55607 -0.37742,-0.20802 -1.18291,-0.069 -0.9286,-0.68538 -0.55414,-0.55599 1.81454,0.0175 0.59114,-0.49274 -0.93022,-0.25099 -0.39547,-0.25098 -0.49718,-0.48285 -1.79627,-0.10496 0.13747,-0.18215 -0.29815,-1.25308 -0.73876,-0.59328 0.55329,-1.42753 0.19219,-1.73282 -0.0826,-0.81497 0.69257,-1.85238 0.0616,-2.36811 0.26289,-0.44654 1.07939,-0.87211 0.28212,-0.78814 0.19146,-0.34069 0.5842,-0.50129 1.125,-1.09375 0.58589,-0.71115 -0.84308,-0.58124 0.36409,-1.49504 1.02667,0.35058 0.43824,0.27793 0.77032,-0.47002 0.0805,0.68865 1.36439,0.40967 1.20934,0.0276 -0.12573,-0.453327 -0.7581,0.34817 -0.75,-0.1875 0.86264,-0.323167 0.61009,0.0131 0.65625,-0.812504 -0.91594,1.222294 0.0345,-0.713826 -0.78125,-0.9375 0.39803,0.542336 -0.25509,0.01575 0.76655,0.03001 -0.72496,1.267881 0.74006,0.548458 0.37563,-0.05657 0.77198,-0.564491 0.13948,1.115234 0.85782,-0.379691 0.36801,0.913863 0.66052,-0.925219 0.84375,-0.09375 0.0112,-0.190113 1.99403,0.489493 0.48229,-0.613647 -0.53187,-1.016743 0.39898,-0.850509 1.34576,-1.230076 0.32464,1.060656 0.0786,0.02067 1.05421,0.355719 0.9449,-0.266109 2.03966,-0.417231 0.84146,-0.890548 0.71967,-0.614104 0.90261,0.644239 0.99503,0.722302 -0.43267,1.102883 0.48941,-0.895011 0.46875,-0.28125 0.16555,-0.836803 1.9437,0.326193 0.55262,-0.550291 -0.34711,-0.176727 -0.67974,-0.437985 -0.0839,-0.574709 l 0.0313,-0.03125 -0.0313,0.15625 z m -5.625,3.03125 c -0.81452,0.816245 0.86501,0.44638 0,0 z M 459,98.84375 c -0.76504,0.471763 0.45347,0.643269 0,0 z m -0.5625,0.625 c 1.53287,0.301978 0.50564,-0.547157 0,0 z m -2.71875,10.625 c 0.18123,-0.0679 -0.0784,-0.41036 0,0 z m 0.0937,2.75 c -0.01,-0.16949 -0.0846,0.10862 0,0 z m 20.9375,6 c -0.60855,-0.089 0.006,0.23996 0,0 z m 5.40625,-10.3125 c 0.004,-0.57303 -0.19181,-0.44883 0,0 z m -11.34375,-12.875 c 0.0429,-0.05766 -0.10364,-0.03251 0,0 z m -17.1562,-0.34375 c 0.17687,0.344386 1.29196,0.355016 0.96875,0.03125 -0.38645,-0.417435 -0.60556,-0.59053 -0.96875,-0.03125 z m 15.40625,-0.34375 c 0.35682,0.242088 -0.32138,-0.07049 0,0 z M 482.5,95.3125 c 1.7696,1.937945 -0.61576,-1.152513 0,0 z m 0,0.0625 c -0.0276,0.573903 0.34865,0.128382 0,0 z m -15.84375,-0.0625 c 0.2522,-0.02742 -0.32958,-0.413308 0,0 z m 0.0625,-0.03125 c 0.0795,0.705444 0.35375,0.311764 0,0 z m 5.21875,0.15625 c 0.26339,0.464797 -0.47857,0.508325 -0.13883,-0.154105 0.16477,-0.337484 0.1078,0.05271 0.13883,0.154105 z m -2.21875,1.03125 c 0.95714,0.299734 0.46148,-0.672898 0.19428,-0.60714 -0.0648,0.20238 -0.12952,0.40476 -0.19428,0.60714 z M 470.09375,96 c 0.45925,-0.09108 0.22837,-0.626605 0,0 z m 0.15625,0.125 c 0.31717,0.124718 0.17234,-0.161485 0,0 z m 12.4375,-0.3125 c -0.1857,0.17472 0.85871,-0.176978 0,0 z m -28.65625,0.46875 c 0.39265,-0.161835 -0.0874,-0.520336 0,0 z M 470.0625,96.0625 c -0.42868,0.239121 -0.005,-0.123459 0,0 z m 12.59375,0.0625 c -0.71362,0.0336 0.57723,0.07127 0,0 z m -16.1875,0.03125 c 0.0872,0.365356 0.12738,-0.02995 0,0 z m 17.125,0.53125 c 0.97689,0.228506 -0.74797,-0.65111 0,0 z m -7,0 c -0.39567,-0.06408 -0.3502,-0.121394 0,0 z m 7.03125,0.1875 c -0.16446,0.375532 0.30085,0.04222 0,0 z m -22.1875,0.15625 c 0.40793,1.441749 1.31558,-0.919681 0,0 z m 0.75,-0.125 c 0.12784,0.397473 0.22058,-0.118942 0,0 z m -8.90625,0.5 c 0.0664,0.796844 -0.50225,-0.04872 -0.21449,-0.214486 l 0.12927,0.129264 0.0852,0.08522 z m 22.125,-0.125 c 0.78749,-0.01696 0.0982,0.019 0,0 z m -13.1875,0.03125 c 0.13657,0.140612 0.16955,-0.208286 0,0 z m -9.84375,0.15625 c 0.17163,0.187682 0.17505,-0.414483 0,0 z M 452.4687,97.5 c 0.0467,0.0975 0.12187,-0.04274 0,0 z m 25.40625,0.90625 c -0.29405,0.355523 -0.43619,-0.473077 0,0 z m 6.28125,0.71875 c -0.56181,-0.05627 0.12498,-0.307887 0,0 z m -0.0313,0.03125 c 0.47535,0.821714 -0.61293,0.548732 -0.28125,0.0625 0.0973,0.01246 0.16319,-0.271157 0.28125,-0.0625 z m -6.75,0.15625 c 0.44849,-0.117816 0.34914,-0.250187 0,0 z m 0.1875,0.1875 c 0.39139,0.133075 1.08652,0.127309 0.65625,0.3125 -0.0824,-0.21283 -0.1922,-1.196636 -0.65625,-0.3125 z m 1.90625,0.28125 c -0.11737,-0.205386 0.90456,-0.367587 0,0 z m -28.5,0.1875 c 0.36149,-0.177165 0.24876,-0.649566 0,0 z m 27.46875,-0.25 c 0.19878,0.264414 0.0233,-0.229852 0,0 z m 0.3125,0.21875 c 0.16669,1.10446 -0.0901,-0.520055 0,0 z m 0.53125,-0.03125 c 0.50181,0.32173 -0.61311,0.42054 0,0 z m -21.25,0.59375 c -0.33341,0.10354 0.041,-0.13262 0,0 z m 0.84375,0.28125 c 0.57149,0.20018 -0.13251,-0.59043 0,0 z m -1.71875,0.4375 c -1.216,0.31206 0.96771,0.35732 0.27142,0.1257 -0.32403,0.16154 -0.13218,-0.26955 -0.27142,-0.1257 z M 449.25,102 c 0.55131,0.67868 0.89025,-0.29103 0,0 z m 2.125,0.125 c -0.10664,0.84556 -1.17001,-0.31481 0,0 z m -1.625,0.25 c 0.33438,-0.003 0.57125,-0.14267 0,0 z m 38.03125,2.03125 c 0.13262,0.041 -0.10354,-0.33341 0,0 z m -39.34375,0.9375 c 0.57151,0.0308 1.14961,1.6408 1.15625,0.40625 -1.13963,0.17169 -0.26029,-1.31975 -1.1103,-0.46751 l -0.046,0.0613 z m 39.1875,-0.15625 c 0.13045,0.30093 -0.25126,-0.55577 0,0 z m -38.375,0.28125 c 0.15647,0.1956 0.18374,-0.35259 0,0 z m 38.71875,-0.0625 c -0.49075,-0.25326 0.95862,0.27959 0,0 z m -5.65625,0.4375 c -0.60044,0.63555 -0.58653,-0.53192 0,0 z m 5.3125,0.3125 c 0.33257,-0.38394 0.0998,-0.0897 0,0 z m -6.09375,0.25 c 0.42407,-0.154 -0.29002,-0.34259 0,0 z m -0.4375,-0.0937 c 0.12444,0.26604 0.21128,-0.29559 0,0 z m -0.28125,0.0937 c 0.42125,0.17634 0.31378,-0.2612 0,0 z m 0.28125,0.0313 c -0.0457,0.36603 0.25273,-0.0311 0,0 z m -0.40625,0.0313 c 0.2398,0.0386 -0.0282,-0.15825 0,0 z M 450.125,106.75 c -0.27489,0.0542 -0.37685,-0.58746 0,0 z m 31.5625,-0.0937 c 0.12143,-0.0503 -0.12143,-0.0503 0,0 z m 5.5625,1.03125 c 0.44506,-0.0945 0.20001,-0.61252 0,0 z m -6.0625,-0.15625 c 0.76884,0.68621 0.35865,-0.51515 0,0 z m 6.125,0.25 c 0.17942,0.48644 0.24694,-0.50315 0,0 z m -32.84375,0.9687 c -0.14156,0.0853 -0.11186,-0.23017 0,0 z m 32.9375,0.40625 c -1.00932,0.19884 -0.14254,-0.82957 0,0 z m -31.59375,0.40625 c -0.3858,0.0749 -0.0153,0.57687 0.70202,0.33649 0.44809,-0.0769 -0.80904,-0.42897 -0.70202,-0.33649 z m 32.28125,0.0625 c -0.0862,0.52848 0.30224,-0.22573 0,0 z m -6.1875,0.25 c 0.23962,0.29101 0.0745,-0.24225 0,0 z m 6.1875,0.125 c 0.28329,0.47269 0.20682,-0.11111 0,0 z m -7.625,1.21875 c 0.24032,0.4377 -0.0312,-0.34792 0,0 z m 0.15625,0.125 c -0.80594,0.58766 1.14239,-0.0323 0,0 z m -30.84375,-0.0625 c -0.11981,0.14551 -0.0372,-0.12113 0,0 z m 0.0313,0.0625 c -0.10689,0.22749 -0.0581,-0.13704 0,0 z m 30.9062,0.15625 c -0.21796,-0.14796 0.52813,-0.27384 0,0 z m 1.46875,-0.0937 c 0.011,0.19224 -0.29851,-0.13163 0,0 z m -33.0625,0.2187 c 0.65063,0.0225 -1.07011,-0.40523 0,0 z m 33,-0.125 c 0.0208,0.29315 -0.22202,-0.19256 0,0 z m 0.21875,0.0625 c 0.19573,0.22076 -0.44586,-0.0217 0,0 z m -2.28125,0.28125 c 0.67287,0.1363 0.18993,-0.37077 0,0 z m 2.28125,-0.0625 c 0.0629,0.34948 -0.24175,-0.12198 0,0 z m -0.46875,0.8125 c -0.47904,-0.0201 0.64579,-0.18919 0,0 z m -0.3125,0.0313 c -0.33341,0.10354 0.041,-0.13262 0,0 z m 5,0.15625 c -0.22314,-0.20016 0.30459,-0.29948 0,0 z m -5.5625,0 c 0.29504,-0.1607 -0.32794,-0.25703 0,0 z m -0.53125,0.53125 c 0.0388,-0.14107 -0.43481,-0.11081 0,0 z m 0.0313,0 c 0.15835,0.0257 -0.0257,-0.15835 0,0 z m -24.75,0.125 c 0.2605,-0.0508 -0.0324,-0.1227 0,0 z m -5.71875,0.15625 c -0.64712,0.28718 -0.35739,-0.16088 0,0 z m 31.03125,0.5625 c 0.35285,-0.0402 -1.17706,0.28133 0,0 z m 4.84375,0.53125 c -1.10786,0.56838 0.41642,-0.49306 0,0 z m -28.25,0.6875 c 0.0513,-0.2478 -0.47319,-0.46147 0,0 z m 0,0.28125 c 0.68399,0.92374 0.14104,-1.102 0,0 z m 0.25,0.15625 c -0.95516,0.43846 0.64348,0.2893 0,0 z m -1.03125,-0.375 c -0.11628,0.45247 -0.22042,-0.39674 0,0 z m 0.59375,0.21875 c 0.0975,-0.0467 -0.0427,-0.12187 0,0 z m -0.28125,0.28125 c 0.61804,0.46145 -0.13946,-0.1804 0,0 z m 21,0.9375 c 0.31668,0.60913 0.4807,-0.48579 0,0 z m 0.46875,0.125 c -0.76422,0.50262 0.87425,0.173 0.21875,-0.15625 -0.0596,-0.1371 -0.23179,-0.13199 -0.21875,0.15625 z m 0.3125,0.0937 c -0.26143,0.36187 0.14539,0.0954 0,0 z m -19.5,0.0313 c -0.0981,1.6546 0.87075,-0.91746 0,0 z m 18.65625,0.0937 c 0.56424,-0.075 -0.57173,-0.16779 0,0 z m -17.75,1.40625 c -0.6172,0.46005 -0.38947,-0.33466 0,0 z m 23.875,0.84375 c 0.45025,0.46469 -0.21482,-0.56932 -0.012,-0.024 l 0.012,0.024 z M 461.0313,119.625 c -0.0373,0.12241 -0.19514,-0.16555 0,0 z m 14.75,0.25 c 0.3384,0.23807 -0.16764,-0.0258 0,0 z m -2.5,0.59375 c 0.60746,0.0876 -0.50979,-0.53902 0,0 z m -7.0625,0.4375 c 0.16613,0.86583 0.38331,-0.63049 0,0 z M 478.2813,123.5 c -0.44936,0.13581 -0.21228,-0.23718 0,0 z m 0.59375,-0.0313 c -0.365,0.0576 -0.32101,-0.14833 0,0 z m -15.5,1.9375 c -0.56644,0.36434 -0.002,-1.5853 0,0 z m -0.125,1.375 c 0.61991,-0.75042 0.84113,-1.01821 0,0 z m 5.90625,-0.5 c 0.27804,0.39552 -0.0963,0.0267 0,0 z m -3.21875,0.0937 c -0.22223,0.6465 -0.27689,-0.25809 0,0 z m 5.5625,0.1875 c -0.87643,-0.0307 -1.13277,-0.47596 0,0 z m -4.6875,0.21875 c 0.63293,0.38754 0.67494,-0.64264 0,0 z" />
      <path
         inkscape:connector-curvature="0"
         id="path3933"
         style="font-size:72px;font-weight:bold;line-height:0%;fill:#f9f9f9;font-family:Sawasdee;-inkscape-font-specification:Sawasdee Bold"
         d="m 513.40625,89.34375 c 0.20475,0.588451 0.26772,-0.48287 0,0 z m 1.03125,0.21875 c -0.75779,0.763168 -1.75815,1.092233 -2.4375,0.21875 -0.90015,0.553267 -2.04307,-0.328419 -2.66051,0.691764 -0.84558,1.269764 -0.96251,-0.131649 -1.51459,-0.107985 -0.98168,0.52886 -1.59651,-0.277031 -1.8249,1.166221 -0.0609,0.714478 -1.2515,-0.638802 -1.88678,0.07201 -1.33397,0.506612 -1.94309,2.012427 -3.26947,2.521739 -0.89733,1.358894 -2.5471,2.020299 -3.24718,3.577616 -0.81224,0.921704 -1.89601,1.922571 -1.25282,3.203635 0.23771,0.94089 -1.75496,1.06427 -1.15199,1.94176 -0.36136,0.4179 -1.66726,0.62124 -0.59332,1.23167 0.004,0.97251 -0.35894,1.07274 0.0266,1.42032 0.34516,1.05356 -0.59243,1.34848 -1.3125,1.34375 -0.58972,0.46745 0.41277,1.49476 0.34375,1.84375 0.60982,0.0306 1.90945,0.43625 1.09375,1 0.43244,0.88281 -0.87601,1.39105 -0.48983,1.7944 1.01703,0.62376 0.10417,0.86822 1.07559,1.1985 0.45751,0.91115 0.90553,1.43034 -0.12666,1.88635 0.0193,0.67842 -0.55029,1.95254 0.6659,1.93325 0.80375,0.61493 0.24587,1.23453 1.08735,2.08626 0.37754,0.87767 1.66575,1.12571 2.00295,2.09442 0.27217,0.90199 1.06237,1.84842 2.0972,1.75682 6e-4,1.32544 1.46292,2.07879 2.59375,1.84375 0.81481,0.5422 0.95232,1.85757 2.24061,1.34375 1.27184,-0.26335 1.95283,1.35363 3.22814,0.96875 0.57825,-0.87942 1.5213,0.58734 2.4876,0.13497 0.7256,-0.25269 1.60439,0.99068 2.2624,-0.0412 1.26212,0.0565 2.89285,-0.28824 3.25,-1.6875 1.08273,-0.29787 2.90311,0.94047 3.45405,-0.49456 0.28319,-1.44951 1.86824,-2.04775 2.54595,-3.28669 1.5189,-0.39755 2.31655,-1.93312 2.375,-3.4375 1.28654,0.64805 1.11818,-0.78819 0.5625,-1.46875 -0.61048,-0.70781 -2.22737,0.31907 -2.25951,-1.16803 -0.84782,-1.28822 -2.97751,-0.42019 -3.37657,0.88029 -0.88643,0.8126 -0.36344,2.27911 -1.61392,2.75649 -0.83287,0.24829 -1.28697,1.64719 -2.125,1 -1.00439,-0.23032 -1.40887,1.26548 -2.5,1.15625 -1.33968,0.32928 -2.79208,-0.0651 -4.0625,0.53125 -1.99097,-0.89475 -3.96478,-1.99134 -5.8875,-2.86751 -0.32214,-0.52569 0.4828,-1.72733 -0.8513,-1.37736 -1.36184,0.43114 -1.68291,-1.19943 -2.41745,-1.72388 -1.31133,-0.60787 0.92483,-0.73269 0.32478,-1.51952 -0.69434,-0.65114 -0.049,-1.68111 -0.96908,-2.03021 -1.11838,-0.7426 0.61545,-0.67027 0.17503,-1.53655 0.25266,-1.39809 -1.08588,-0.90997 -1.50117,-1.74114 0.2004,-0.72717 1.06792,-1.3819 0.31105,-2.17135 0.25,-0.6332 0.0746,-1.32633 0.18595,-2.14341 0.42494,-0.86031 1.16476,-1.39282 1.94219,-1.98282 0.36913,-0.5045 1.29929,-0.81102 0.71875,-1.71875 -0.99089,-0.709218 0.29046,-1.858408 1.125,-1.937501 0.61031,0.744522 1.83747,-0.06998 0.8125,-0.40625 -1.14584,-0.220742 1.98178,-0.888068 0.0625,-1.0625 0.9311,0.0131 1.95423,-1.189304 2.5625,-0.96875 0.50335,1.025318 1.70321,0.38278 1.53125,-0.59375 0.90193,0.121682 1.46912,0.249365 2,-0.5625 1.33109,-0.03613 2.73657,0.0074 3.93281,0.59375 1.10842,-0.04213 1.90272,1.278496 3.06719,0.625 1.30783,-0.06311 -0.30027,1.493322 0.625,2 0.76542,0.32685 1.91743,-0.57158 2.0312,0.874852 0.3365,0.784649 1.45856,1.199309 0.94861,2.244339 -0.0641,1.65054 2.64632,1.27125 2.67644,-0.18169 0.87149,-0.41362 1.71586,-1.334192 2.2663,-1.623963 0.87368,0.499433 2.00982,-0.380113 1.1087,-1.157288 -0.95419,-0.09071 -1.66524,-0.557426 -1.21875,-1.5625 -0.72336,-1.001382 -1.42731,1.56982 -1.375,-0.25 -0.1833,-1.1612 -1.61143,-1.49799 -1.5625,-2.78125 -0.58043,-0.360833 -1.45449,0.07864 -1.75,-0.96875 -0.89856,0.04545 -1.21295,-0.558579 -1.5625,-1.25 -0.78282,-0.09094 -2.78384,0.240781 -2.1875,-1.125 -0.71528,-0.287906 -1.74594,-0.158053 -2.3125,-0.375 -0.70851,0.260436 0.40464,-1.077756 -0.5,-0.625 z m -1.15625,0.03125 c 0.14402,0.127842 0.24053,-0.153185 0,0 z M 513,89.65625 c -0.54924,0.377999 0.41751,-0.159581 0,0 z m 3.25,0.03125 c -0.46579,0.637048 0.42218,-0.131318 0,0 z m -2.8125,0 c 0.061,0.331112 0.16131,-0.122328 0,0 z m 0.0937,0.09375 c 0.0408,0.174705 0.13677,-0.04458 0,0 z m -6.125,0.5 c 0.22241,0.248415 0.15429,-0.315153 0,0 z m 4.375,0.0625 c 1.09023,0.337717 0.20989,0.825489 0,0 z m -11.3125,3.375 c -0.34229,-0.114097 -0.28287,-0.09429 0,0 z m 9.15625,1.5 c -0.0704,0.367226 -0.53052,-0.550093 0,0 z m 3.8125,-0.0625 c -0.16451,0.238406 -0.0684,-0.208405 0,0 z M 500.8125,95.25 c -0.24263,-0.08376 0.26653,-0.16759 0,0 z m 9.15625,0.4375 c 0.27983,0.381925 0.41993,-0.498541 0,0 z M 507.125,96.125 c 0.20146,0.597499 -0.28724,0.03175 0,0 z m 10.375,0.3125 c 0.0485,0.23927 0.16526,-0.119358 0,0 z m -12.21875,0.90625 c -0.13531,0.689659 0.63834,-0.482892 0,0 z m 13.25,0.40625 c -0.33286,0.526734 -0.56924,-0.651867 0,0 z M 504.75,98.78125 c 0.017,0.649419 0.43648,-0.04901 0,0 z m 22.15625,1.34375 c -0.10813,0.56018 0.23677,-0.0415 0,0 z m -31.3125,3.0625 c -0.36299,0.22929 -0.6164,-0.34056 0,0 z m -1.71875,0.375 c -0.31656,0.81195 0.29871,-0.0873 0,0 z m 5.96875,3.46875 c 0.20721,0.68809 0.14534,-0.35328 0,0 z M 499.65625,108 c 0.0147,0.45058 0.22898,-0.30635 0,0 z m -0.46875,0.8125 c 0.11781,0.28355 0.34042,-0.13851 0,0 z m -2.75,6.21875 c 0.73979,0.43044 -0.54921,0.23957 0,0 z M 501,115.0625 c 0.27063,0.46819 0.62573,-0.34467 0,0 z m -5,0.0313 c 0.31273,1.02261 -0.88448,-0.18053 0,0 z m 28.75,0.5 c 0.0777,0.22903 0.1547,-0.24253 0,0 z m -17.59375,4.25 c 0.15132,0.43455 0.10548,-0.49879 0,0 z" />
      <path
         inkscape:connector-curvature="0"
         id="path3935"
         style="font-size:72px;font-weight:bold;line-height:0%;fill:#f9f9f9;font-family:Sawasdee;-inkscape-font-specification:Sawasdee Bold"
         d="m 537.34375,78.46875 c -0.72337,0.406469 -1.1029,1.17229 -1.40625,1.34375 -1.81641,0.116599 -2.18582,2.359028 -2.03125,3.8125 0.3341,0.768012 -0.0114,2.38262 1.05781,2.4375 1.13182,-0.575536 1.03615,1.398447 2.19219,1 1.21064,0.412742 1.34786,-1.875945 2.5,-1.15625 0.62279,0.634175 2.5313,-0.518978 1.25,-0.96875 0.0634,-0.781813 -0.37465,-1.788267 0.46875,-2.34375 0.61866,-1.204521 -0.64106,-2.251979 -1.625,-2.78125 -0.33157,-1.077844 -1.15469,-0.64188 -2.03125,-0.5625 -0.39738,-0.09475 0.005,-0.954947 -0.375,-0.78125 z m -1.375,6.90625 c 0.32317,0.462412 -1.33004,0.187514 -0.15625,-0.0625 l 0.15625,0.0625 z m -1.09375,5.53125 c 0.11458,11.94792 0.22917,23.89583 0.34375,35.84375 1.64583,-0.0729 3.29167,-0.14583 4.9375,-0.21875 -0.0313,-12.27083 -0.0625,-24.54167 -0.0937,-36.8125 -1.72917,0.395833 -3.45833,0.791667 -5.1875,1.1875 z" />
      <path
         inkscape:connector-curvature="0"
         id="path3937"
         style="font-size:72px;font-weight:bold;line-height:0%;fill:#f9f9f9;font-family:Sawasdee;-inkscape-font-specification:Sawasdee Bold"
         d="m 561.84375,89.71875 c 0.1683,0.238355 0.20786,-0.339382 0,0 z M 562.1875,89.75 c -0.49687,0.751021 -1.41429,0.821897 -2.28125,0.6875 -0.73487,0.222862 -1.20233,0.966816 -2.10903,0.795544 -1.23701,-0.04151 -1.71708,1.339205 -2.89097,1.579456 -1.43952,0.418962 -1.3632,2.446146 -2.65625,2.875 -0.90069,-0.265379 -1.26623,1.382537 -1.03125,2.0625 1.40511,0.220127 1.7401,2.169743 3.3074,1.98784 0.82297,0.151322 1.3912,-0.680857 1.84304,-0.998902 1.57232,0.02394 1.97504,-1.960921 3.32257,-2.461952 0.5669,-0.774942 1.57582,-1.195819 2.43324,-0.714486 0.89374,-0.162984 2.1124,-1.392082 2.65625,-0.0625 0.85191,0.444473 1.85699,-0.842325 2.63563,0.171066 1.45484,0.740585 2.25618,2.28219 3.36437,3.328934 1.06467,0.381674 1.14452,1.45482 1.13809,2.36485 0.47641,1.04413 1.59889,2.61616 0.17441,3.44765 -1.18305,0.95375 -2.63785,-1.17117 -3.58665,0.2419 -0.86681,1.22191 -1.31572,-0.75411 -2.34616,-0.52315 -1.89427,-0.3347 -3.55816,2.23341 -5.37969,0.90625 -1.05172,-0.27012 -1.96918,1.20857 -2.96875,0.4375 -2.08616,0.97064 -3.81985,2.5428 -5.875,3.59375 -0.82354,1.1533 -2.25854,1.91698 -2.37812,3.48312 -0.37678,1.27343 -1.6182,2.55625 -0.64688,3.82687 0.4465,1.12124 -0.096,2.38344 0.8261,3.32369 0.69808,0.89728 0.31066,2.27524 1.61009,2.67272 1.21097,0.46044 1.78925,1.57436 2.52631,2.5061 1.24688,0.48973 2.61942,0.65373 3.90029,1.15759 1.74403,0.31331 3.55684,0.47694 5.31846,0.27991 1.69968,-0.52692 3.36654,-1.36786 5.1875,-1.46875 1.02152,-0.55872 1.57783,-1.74127 2.78125,-2 0.74647,-0.50009 1.4713,-1.16869 2.40625,-1.25 0.0576,1.53486 -0.11307,3.3886 1.21875,4.46875 0.72729,-1.0037 1.80981,0.82225 2.59375,-0.0313 1.12213,0.26364 3.38769,-0.29862 2.6875,-1.84375 -1.16781,-2.0863 -0.80986,-4.60124 -1.4375,-6.78125 0.22016,-1.14803 0.82923,-2.27617 0.26306,-3.4319 0.36943,-1.10656 -0.39158,-1.90885 -0.45056,-2.9431 0.20078,-1.12921 0.9761,-1.53592 0.3609,-2.70654 -0.0448,-1.38039 -0.27651,-2.68875 0.1391,-4.01221 -0.1923,-0.82838 0.51843,-2.21461 -0.28125,-2.625 -1.37914,-0.85097 -0.005,-2.959517 -1.625,-3.625 -0.95503,-0.617127 -0.39649,-2.092549 -1.5625,-2.59375 -1.26092,-0.685835 -1.27613,-2.662025 -2.96875,-2.71875 -1.38772,0.215493 -1.64367,-1.601645 -2.875,-1.75 -0.34428,-1.219122 -1.83606,-0.433555 -2.59375,-1.125 -1.00149,0.07106 -2.02408,0.560751 -2.96875,-0.09375 -0.56249,-0.183765 -1.17452,-0.636614 -1.78125,-0.4375 z m 1.875,5.34375 c -0.27781,0.590538 0.28233,0.0081 0,0 z m 0.125,0.125 c 0.0581,0.20422 0.17163,-0.148437 0,0 z m 6.96875,13.96875 c 0.2749,0.87703 2.03291,0.0762 1.875,1.21875 0.80253,2.15675 0.23333,5.00094 -1.84375,6.21875 -0.73596,1.52076 -2.55455,1.77329 -3.6875,2.875 -1.43526,0.69937 -2.91691,1.46801 -4.46875,1.8125 -1.1239,-0.66052 -2.33609,0.0164 -3.53125,0.0937 -1.17941,-0.41338 -3.01047,-0.44144 -3.1875,-2.03125 -0.42088,-1.24656 -2.37711,-1.44292 -1.99855,-3.02361 0.31509,-0.88782 1.22352,-1.36485 1.15011,-2.46232 0.51854,-0.62171 1.41784,-0.83692 2.00469,-1.54532 1.03564,-0.35305 1.47299,-1.53522 2.6875,-1.65625 1.63796,-0.50371 3.49885,-0.16187 5.07641,-0.98212 1.50963,-0.5076 3.07665,-0.2551 4.60285,-0.24123 0.44397,-0.0679 0.86599,-0.3023 1.32074,-0.27665 z" />
      <path
         inkscape:connector-curvature="0"
         id="path3939"
         style="font-size:72px;font-weight:bold;line-height:0%;fill:#f9f9f9;font-family:Sawasdee;-inkscape-font-specification:Sawasdee Bold"
         d="m 588.6875,126.09375 c 1.8125,0.125 3.625,0.25 5.4375,0.375 0.0625,-17.29167 0.125,-34.583333 0.1875,-51.875 -1.66667,-0.697917 -3.33333,-1.395833 -5,-2.09375 -0.20833,17.864583 -0.41667,35.72917 -0.625,53.59375 z" />
      <path
         inkscape:connector-curvature="0"
         id="path3941"
         style="font-size:72px;font-weight:bold;line-height:0%;fill:#f9f9f9;font-family:Sawasdee;-inkscape-font-specification:Sawasdee Bold"
         d="m 618.5625,73.375 c 0.516,0.186371 0.6934,-0.188258 0,0 z m 0.28125,0.25 c -1.32217,0.748477 -2.93893,0.780193 -4.3125,1.3125 -0.86352,-0.462249 -1.79251,-0.307014 -2.21875,0.625 -0.97778,0.416616 -1.78017,0.555671 -1.5,1.78125 -0.73096,0.700534 -2.27044,0.113285 -2.7264,1.370855 -0.5879,1.151155 -0.96577,2.56803 -2.18015,3.192151 -1.11916,1.610289 -1.38353,3.663958 -1.59345,5.499494 -0.28656,0.867249 0.9551,1.886816 -0.26088,2.559791 -0.61666,0.772263 -1.73597,0.636893 -2.48163,0.577713 -1.09744,1.062012 0.33703,2.6722 -0.38249,3.924996 -0.16972,1.499285 1.65697,2.516777 2.84375,1.625 1.24345,0.02188 1.26872,1.663961 0.28125,2.125 -0.60074,0.843807 0.73254,1.688722 0.0807,2.55235 -0.17216,1.6481 0.15972,3.32844 -0.20566,4.9789 0.069,1.13795 0.5716,2.19926 0.0313,3.3125 0.27047,0.88808 -0.46843,1.8307 -0.0611,2.83611 0.53632,4.71647 -0.97377,9.44132 -0.0639,14.13264 1.9594,0.11958 3.86712,-0.56853 5.8125,-0.6875 1.29432,-0.56484 0.30982,-2.18061 0.59194,-3.23901 -0.01,-8.8995 -0.0196,-17.79899 -0.0294,-26.69849 2.90625,0.01042 5.8125,0.02083 8.71875,0.03125 1.15644,-1.509366 1.03274,-4.565678 -1.0562,-5.10084 -1.15029,0.135945 -2.4014,0.728138 -3.5063,0.10084 -1.15052,0.624075 -2.53302,-0.07075 -3.75,0.28125 -1.22941,-0.110522 -1.54642,-1.138932 -0.81105,-1.961108 -0.0367,-0.907024 -0.004,-1.855122 0.7798,-2.445142 0.18654,-0.889026 -1.18969,-2.169288 0.28125,-2.53125 0.97595,-0.75087 0.2078,-2.976518 1.96875,-2.84375 1.20706,-0.28687 1.76217,-1.553298 3.04196,-1.699844 0.79224,-0.540978 1.67243,-0.279734 2.45804,-0.300156 0.48513,-0.763343 1.82461,-1.107637 1.12969,-2.204676 -0.29646,-0.862057 0.51513,-1.754938 -0.25469,-2.545324 -0.16194,-0.259609 -0.18407,-0.75232 -0.625,-0.5625 z m 1.125,4.3125 c -0.007,0.305686 0.17928,-0.199454 0,0 z M 617.625,78.25 c 0.47354,0.372535 -0.3681,0.06366 0,0 z m -7.84375,12 c -0.22505,0.749512 -0.90023,0.153993 0,0 z m 10.0625,0.75 c -0.48884,0.67463 0.31,-0.248963 0,0 z m -15.25,9.9375 c -0.22353,0.36121 -0.0206,-0.49641 0,0 z" />
      <path
         inkscape:connector-curvature="0"
         id="path3943"
         style="font-size:72px;font-weight:bold;line-height:0%;fill:#f9f9f9;font-family:Sawasdee;-inkscape-font-specification:Sawasdee Bold"
         d="m 639.96875,89.28125 c 0.1638,0.390917 0.24535,-0.41004 0,0 z m 0.28125,-0.0625 c 0.29261,0.0045 0.0322,-0.09123 0,0 z m -0.375,0.4375 c -0.0398,1.476581 -1.56659,0.223504 -1.89534,0.213792 -0.92888,0.481317 -2.07563,0.839968 -2.72966,1.536208 -0.62902,-0.881648 -1.1626,-0.677141 -1.84375,0 -0.79753,0.55196 -1.35984,1.34854 -2.44928,1.447011 -0.17967,0.617858 -0.51839,1.60823 -1.55072,1.521739 -1.27615,0.06816 -0.0897,1.213797 -0.53125,1.5625 -0.9041,-0.259956 -1.39233,-0.207936 -1.90625,0.40625 -0.65916,0.680924 -0.038,2.325801 -1.46875,2.0625 -1.15098,0.699435 0.4882,1.466456 -0.28125,2.28125 -0.84588,0.85349 -2.23697,1.99259 -1.28125,3.25 -0.0498,0.85703 0.44648,2.1364 -0.78125,2.375 0.71414,-0.0959 -0.48136,1.34462 0.0625,1.875 0.70424,0.74678 -1.24313,1.49484 -0.0625,2.03125 1.04059,0.34901 -1.26044,1.24796 -0.0872,1.88167 0.28342,0.74164 1.54172,1.27208 0.93092,2.08708 1.08533,-0.0561 0.89703,1.38818 1.625,1.84375 -0.4243,0.34217 -1.63194,1.6518 -0.46875,1.59375 1.20605,-0.73791 0.1405,0.62037 0.96875,1.03125 0.93443,0.51484 1.28368,1.679 1.84375,2.4375 -0.49021,0.76074 0.29216,1.91466 0.8125,0.9375 0.87226,0.30699 1.58378,0.89984 2.15625,1.53125 0.71129,0.34011 1.24316,1.18038 2.34375,0.6875 -0.0399,0.44545 0.85041,1.05431 1.76382,0.93556 0.28386,1.08663 1.83594,0.0991 2.31248,1.15216 0.79537,0.82232 1.90695,-0.14794 2.82385,0.43495 1.20241,0.12885 2.65361,-0.69536 3.6311,-0.0227 0.31929,-1.23781 0.16576,-0.79147 1.09375,-0.71875 0.76752,-0.72426 1.17292,0.19636 1.96875,-0.28125 0.67094,0.86533 0.43268,-1.28547 1.65625,-0.9375 1.17148,0.48672 1.23999,-0.23361 1.71406,-0.9375 0.89381,-0.12529 0.70434,-1.86182 1.91094,-1.75 0.41176,-0.13915 1.01708,0.72799 1.25,-0.46875 -0.45717,-1.00398 0.9148,-1.4819 1.33202,-2.11272 1.17217,-0.10259 1.11425,-0.9478 0.52031,-1.63118 0.0974,-0.84285 0.37855,-1.19905 -0.0398,-1.91235 -0.69428,-0.0825 -0.89608,-0.86828 -1.625,-0.34375 -0.29908,0.45783 -1.75098,-0.29463 -1.53587,-0.73133 1.08332,0.59085 0.17283,-1.17896 -0.0891,-0.11242 -1.06299,0.13709 -0.21696,1.23585 -1,0.78125 0.68423,0.9348 -0.60217,-0.11683 -0.875,0.53125 -0.0999,1.04526 1.65756,0.98917 0.36774,1.738 -0.95881,0.3266 -2.17207,0.3267 -2.44506,1.55388 -0.573,1.31798 -0.85118,-0.0588 -1.66203,-0.041 -0.94173,-0.21292 -0.93844,0.95263 -1.7294,0.96786 0.75474,0.0772 -1.07816,0.69899 -1.56514,0.99787 -0.90358,0.82594 -1.6991,-0.721 -2.67246,0.0859 -0.76948,-0.10934 -1.38243,-0.72538 -2.38271,-0.30253 -0.68514,-0.53158 -1.56583,-0.61002 -2.37969,-0.96875 -0.26995,-1.07089 -2.08271,0.33418 -2.28125,-1.0625 -0.22944,-0.75403 1.42181,-1.41391 0,-1.5625 -0.87364,-0.0846 -1.50187,0.0597 -1.65625,-0.78125 -0.0622,-1.47804 -0.51002,-0.59982 -1.40625,-0.65625 0.0973,-0.74394 -0.75145,-1.42387 -1.16094,-1.86093 0.29478,-0.96344 -0.10669,-1.87873 -0.0122,-2.81544 -0.14717,-0.60786 -1.3269,-2.03933 -0.0144,-1.94863 0.90344,0.6523 1.51068,0.56422 2.46343,0.20268 0.68578,-0.22828 1.58869,0.17399 2.12235,0.15651 1.33195,1.20126 3.18334,-1.32121 4.53922,0.10956 0.80175,0.298 0.80396,-1.20924 1.78125,-0.65625 0.7105,0.27127 1.13326,1.52019 2.0625,0.8125 0.70697,-0.65394 1.92159,0.12392 2.89161,-0.2124 1.10336,-0.53695 0.89505,0.82903 1.73339,0.61865 0.48304,-1.06994 1.21029,-0.24241 1.96875,-0.4375 0.72602,0.75541 1.87923,0.55553 2.65625,-0.0313 0.73201,0.12086 1.99986,-1.17458 2.53125,-0.5 0.53941,1.22989 1.28441,0.44925 1.71875,-0.25 0.95048,0.27278 1.81056,0.54001 2.80669,0.32356 1.12947,-0.19068 0.27006,-1.26377 -0.30669,-1.57356 -0.32892,-0.81532 -0.35145,-1.74675 -0.90625,-2.4375 0.0696,-0.82183 0.92415,-1.77503 -0.0505,-2.19476 -0.0215,-0.87863 -1.43432,-0.73668 -1.0745,-1.77399 0.53065,-0.94155 -0.61766,-1.43578 -0.71875,-2.1875 0.44418,-0.749164 -0.98415,-1.147726 -1.125,-1.90625 -0.1038,-1.034008 -1.90177,-0.990046 -1.34375,-2.28125 -0.11693,-1.026243 -1.05958,-0.420572 -1.59375,-0.46875 -0.55846,-0.403676 -1.42498,-1.593572 -0.90453,-2.137771 0.4369,-0.677908 -1.45511,-0.648582 -1.95874,-0.749508 C 647.59793,92.2973 647.37494,91.261132 646.5,91.5 c -0.56679,-0.56146 -1.03232,-0.89896 -1.59375,-1.46875 -0.70981,-0.204277 -1.07261,1.216016 -1.8125,0.375 -0.62667,0.05417 -1.9394,-0.99381 -2.09375,0.25 -0.62264,-0.669065 -0.90318,-0.64291 -1.125,-1 z m 15.0625,26.15625 c 0.14143,-0.45522 0.0686,-0.46517 0,0 z m -14.40625,-25.125 c 0.41727,0.280489 -0.79277,-0.158091 0,0 z m -3.71875,0.15625 c -0.14363,0.0824 0.005,-0.184262 0,0 z m 0.0313,0.125 c 0.26185,0.413396 -0.21953,0.103912 0,0 z m -0.75,0.3125 c 0.21765,0.01205 -0.30628,0.495288 0,0 z m 13.0937,0.84375 c -0.0781,0.105154 -0.17193,-0.05812 0,0 z m 0.375,0.53125 c -0.15062,0.03723 -0.10405,-0.42592 0,0 z M 630.53125,92.75 c 0.27295,0.284719 -0.26513,-0.469876 0,0 z m 20,0.28125 c 0.11487,0.114096 0.11487,-0.114096 0,0 z m 0.6875,1.3125 c 0.5804,-0.166729 0.10434,0.06882 0,0 z m 0.875,0.09375 0,-0.03125 0,0.03125 z m 0.0625,0.03125 c 0.096,0.01613 -0.0161,-0.09597 0,0 z M 651.625,94.625 c 0.21645,0.323772 0.11971,-0.164726 0,0 z m -12.21875,0.3125 c -0.32057,1.267221 1.5753,1.40945 2.125,0.5 0.76384,-0.13091 1.50053,0.298736 2.375,0.4375 0.71511,0.16528 1.56117,-0.984866 1.53125,0.46875 -0.14439,1.031688 1.80626,0.441886 1.94924,1.604551 -0.93083,-0.293534 -0.59228,1.216998 0.23826,0.895449 0.041,-0.976006 1.71073,-1.096653 1.46415,-0.0082 -0.5491,1.26947 1.32643,0.170582 0.99154,1.47139 0.60394,0.84238 0.73267,1.47919 0.0443,2.4431 0.52472,0.44779 0.38405,1.36645 0.84375,2.0625 -0.63989,-0.0603 -1.08939,-0.30209 -1.65625,-0.3125 -0.64569,-0.0875 -0.934,1.63085 -1.79669,0.60172 -0.85434,-1.24498 -0.90692,1.2238 -1.42206,0.11703 -0.0225,-0.81823 -1.14326,-0.66762 -1.34375,-1.34375 -0.88429,1.08368 -2.48034,1.37449 -3.65625,0.65625 -1.0874,0.15586 -2.34437,1.02593 -3.27125,-0.0784 -0.56781,-1.48321 -1.06827,0.77913 -1.6975,0.23468 -0.7246,-0.0332 -1.04539,0.27234 -1.67216,-0.0302 -0.91945,0.26496 -0.37666,-0.43493 -1.05385,-0.20777 -0.88989,-0.36037 -1.8963,1.22495 -2.55524,0.0192 -0.69138,-0.14762 -1.8149,0.60884 -2,-0.5 -0.0614,-1.39353 1.91603,-1.3874 2.03125,-2.78125 0.19998,-0.82255 0.76409,-2.009685 1.5625,-2.031247 0.48726,-0.604414 1.6009,-0.899382 1.75,-1.65625 1.41464,0.631574 0.18169,-0.847073 1.09375,-0.75 1.03032,0.76338 1.52791,-1.043318 2.4375,-1.3125 0.45655,-0.174961 1.60052,-0.830226 1.6875,-0.5 z m -9.59375,0.125 c 0.22931,0.232229 -0.27408,0.131862 0,0 z M 629.5,95.21875 c -0.26082,0.246721 0.0685,-0.400458 0,0 z m 0.78125,0.1875 c 0.49221,1.258503 -1.00226,0.299342 0,0 z m 9.53125,0.21875 c 0.0598,0.364202 -0.68599,-0.439511 0,0 z m -8.6875,0.28125 c -0.64886,0.341212 -0.66879,-0.140561 0,0 z m 6.65625,0.15625 c 0.71681,0.610886 -0.1134,-0.920319 0,0 z m -2.4375,1.3125 c -0.0953,0.399854 0.66109,-0.520351 0,0 z M 627,97.40625 c -0.66407,0.267122 0.248,-0.406002 0,0 z m 22.75,3.125 c 0.28726,0.63933 0.0768,-0.694721 0,0 z m 7.65625,2.8125 c -0.009,0.34759 0.18445,-0.35643 0,0 z m 0.125,0.0625 c -0.24167,0.44293 0.42869,-0.25875 0,0 z m 0,0.1875 c 0.11163,0.30617 0.29458,-0.2894 0,0 z m -26.09375,0.3125 c 0.17979,0.46301 0.16602,-0.14424 0,0 z m -1.78125,0.15625 c -0.95069,0.51059 1.4561,0.002 0,0 z m 11.78125,0.1875 c 0.0273,0.39946 0.23551,-0.0997 0,0 z m 9.90625,0.0625 c 1.0113,0.63742 0.0788,0.55181 0,0 z m -10.1875,0.5 c 0.12389,0.2483 -0.29309,0.0828 0,0 z m 6.71875,0.125 c -0.44084,0.35178 0.68297,-0.3458 0,0 z m -0.8125,0.15625 c -0.0379,0.4516 -0.38357,-0.48023 0,0 z m 3,0.25 c 0.0205,0.52896 -0.41128,-0.54487 0,0 z m 9.0625,3.53125 c 0.0769,0.58379 0.22683,-0.73341 0,0 z m -30.15625,0.71875 c 0.1931,0.13577 0.0499,-0.21276 0,0 z m 29,0.40625 c -0.11184,0.5449 0.34864,-0.0652 0,0 z m -8.21875,0.28125 c -0.0712,0.23295 -0.36091,-0.35 0,0 z m 3.40625,5.09375 c 0.22149,0.14479 -0.0335,-0.38122 0,0 z m -0.0313,0.1875 c 0.10515,-0.0781 -0.0581,-0.17193 0,0 z m 1.96875,0.0313 c -0.0886,0.39267 0.57065,-0.31789 0,0 z m 0.375,0.28125 c 0.0575,0.2166 0.22814,-0.18123 0,0 z m -30.7187,0.2187 c 0.19099,0.59939 0.77991,0.008 0,0 z m 30.6875,0.15625 c 0.38967,0.43741 -0.16325,-0.4102 0,0 z m 1.46875,0.6875 c -0.32101,0.54727 0.31183,-0.36117 0,0 z m -8.28125,0.875 c -1.09663,0.6236 1.71948,0.11592 0,0 z m -22.40625,0.34375 c 0.10237,0.56872 -0.32831,-0.10884 0,0 z m -0.8125,0.15625 c -0.18888,0.61029 0.37549,-0.0604 0,0 z m 1.53125,0.0937 c 0.005,0.26032 -0.10154,-0.0422 0,0 z m 0.5,1.59375 c 0.86809,0.20268 -0.25989,0.29672 0,0 z m -0.25,0.34375 c 0.24385,0.54631 0.29295,-0.35712 0,0 z m 15.375,0.71875 c 0.6141,0.12007 -0.40888,-0.38082 0,0 z m -0.53125,0.65625 c 0.40019,0.0335 -0.19713,0.19838 0,0 z M 652,122.78125 c 0.0802,0.10803 0.10858,-0.20987 0,0 z m 0.25,0.0625 c 0.45673,-0.0717 -0.006,0.0261 0,0 z m -0.15625,0.5 c 0.10682,-0.28147 -0.16901,-0.52303 0,0 z m -19.0625,0.5625 c 0.0457,0.6467 -1.39538,-0.71573 0,0 z M 650.625,124.375 c -0.47863,-0.19145 -0.35637,-0.14255 0,0 z m -2.65625,0.3125 c 0.0534,0.32471 -0.42999,-0.0793 0,0 z m 2.4375,0.0313 c -0.47864,0.99303 0.52066,-0.088 0,0 z" />
      <path
         inkscape:connector-curvature="0"
         id="path3945"
         style="font-size:72px;font-weight:bold;line-height:0%;fill:#f9f9f9;font-family:Sawasdee;-inkscape-font-specification:Sawasdee Bold"
         d="m 681.5,88.75 c -0.16261,1.736009 -0.22503,0.137858 -1.1115,0.614199 0.0563,-0.04254 0.22732,1.703671 -0.60725,1.229551 -1.17853,-0.568192 -2.32738,0.658055 -3.46875,-0.03125 -0.90716,0.09627 -1.34017,0.9085 -1.53125,1.71875 -1.6306,-0.247053 -0.86025,-0.05281 -1.05754,0.895343 -0.70036,1.618705 -0.22975,-0.208313 -1.03621,-0.207843 0.0204,1.158228 -1.18825,0.08082 -1.28125,0.84375 -0.88525,0.429389 0.4664,1.522331 -1.24419,1.332688 -1.14203,-0.270677 -1.22677,0.831959 -2.03706,1.229812 0.43309,0.655558 -0.82195,0.502663 -0.31302,1.430025 -0.71465,0.315822 0.123,0.900734 -0.71823,0.694975 -1.03705,0.04772 0.53514,1.50005 -0.375,0.84375 -0.73912,0.76728 0.0899,1.61414 -0.95875,1.76593 -0.38976,0.42264 -1.18754,1.1493 -0.85375,1.17157 -0.12705,0.7166 -0.0131,1.55717 0.61549,1.60553 -0.41845,0.75058 -0.58872,2.15095 0.47826,2.20697 -0.60124,0.6699 -1.80486,1.32357 -1.8125,2.21875 0.44708,0.7577 0.89893,0.0943 1.3125,0.71875 -0.55788,0.37182 -1.09942,0.51853 -0.28125,1.1875 1.20517,0.17553 -1.02629,0.70296 -0.28125,1.25 1.00056,0.49325 0.57896,1.09896 0.39155,1.99456 -0.25899,1.30447 1.10993,0.27866 0.85845,1.22419 -0.95332,0.82282 -0.33776,0.9322 0.1875,1.0625 0.11966,0.44407 2.07995,0.80747 1.0625,0.78125 -0.4087,-0.33082 -1.8931,-0.26816 -1.26581,0.42953 1.10642,0.19618 1.38576,0.54917 1.20331,1.72672 0.64467,0.12414 1.07211,1.089 1.40625,1.28125 0.74798,-0.4211 0.32197,1.14718 -0.21379,1.02034 0.0525,0.33272 0.832,0.33883 1.22105,0.99891 1.24899,0.0458 0.4548,1.37617 1.42464,1.31144 0.7667,0.41629 1.72048,0.0537 2.33403,0.75306 -0.0635,0.41981 0.62928,2.30205 0.73407,0.97875 1.19078,-0.13448 -0.11029,1.46926 1.16351,0.98075 0.34065,-1.36146 0.51979,0.21771 1.30524,-0.0433 -0.0157,-1.30957 1.05421,0.84415 1.96294,0.0111 0.68766,0.21015 1.07478,0.89979 2.03706,0.95769 0.12523,-0.91262 1.20616,-1.27786 1.5,-0.125 -0.17981,1.16805 1.53888,-0.32755 2.16705,-0.54299 0.85904,-0.35856 1.39558,1.4087 2.14545,0.32424 1.02073,0.69269 0.76899,-0.67198 1.5625,-0.84375 1.10123,0.34788 0.96073,-0.91835 1.875,-1.09375 0.19228,-0.27194 1.33476,0.19348 1.8125,-0.34375 -0.069,-0.3586 0.64008,-1.23385 0.78125,-1.84375 0.0281,-1.32339 1.31845,0.70755 1.09375,-0.53125 -0.17209,-0.93886 1.00545,-0.64448 1.5,-0.34375 1.16005,-0.24365 -0.10412,-1.9802 0.78125,-2.46875 0.98051,0.39442 0.8417,-1.13834 1.65625,-1.3125 0.80804,-1.13734 0.10866,-1.1027 -0.11194,-2.21315 0.0258,-0.88962 -0.93801,0.4998 -1.48181,-0.4431 0.37417,0.40012 -1.0543,1.9117 -0.5,0.71875 -0.59788,-0.57191 -0.36282,-1.25931 -0.63678,-1.72826 -0.89022,-0.6409 -1.59029,1.17113 -2.26298,0.0297 -1.09494,-0.41442 0.52307,0.57982 0.30601,0.94858 -0.78432,0.36912 -1.08374,1.0638 -0.0937,1.46875 -0.59373,0.38272 -1.6218,0.47738 -1.5,1.40625 -0.85331,-0.49238 -1.35474,0.0582 -1.44515,0.8396 -0.70975,0.32098 -1.42313,0.90023 -1.99235,0.69165 -0.22188,1.23226 -0.98727,0.16389 -1.77472,0.46335 -0.64585,-0.34704 -1.18625,0.12755 -0.91278,0.97415 -0.40305,1.05852 -1.54186,-0.20743 -1.21875,-0.875 -0.28644,0.48443 -0.60387,0.28784 -0.90625,0.75 -0.93628,-0.26417 -0.84938,0.80473 -1.71875,0.46875 -0.5464,0.42346 -1.61671,-0.11511 -1.21875,-0.75 -0.44133,-0.93342 -1.73065,-0.29493 -1.15625,0.59375 -0.67118,-0.30051 -1.91685,0.33755 -1.78125,-0.9375 0.26795,-1.33255 -1.44669,-0.35935 -1.5,-1.21875 0.0928,-1.01487 -1.76558,-0.82419 -0.90625,0.0625 -0.32734,1.13818 -0.38398,-0.66354 -0.28005,-1.05532 -0.5483,-0.49344 -0.64579,-1.18149 -1.5012,-1.19468 -0.86792,-0.44659 -0.30181,-1.72307 -0.96157,-1.71995 -1.20362,0.76046 -0.10276,-0.95481 -0.89762,-1.33458 -1.05713,0.162 -0.8436,-0.60279 -0.17206,-1.28922 0.49763,-0.50013 -1.10621,-1.60136 -0.3125,-1.96875 0.19656,-1.07698 0.57227,-1.14183 1.13265,-0.25415 0.79346,0.76844 0.94609,-0.26259 0.80485,-0.49585 0.41828,-0.11843 1.83781,0.10208 1.59375,-0.125 -0.52777,-1.1216 1.59411,0.12524 0.96875,-0.6875 0.057,-0.89032 0.64955,-2.08863 1.08578,-0.73456 0.25757,0.56814 0.42079,1.22408 1.32047,1.01581 0.56118,-0.62617 1.53501,0.11512 2.0625,0.4375 0.21814,-1.02305 1.1503,-0.2097 1.84375,-0.1875 0.79731,-0.0592 1.05413,-1.05475 1.625,-0.15625 0.91319,0.2104 -0.66246,1.24258 0.78125,0.8125 0.7753,-0.38318 1.19866,-2.19501 2.21875,-1.25 0.34026,1.1743 1.30058,0.89937 2.17637,0.48315 0.89193,-0.76541 1.06231,0.26329 2.16269,0.0794 0.93659,0.16461 1.894,0.047 2.62969,-0.53125 0.9856,0.3365 1.64879,-0.22492 2.375,0.40625 0.58153,0.42695 1.48199,0.18041 1.875,0.0937 0.70076,0.37488 1.20977,0.0873 2,0.125 0.85911,-0.31925 1.13312,-1.69434 0.125,-2 0.51364,-0.81376 -1.0021,-0.74023 -0.625,-1.34375 1.20883,-0.47701 0.47554,-1.46833 -0.3125,-0.5 0.47464,-1.02 0.20933,-2.1934 -0.875,-2.65625 0.25506,-0.51651 -0.96989,-1.29092 0.0313,-2.03125 1.08356,-0.12691 -0.62003,1.48619 0.78125,1 -0.29508,-0.77131 0.36767,-1.66071 -0.4375,-1.625 -0.0456,-0.916692 -0.29573,-1.473321 -0.96875,-1.71875 0.32194,-1.304472 -1.71141,-0.249715 -2.03125,-1.28125 1.1887,-0.337252 0.83921,-2.69458 -0.5625,-2.0625 -0.81,0.508619 -2.08588,-1.018744 -0.9375,-1.34375 -1.0445,-0.421749 -2.04125,-1.077613 -2.125,-2.25 -1.12746,-0.399772 -0.53387,1.207775 -0.0937,1.625 -1.0042,-0.288649 -1.02587,-1.773751 -1.07968,-2.370309 -0.86469,-0.308391 -1.86722,0.565035 -2.45157,-0.442191 -0.79792,0.693975 -1.52314,-0.374612 -2.3125,-0.1875 0.29193,1.079485 -1.48982,0.392721 -1.5625,-0.28125 -0.60528,0.274185 -1.33915,0.697582 -1.5625,-0.375 -0.80941,0.314994 -1.01412,0.346515 -0.6875,-0.870307 0.0144,-0.07426 -0.13249,-0.282303 -0.15625,-0.06719 z m 14.15625,8.125 c 0.16164,0.518713 0.42998,0.248345 0,0 z m -11.75,23.15625 c 0.50814,-0.34959 -0.15174,-0.74746 0,0 z M 697.75,117.5 c 0.23207,0.20599 0.30193,-0.10569 0,0 z m 0.1875,0 c 1.29922,0.84012 0.37673,-1.62243 0,0 z m -5.34375,4.96875 c -0.0579,0.53526 1.57937,2.14712 1.1875,1.15625 -0.93238,-0.24726 -0.44723,-1.10036 -1.0625,-1.28125 l -0.125,0.125 z M 666.65625,116.25 c 0.17348,-0.12312 -0.0348,-0.14108 0,0 z M 680.8125,89.40625 c -0.12551,0.223592 -0.13938,-0.120634 0,0 z m 2.0625,0.0625 c -0.32231,0.433063 0.16757,0.03522 0,0 z m 0.0625,0.3125 c -0.10117,0.669093 0.48471,-0.6658 0,0 z m -2,0.21875 c 0.20519,0.527615 -0.45512,-0.475568 0,0 z m 2.125,0.0625 c 0.3399,0.289641 0.0635,-0.332784 0,0 z m -1,-0.0625 c 0.0662,0.449706 -0.19054,-0.0041 0,0 z m 8.375,0.90625 c -0.008,0.330059 0.15555,-0.05054 0,0 z m -17.34375,0.625 c 0.55701,1.362516 0.19499,-0.873019 0,0 z m 17,0.34375 c -0.0587,0.952037 -1.42329,1.055369 0,0 z m 2.53125,0.5625 c 0.42575,0.958528 0.96379,0.137989 0.21875,-0.15625 -0.0556,0.06936 -0.37246,-0.122456 -0.21875,0.15625 z M 673.3125,92.375 c 0.0503,0.121426 0.0503,-0.121426 0,0 z m 18.84375,0.90625 c -0.59461,1.017003 -0.0482,0.205678 0,0 z m 1.25,-0.03125 c 0.01,0.106062 0.52361,-0.10142 0,0 z m 0.125,0.25 c 0.0798,0.04257 0.0148,-0.180342 0,0 z m 0.5,0.28125 c -0.39601,0.818103 0.63536,-0.468573 0,0 z m -0.4375,0.28125 c 0.33249,0.366682 0.34575,-0.450874 0,0 z m -9.9375,0.0625 c 0.38202,0.483756 -0.4329,0.07865 0,0 z m 10.3125,0.125 c 0.15486,0.744769 0.74676,-0.36965 0,0 z m -10.0625,0.0625 c 0.28637,0.10747 -0.31773,0.06863 0,0 z m 10.5,0.40625 c 0.29779,0.778621 0.60694,-0.321797 0,0 z M 678.3125,94.9375 c 0.87033,0.886893 -0.92609,0.428387 -0.15625,0.25 0.0884,-0.02455 0.0364,-0.276248 0.15625,-0.25 z m 5.15625,0.09375 c 0.23703,0.838878 1.05821,-0.03032 1.4375,0.90625 0.56002,0.31361 2.00033,-1.261735 1.67985,0.120855 -0.20868,0.806038 1.13085,1.04819 1.44515,0.347895 0.70138,-0.396563 1.33042,0.710112 1.34375,1.21875 -0.78457,0.634391 -1.084,0.995925 -0.78125,1.96875 0.43388,-0.809026 0.85174,-1.233766 1.4375,-0.6875 1.12243,-0.199164 0.69393,1.49403 1.40625,1.875 -0.70533,0.0226 -0.67976,1.70498 0.0584,1.1486 0.13519,-0.60589 0.28896,-1.46416 0.87915,-0.30485 -0.47845,0.84862 0.67228,1.20089 0.6875,1.5625 -1.35097,0.36805 -0.83498,0.0493 -1.09375,1.03125 -0.73381,0.88336 -0.71913,-1.05398 -1.59252,-0.12186 -0.68544,1.10524 -1.51393,0.59752 -2.34498,0.59061 -0.7541,0.8137 -1.58364,0.69076 -2.375,0 -1.33817,-0.79248 -2.7812,0.19818 -4.1875,-0.15625 -0.52807,-0.0847 -1.51675,0.32442 -2.21875,0 -0.96727,-0.92516 -1.24766,0.30532 -1.98367,0.0921 -0.37898,-0.2794 -1.94486,-0.76337 -1.39133,-0.0608 -0.25164,0.89703 -1.77677,-1.08561 -1.3658,0.35851 -0.054,-0.17148 -0.90194,-0.55399 -1.54045,-0.20226 -0.49581,0.33911 -1.67072,1.08772 -1.53125,-0.125 -0.23319,-0.19142 -1.97457,-0.48246 -0.84375,-0.5625 0.5483,0.34274 2.04741,-0.0901 1.46875,-0.74531 -0.01,-0.78275 -0.94051,-1.66728 0,-2.12969 0.13873,-0.96953 0.84694,-1.05382 1.71875,-0.53125 1.00898,-0.44111 -0.55571,-1.046522 -0.0313,-1.71875 0.82333,-0.06992 1.0519,-1.264721 1.625,-0.78125 0.0853,-0.833709 0.66009,-1.22852 1.1875,-1.9375 0.91987,0.249137 1.90331,0.0036 2.70788,-0.547103 0.47552,-0.523894 1.76875,0.395048 1.72962,-0.109147 0.69124,-0.720292 1.21729,0.606242 2.03851,-0.331754 0.14696,-0.04882 0.26218,-0.209244 0.43024,-0.168246 z m 10.125,0.5625 c -0.13666,0.508034 -0.31106,0.329952 0,0 z m -14.46875,0.3125 c 0.35991,0.146039 -0.20513,-0.253561 0,0 z m 5.875,0.3125 c -0.57755,0.79272 0.57325,-0.156501 0,0 z m 10.84375,0.4375 c 0.40308,0.556663 0.52482,-0.134261 0,0 z M 667.90625,96.75 c 0.28115,0.194155 0.0302,-0.199978 0,0 z m 27.78125,0.4375 c 0.11778,-0.04736 -0.13659,-0.118002 0,0 z m -0.0313,0.40625 c 0.7383,0.431218 -0.45918,-0.969109 0,0 z m -20.5625,0 c 0.16831,0.282621 -0.29941,0.120752 0,0 z m -8.0625,0.3125 c 0.1768,0.312716 0.3878,-0.282714 0,0 z m 22.3125,1.53125 c 0.10404,0.12795 0.0819,-0.131892 0,0 z m -22,0.34375 c 2.45861,0.173732 -0.6449,0.117585 0,0 z m 0.15625,0.25 c 0.34128,0.60124 -0.26722,-0.180453 0,0 z m -0.84375,1.09375 c -0.12294,0.34432 -0.18736,-0.64144 0,0 z m 5.6875,0.28125 c 0.33585,0.75194 0.2875,-1.04238 0,0 z m 19.53125,0.15625 c 0.15949,0.34032 0.28166,0.0699 0,0 z M 671.5312,102.25 c 0.25577,0.62542 -0.67934,0.42815 -0.125,0 l 0.0937,-0.0313 0.0313,0.0313 z m 26.75,0.21875 c 0.13016,1.47814 0.91994,0.0111 0,0 z m -5.2187,0.0313 c 0.69478,0.25508 -0.33632,0.3141 0,0 z m -1.59375,0.78125 c 0.003,1.25622 0.70859,-0.0466 0,0 z m 1.6875,0.5 c 0.47616,0.45826 -1.06615,0.59022 -0.0625,-0.0313 l 0.0625,0.0313 z m -22.53125,0.375 c 0.19984,0.48886 0.23106,-0.0712 0,0 z m -5.8125,1.125 c -0.47687,0.38508 0.58433,-0.016 0,0 z m 34.5625,1.09375 c -0.19889,0.54502 0.68155,0.13823 0,0 z m 0.5625,0.28125 c 0.71461,0.6187 -0.27719,-0.82171 0,0 z M 700.15625,107 c 0.20599,-0.0334 0.2084,-0.34588 0,0 z m -34.3125,1.34375 c 0.73539,0.99524 -0.5874,0.62612 0,0 z m 5.875,0.96875 c 0.64243,0.45232 -0.79821,0.24992 0,0 z M 695.5625,109.5 c 0.19195,0.0323 -0.0323,-0.19195 0,0 z m -25.28125,2.59375 c 1.15634,0.13607 -0.51894,0.82933 0,0 z m 0.5625,0 c 0.22448,0.19316 -0.33469,0.22952 0,0 z m 0.53125,0.84375 c 0.0221,0.6006 0.11018,-0.46217 0,0 z M 671,113.0312 c -0.54371,1.20888 0.70343,0.0101 0,0 z m 22.6875,0.875 c -0.26166,0.4583 0.23098,-0.21008 0,0 z m -21.34375,1 c 0.14982,0.13255 4.2e-4,-0.13631 0,0 z m 18.34375,2.1875 c -0.26973,0.8266 1.31702,0.13834 0.24574,0.027 -0.0497,-0.0658 -0.19254,-0.0951 -0.24574,-0.027 z m -0.625,0.28125 c -0.58516,0.49962 0.29206,-0.0148 0,0 z m 8.8125,0.125 c -0.24264,0.73451 0.41272,0.30203 0,0 z m -0.5,0.28125 c 0.0803,0.26922 0.31077,-0.15336 0,0 z m -7.59375,0.53125 c -0.52472,0.62293 -0.29345,0.014 0,0 z m -2.0625,0.21875 c 0.27003,-0.12746 0.13305,-0.3566 0,0 z m -20.375,-0.0937 c -0.0437,0.2327 -0.15605,-0.0788 0,0 z m 20.40625,0.125 c -0.86366,0.84978 1.13577,-0.10679 0,0 z m 0.375,0 c 0.13835,0.26905 0.2328,-0.3702 0,0 z m -20.96875,0 c 0.15463,0.23927 -0.29379,0.0934 0,0 z m 20.65625,0.53125 c -0.29901,0.5207 0.44715,-0.42901 0,0 z m 7.5,0.5 c -0.22212,0.92082 0.69355,0.2393 0,0 z m -10.40625,0.78125 c 0.91171,0.55074 0.0437,0.31845 0,0 z M 678.375,120.5 c 0.0204,0.65392 0.32033,-0.0397 0,0 z m 0.0937,0.3125 c -0.0161,0.30259 0.40545,-0.088 0,0 z m 3.4375,0.71875 c 1.37922,0.25996 -0.63236,0.49519 0,0 z m 11.5625,0.34375 c 0.63909,0.32375 -0.29931,0.2302 0,0 z m 0.15625,0.84375 c 0.24913,0.0733 -0.0544,-0.18206 0,0 z m 0,0 c -0.44353,0.0146 0.17306,0.36125 0,0 z m 0.15625,0.0937 c -0.15202,0.52504 0.53339,-0.16004 0,0 z m -0.59375,0.25 c 0.26574,0.0382 0.0596,-0.20589 0,0 z m 0.59375,0.125 c -0.25312,0.41901 0.5684,-0.27944 0,0 z m -12.8125,2.65625 c 0.49942,0.39336 -0.61698,-0.0371 0,0 z M 683.65625,126 c 0.28334,0.73354 -0.47488,0.28462 0,0 z m 2.46875,0.125 c -0.15802,0.20994 -0.10243,-0.14017 0,0 z m -9.28125,0.375 c -0.038,0.56581 0.0803,-0.2293 0,0 z" />
      <path
         inkscape:connector-curvature="0"
         id="path3947"
         style="font-size:72px;font-weight:bold;line-height:0%;fill:#f9f9f9;font-family:Sawasdee;-inkscape-font-specification:Sawasdee Bold"
         d="m 739.625,72.34375 c -0.74091,0.589154 -1.67741,1.253014 -2.58611,0.686048 -1.12042,-0.463117 -1.31345,0.679422 -1.53286,1.390249 -1.16506,0.68135 0.143,1.074708 0.30647,1.829953 -0.19147,0.627766 -1.33013,-0.06189 -0.75997,1.206347 0.34598,0.453062 0.76823,1.329523 0.10372,1.418653 -0.19189,0.185317 0.69897,0.953732 0.4673,1.648608 -0.23707,1.22565 -1.00165,2.614056 -0.37355,3.820142 0.45249,0.319554 0.26587,1.335314 1.125,1.5 -0.25878,0.671048 -2.21096,1.011232 -0.80824,1.566764 0.22489,0.818208 1.30539,0.207275 0.74574,1.370736 -0.47488,-0.376702 -1.27643,-0.584564 -1.25,0.65625 1.09405,0.565036 1.30709,2.162305 0.0937,2.75 1.08439,0.558259 -1.08352,1.016979 -0.24274,1.456754 0.62276,0.463375 1.30535,0.894925 1.39899,1.730746 -0.0355,1.250496 -1.11127,0.186247 -1.34375,-0.40625 -0.91425,0.21511 0.63784,-1.089905 -0.71157,-0.844947 -0.67562,0.641157 -1.6595,-0.303347 -0.97593,-0.936303 -0.0927,-1.035373 -1.31774,6.92e-4 -1.375,-1.125 -0.73744,-0.768688 -1.4803,0.73038 -2.40625,0.34375 -0.48919,-0.379617 -0.85404,-1.620673 -1.98903,-1.579676 -0.21343,-0.972863 -1.18912,-0.682926 -1.79222,-0.264074 -0.56612,-0.560572 -1.43187,-0.851001 -2.1115,-0.604551 -0.59663,0.912579 -1.57464,-0.994899 -2.12573,0.24885 -0.44122,-0.150533 -2.01362,0.914105 -0.88777,0.730701 0.15627,1.29564 -1.13939,0.422034 -1.5625,-0.21875 -0.70091,-0.404047 -1.18532,0.726409 -1.85101,1.019254 -0.77147,-0.06348 -1.50423,-0.293276 -1.997,0.86001 -0.71093,0.513053 -2.1068,0.587356 -2.27699,1.491043 0.30849,0.941447 -1.10463,0.673736 -1.25,1.535943 -0.69217,-0.226519 -0.18628,1.637086 -1.0625,1.78125 -0.5213,-0.76722 -1.34416,-0.399153 -1.46875,0.28125 -0.26716,0.751578 0.43811,1.563137 -0.18097,1.963353 -0.18283,0.632577 0.71998,1.284407 -0.55888,1.455987 -0.77243,0.21936 0.61412,1.6781 -0.55318,1.87142 -1.04941,-0.56246 -0.24799,1.06938 -0.92157,1.27939 -0.69623,0.69789 -1.34263,1.4521 -0.31967,1.92658 0.28421,-0.0322 -0.10358,0.70745 -0.30948,1.40952 0.21885,0.41899 0.29775,1.66062 0,1.9375 -0.29812,0.29484 0.14855,2.08429 0.96875,1.625 -0.18024,0.72037 -1.3414,1.06091 -0.5,1.625 0.14944,0.7733 0.86902,0.94073 0.84375,2.0625 -0.62754,0.66487 0.0404,0.82205 0.46875,1.03125 -0.263,0.44737 -0.76406,0.9792 0.15625,0.875 0.36651,0.33366 1.52101,1.18329 1.1875,1.59375 -0.77263,0.98291 1.06858,0.48003 1.05406,1.3649 -0.52791,1.0817 1.05628,0.84579 0.91469,1.6351 -0.10036,0.77373 1.11568,0.23885 1.34375,1.15625 0.74251,-0.0636 1.07159,0.28075 1.01411,1.38875 0.69722,0.44192 2.21455,0.12847 2.11089,1.42375 0.3803,-0.26434 0.79762,-0.76676 1.375,0.25 0.68342,0.47921 1.71841,-0.31717 2.1875,0.625 0.85123,-0.94 0.89935,1.34375 1.4375,0.5 0.61219,-0.52761 2.10448,1.14873 1.84375,-0.28125 0.27272,-0.44231 1.50434,-0.95934 0.84375,-0.0625 0.85612,0.24451 1.74879,-1.27182 2.30781,-0.51407 0.40779,0.77291 1.58925,0.14552 1.94466,-0.38913 0.64188,-0.16596 1.19092,-1.13005 1.74753,-1.0343 -0.26235,0.16814 0.28467,0.50719 0.8125,0.875 0.28163,-0.73821 0.44691,-1.34018 1.28125,-0.71875 0.83264,-0.0114 0.88488,-1.18181 1.71875,-1.03125 0.25677,-0.48366 0.71591,-1.24215 1.3125,-1.59375 1.20652,-0.63042 0.31343,1.24814 0.3125,1.53125 -0.64376,0.88189 0.72717,1.67959 1.03125,2.46875 0.80013,0.0687 1.42155,0.12931 1.53125,1.0625 0.9242,0.31623 2.01361,-0.2324 2.96482,0.33816 0.96067,-0.0778 0.29742,-1.4786 0.97268,-1.96316 0.97309,-0.72985 -0.14635,-1.43787 0.0355,-1.87926 1.29513,-0.69638 -0.70145,-0.71264 -0.41051,-0.93324 1.30737,-0.99079 -0.53673,-0.0803 -0.15625,-1.28125 -0.005,-0.82434 1.05524,-2.00159 0,-2.59375 0.65566,-0.042 1.05189,-1.86997 0.5,-1.53125 0.54921,-0.91665 -0.0744,-1.19425 -0.78125,-1.71875 0.58766,-0.49409 0.76407,-1.22993 -0.1875,-1.65625 -0.4083,-0.92668 1.18419,-1.98275 0.125,-2.71875 -0.6653,-1.12049 0.58099,-1.16958 1,-1.84375 0.58822,-1.05616 -0.95058,-0.14671 -0.4375,-1.25 -0.76584,-0.65293 -0.85171,-1.83593 -0.15625,-2.53125 -1.18645,0.17119 -1.01796,-0.59759 -0.40625,-1.34375 0.0295,-0.73411 -1.40203,-1.32962 -0.326,-2.0517 0.42286,0.14703 0.96071,1.29973 0.75041,-0.0319 -0.07,-0.78707 -0.78834,-1.38281 0.0756,-2.01015 -1.13697,-0.566425 0.7325,-1.025748 0.125,-1.625 0.23774,-0.398338 1.87446,-0.101961 0.8125,-0.96875 -0.17276,-1.214795 -1.63927,0.443223 -1.15625,-1.125 0.73205,-0.457864 1.68667,-0.368946 0.875,-1.46875 0.21769,-0.682247 -1.50387,-0.598897 -0.78622,-1.534802 1.01659,-1.030246 -1.14725,-1.925316 -0.0263,-2.965198 1.03382,-0.698184 -0.47487,-1.407547 -0.28125,-2.3125 -0.51372,-0.996175 0.53844,-1.489045 0.625,-2.3125 0.24419,-1.107256 -0.79041,-1.331722 -0.8125,-2.3125 1.09745,-0.228555 0.73201,-1.419349 1.0625,-2.25 0.7787,-0.619507 -0.87263,-1.858889 0.25,-2.4375 -1.05231,-0.431736 -0.22575,-1.748332 -1.01377,-2.460343 -0.78995,-0.820393 0.96901,-1.318974 0.35752,-2.320907 0.47601,-1.408674 -0.97216,-0.461529 -1.33147,-1.488273 -0.05,-0.289175 0.0691,-0.351117 -0.16853,-0.07423 z m -4.5625,1.09375 c 0.15416,0.441743 0.18622,-0.382285 0,0 z m 4.5625,0.21875 c 0.50605,0.529443 -0.0509,0.93959 0,0 z m -1.125,0.25 c 0.1282,0.69241 -0.6974,-0.0909 0,0 z m 3.28125,0.625 c 0.25974,0.369742 0.27136,-0.128578 0,0 z M 741.375,74.6875 c -0.0292,0.219662 0.39616,-0.208147 0,0 z m 0.15625,0.25 c 0.44405,1.000703 0.44828,-0.763977 0,0 z m -0.71875,0.5 c 0.25609,0.28015 0.36383,-0.53261 0,0 z m -17.1875,14 c -0.19078,0.794097 0.26847,-0.474442 0,0 z m 12.71875,0.59375 c -0.29416,0.118599 -0.31514,-0.114538 0,0 z m -13.71875,0.25 c -0.26695,0.618944 -0.74488,-0.236018 0,0 z M 722.75,90.5 c 0.40311,0.363372 -0.31699,-0.0346 0,0 z m -3.03125,0.53125 c 0.0958,0.225586 0.18342,-0.233765 0,0 z m 0.125,0.125 c -0.12178,0.170979 0.20258,-0.04417 0,0 z m 20.34375,0.375 c 0.51656,0.554615 -0.60972,0.362657 0,0 z m -10.96875,0.65625 c 0.21043,0.526903 0.27532,-0.169935 0,0 z m -0.1875,0.46875 c -0.0993,0.152216 -0.15906,-0.228723 0,0 z M 734,93.0625 c -0.19129,0.967436 0.48028,-0.343476 0,0 z m 6.46875,0.1875 c 0.81057,0.336515 -0.17745,0.43451 0,0 z m -27.3125,0.0625 c 0.0429,-0.05766 -0.10364,-0.03251 0,0 z m 20.875,0.21875 c 0.003,0.762038 0.24588,0.295126 0,0 z m 0,0.25 c -0.47219,0.134089 -0.53112,0.515186 0,0 z M 734.5,93.6875 c 0.17609,0.2756 0.3191,-0.273587 0,0 z m -11.53125,0.40625 c -0.29568,0.884342 1.56915,0.51425 0.5625,1.28125 0.7849,1.135299 0.30014,-0.263535 0.875,0 -0.8106,-0.975176 0.99866,-0.57554 1.125,-0.15625 -1.27661,-0.284143 0.26764,1.477026 0.71875,0.78125 1.19593,-0.430887 0.65813,1.612762 1.7297,0.786326 1.02999,-0.68675 1.26245,0.316764 2.1453,0.713674 0.18576,0.394006 -0.6477,1.779159 0.30426,1.526649 1.05732,-0.366208 1.59145,1.257101 2.63324,0.848351 0.35575,0.82725 0.49388,1.29205 1.125,1.84375 0.56475,0.57964 0.82364,1.3536 0.9657,2.18997 0.29681,0.58784 -0.42451,1.61276 0.44055,1.99753 0.44205,0.67498 1.13757,1.41321 -0.0313,1.84375 -0.8289,-0.1622 -1.62731,0.59846 -0.46875,0.875 0.12214,0.82973 -0.84349,1.6737 -0.45056,2.65065 0.48919,0.68684 -0.17419,1.12736 -0.3867,1.79793 -0.41663,0.6651 -1.47785,-0.11535 -0.78774,1.11392 0.549,1.01236 -1.0297,1.28321 -1.3125,2.125 -1.16939,-0.3119 0.0759,0.99659 -0.9375,1.28125 -1.52268,0.0186 0.0349,0.80071 -1.1875,0.9375 -0.0108,0.81758 -1.43948,0.7289 -1.40625,1.40625 1.00556,0.40356 -1.82833,1.25004 -0.875,0.375 -0.61579,-1.22009 -0.54519,0.67304 -1.15625,0.6875 -0.88306,0.27983 -1.88734,1.06382 -2.7199,0.74602 -1.0203,-0.12879 -1.17241,-0.97987 -2.06135,-0.87102 -0.76726,0.0425 -1.46141,-0.3239 -2.28125,-0.0937 -0.94758,0.47594 -1.7619,-0.48971 -2.03125,-1.1875 -0.0935,-0.56857 -0.31581,-1.92274 -1.3125,-1.59375 -1.47684,0.13508 -0.71641,-1.61447 -1.34375,-1.34375 -0.50267,-1.10597 -10e-4,-1.58969 -1.1875,-1 0.65553,-0.78605 0.162,-1.57162 -0.71875,-1.71875 -0.60701,-0.68132 0.0817,-2.08088 -0.90625,-1.90625 0.52136,-0.37945 0.23687,-1.6334 -0.18281,-0.54532 -0.47915,0.0921 -0.50183,-1.03585 0.15156,-0.79843 0.0348,-0.90649 0.0417,-1.5566 -0.3125,-2.21875 -0.78428,-0.24254 -1.33837,-1.05563 -0.59375,-1.71875 0.83168,0.50329 0.56272,-1.02601 1.2546,-1.46051 0.21412,-0.64407 0.24469,-1.85388 0.65165,-1.10199 0.048,-0.70741 -1.34149,-0.74518 -0.0313,-1.125 1.03264,0.0182 0.95681,-1.00696 0.78122,-1.95305 0.31603,-1.04098 1.92849,-0.6311 1.71409,-1.720376 0.46057,-1.350576 0.48276,-0.324048 1.13734,-0.791179 0.8503,-0.282119 0.82801,-0.120252 0.17985,-0.816645 0.56685,-0.789767 1.68846,-0.588834 2.28125,-1.09375 0.25073,0.963305 1.23058,0.665087 0.8125,-0.25 0.60484,-0.538105 1.02322,-1.002467 1.84622,-0.934448 0.42698,-0.507639 1.1102,-0.769046 1.24753,-1.409302 z m 0.4375,0.75 c -0.93596,0.824297 0.23539,0.612426 0,0 z M 711.25,95 c 0.47708,0.47245 0.0918,-0.19737 0,0 z m 23.28125,0.09375 c 0.55942,0.252801 -0.12167,0.643698 0,0 z m -12.46875,0.375 c -0.53276,0.522362 0.68821,0.975376 0.28125,0.0625 -0.0904,-0.0089 -0.1867,-0.160473 -0.28125,-0.0625 z m -1.125,0.21875 c 0.15552,0.64308 0.39422,0.02236 0,0 z m 3.3125,0.1875 c 0.17877,0.116258 0.13697,-0.523014 0,0 z m -13.75,0.71875 c 0.15575,0.649445 0.66679,-0.202587 0,0 z m 8.46875,0.5 c -0.27648,0.275323 0.39448,-0.0483 0,0 z m -0.40625,0.34375 c 0.17518,0.385054 0.34082,-0.774824 0,0 z M 728.71875,97.25 c 0.33851,0.832487 0.87841,-0.224947 0,0 z m 12.8125,0.1875 c 0.99358,0.507724 -1.18837,0.772497 0,0 z m -0.6875,0.625 c 0.0323,0.19195 -0.19195,-0.03227 0,0 z m 0.1875,0.1875 c -0.14129,0.356637 -0.16808,-0.203819 0,0 z M 717.75,98.28125 c -0.062,0.951162 0.5963,-0.09507 0,0 z m -8,0.96875 c -0.19491,0.347493 -0.29394,-0.246163 0,0 z m 6.125,0.0625 c -0.28078,0.292477 0.61702,-0.0059 0,0 z M 741.6875,99.5 c -0.0608,0.98371 0.58665,-0.211657 0,0 z m 0.25,0.1875 c 0.36435,0.36651 0.29296,-0.270967 0,0 z M 714,99.5625 c 0.43295,1.34499 -1.21322,0.52963 0,0 z m 1.8125,0.6875 c 0.009,-0.314994 -0.27661,-0.35016 0,0 z m 25.46875,0.1875 c 0.0624,0.24304 0.53535,-0.32588 0,0 z m -0.84375,0.0313 c 0.0629,0.53721 -0.43952,-0.16354 0,0 z m -24.5625,0.5625 c 0.7996,-0.43614 0.8611,-0.46969 0,0 z m -7.28125,1.78125 c -0.19922,-0.1083 0.13495,-0.4315 0,0 z M 706.6875,103 c 0.21206,0.0835 0.0217,-0.10156 0,0 z m 0.375,0.0625 c 0.0437,0.30871 0.19583,-0.19755 0,0 z M 707,103.1875 c 0.0945,0.0851 0.0782,-0.13777 0,0 z m 27.28125,0.46875 c 0.2711,1.26861 1.19064,-0.36739 0,0 z m 0.78125,0.46875 c -0.33397,0.56607 0.37635,-0.16845 0,0 z m -0.0937,0.46875 c -0.31962,-0.0913 -0.19989,-0.0571 0,0 z m 0.625,0.34375 c -0.48012,0.3686 0.32303,-0.43454 0,0 z m -0.1875,0.1875 c 0.28639,0.31394 -0.32633,-0.0533 0,0 z m -23.1875,1.40625 c -0.92678,0.72386 0.77035,0.35549 0,0 z m 0.125,-0.0313 c 0.41758,0.38773 0.22833,-0.20667 0,0 z m -5.4375,0.8125 c 0.18914,0.63513 -0.68147,0.3357 0,0 z m 0.0313,1.625 c 1.14649,0.6475 -0.002,0.9637 0,-0.125 l 0,0.125 z M 734.75,109 c 0.0376,0.41793 0.39616,0.0241 0,0 z m 6.5625,1.21875 c 0.11044,0.82216 0.22531,-0.68689 0.0228,-0.1028 l -0.0228,0.1028 z m -29.5,0.21875 c -0.11505,0.59185 -0.30499,-0.18427 0,0 z m -0.5625,0.75 c 0.14389,0.48198 -0.51483,-0.0967 0,0 z m 23.34375,0.59375 c 0.1834,0.14822 0.0624,-0.12405 0,0 z m -22.46875,0.625 c -0.45958,0.84444 -0.10685,-0.39972 0,0 z m -5.0625,2.9375 c -0.0454,0.14905 -0.0277,0.0769 0,0 z m 33.3125,0.0625 c 0.14826,0.20406 -0.2813,-0.16417 0,0 z m -32.90625,0.625 c 0.10952,-0.18612 -0.006,-0.46665 0,0 z m 24.3125,-0.125 c 0.26227,0.0336 0.14859,-0.19866 0,0 z m 0.15625,0.125 c 0.48727,0.38194 0.0629,-0.3314 0,0 z m -17.4375,0 c -0.10771,0.5469 -0.16825,-0.16039 0,0 z m -7.09375,0.5625 c 0.0373,-0.11956 -0.35372,-0.13046 0,0 z m 20.8125,2.75 c -0.83371,0.39894 0.67635,-0.10563 0,0 z m -11,0.40625 c 0.26006,0.38683 -0.2954,-0.0511 0,0 z m 11.75,0.71875 c -0.007,0.15069 -0.13332,-0.0223 0,0 z m -2.5625,0.34375 c 0.10208,0.51881 0.24957,-0.34225 0,0 z m -1.34375,0.0625 c -0.0895,0.57252 0.46989,-0.20587 0,0 z m 10.3125,2.5625 c 0.83119,0.36719 -0.22104,0.42858 0,0 z m -5.46875,0.75 c 0.56701,0.84059 -0.13723,0.73724 0,0 z m -0.71875,0.6875 c 0.37005,0.61946 0.10615,-0.36519 0,0 z m 12.90625,0.5625 c -0.9839,0.34035 0.86432,0.83204 0.1875,-0.0937 l -0.0625,0 -0.125,0.0937 z m 0.3125,0.78125 c -0.88567,1.19879 1.84536,0.39238 0.60782,-0.0578 -0.17053,-0.0668 -0.51825,-0.1631 -0.60782,0.0578 z m -21.375,1 c -0.18828,0.83829 0.89747,-1.10648 0.0835,-0.12995 l -0.0835,0.12995 z" />
    </g>
  </g>
</svg>
