<?xml version="1.0" encoding="UTF-8" standalone="no"?>
<!-- Created with Inkscape (http://www.inkscape.org/) -->
<svg id="svg3532" xmlns:rdf="http://www.w3.org/1999/02/22-rdf-syntax-ns#" xmlns="http://www.w3.org/2000/svg" height="188.53" width="239.03" version="1.1" xmlns:cc="http://creativecommons.org/ns#" xmlns:dc="http://purl.org/dc/elements/1.1/">
 <metadata id="metadata3537">
  <rdf:RDF>
   <cc:Work rdf:about="">
    <dc:format>image/svg+xml</dc:format>
    <dc:type rdf:resource="http://purl.org/dc/dcmitype/StillImage"/>
    <dc:title/>
   </cc:Work>
  </rdf:RDF>
 </metadata>
 <g id="layer1" transform="translate(-255.48693,-438.09627)">
  <g id="g4554" transform="matrix(0.86935833,0,0,0.86935833,-253.96929,-269.45274)">
   <path id="path3652" d="m586.01,1025.4c0.0146-3.3878,0.18001-3.7188,2.3648-4.7339,1.5699-0.7294,2.9249-2.2528,4.0851-4.5927,1.513-3.0513,1.6149-3.7277,0.79293-5.2635-0.82242-1.5367-0.64768-2.6819,1.3654-8.9489,1.2696-3.9526,2.9767-10.752,3.7935-15.11,0.81676-4.358,2.1701-10.379,3.0075-13.381,0.93788-3.3618,1.6386-8.4405,1.8248-13.227l0.30234-7.7694-2.0454-0.23453-2.0454-0.23453-0.21045-6.8237c-0.24296-7.8778,0.48027-9.3272,4.8353-9.6906l2.6514-0.22123-0.24471-4.4624c-0.37791-6.8916,2.0268-10.454,7.0566-10.454,3.37,0,5.4262,3.0653,5.0079,7.4656-0.1811,1.905-0.86817,4.0591-1.5268,4.7869-2.5763,2.8467-0.12269,3.2575,2.8732,0.48106,1.0796-1.0005,2.671-1.8191,3.5366-1.8191,0.86556,0,2.205-0.46158,2.9765-1.0257,1.296-0.94766,1.3138-1.1277,0.23326-2.3648-0.64322-0.73649-1.3825-3.0248-1.6428-5.0852-0.42257-3.3449-0.26988-3.9878,1.4258-6.003,2.5231-2.9985,6.4913-3.1606,9.101-0.37184,1.6005,1.7103,1.754,2.4524,1.656,8.0072l-0.10806,6.1221,2.9042,0.46439c2.8924,0.46252,7.1349,3.3196,7.1349,4.8049,0,0.42932,1.2279,2.8837,2.7286,5.4541,2.651,4.5406,2.7417,4.6149,3.1882,2.611,0.25281-1.1344,0.49838-3.4757,0.54573-5.2028,0.11745-4.2844,1.1238-5.8522,4.7999-7.4784,3.1279-1.3836,4.5752-3.1398,3.2584-3.9536-0.38272-0.23654-0.69585-2.2116-0.69585-4.3891,0-2.9888,0.35662-4.3156,1.4553-5.4143,1.8883-1.8883,7.1868-1.9864,9.4244-0.17447,2.1492,1.7403,2.7046,6.3322,1.2011,9.9305-1.5518,3.714-1.4906,6.0509,0.17242,6.5787,1.8887,0.59945,2.9081,2.9433,3.6555,8.4047,0.62581,4.5733,0.65017,4.6154,0.73701,1.2734,0.0659-2.5369,0.52532-3.8892,1.727-5.0836,2.4942-2.4793,3.4562-4.7743,3.4562-8.2446,0-1.7363,0.39118-4.0155,0.86929-5.0648,0.9345-2.051,3.9923-3.9816,6.3062-3.9816,1.752,0,5.0501,3.7832,5.5993,6.4229,0.22256,1.0697,0.7436,3.2916,1.1579,4.9376l0.75321,2.9927,1.6688-1.6688c0.91783-0.91783,2.9825-2.0225,4.5882-2.4549,1.6056-0.43235,3.1064-1.2737,3.3351-1.8696,0.22869-0.59595,0.95542-1.0835,1.615-1.0835,0.91115,0,1.0754-0.39319,0.68385-1.6372-0.28342-0.90045-0.68103-3.4381-0.88358-5.6392-0.30841-3.3514-0.11157-4.3272,1.2109-6.003,1.4011-1.7753,2.0597-2.001,5.8402-2.001,4.333,0,5.6934,0.68197,7.2821,3.6505,0.72163,1.3484-0.21495,7.8127-1.4668,10.124-0.83932,1.5496,0.99909,2.961,3.8568,2.961,2.7868,0,6.3027,2.3302,6.3924,4.2367,0.0617,1.3114,0.95787-0.99803,1.7068-4.3985,1.0476-4.7567,6.853-6.5674,10.23-3.1906,1.2994,1.2994,1.8734,2.9104,2.2626,6.3507,0.43099,3.8095,0.65983,4.3749,1.3183,3.2571,0.43824-0.74391,2.2263-2.7844,3.9735-4.5345,2.6624-2.6668,3.1052-3.5054,2.735-5.18-1.7452-7.8947-1.8654-9.0902-1.066-10.609,1.2063-2.2921,2.0172-2.6438,6.1238-2.6562,2.9889-0.009,4.0132,0.32946,5.3711,1.7749,1.4271,1.5191,1.6172,2.3074,1.2722,5.2753-0.22311,1.9191-0.61515,4.1623-0.87121,4.9848-0.3862,1.2406,0.17974,1.8467,3.3201,3.5559,2.0821,1.1332,4.4031,2.6778,5.1578,3.4325,1.5895,1.5895,1.5583,1.6547,2.6668-5.5734,0.89103-5.81,2.9613-8.3678,6.7728-8.3678,3.6762,0,6.116,3.1335,6.686,8.5869,0.5413,5.1789,1.2992,6.9318,4.0018,9.2566,1.7029,1.4648,1.8644,2.0448,1.6415,5.8975-0.13595,2.3501-0.19584,5.7464-0.1331,7.5472,0.4967,14.258,0.16893,25.586-0.87492,30.239-1.2258,5.4636-3.105,24.157-2.4901,24.772,0.8944,0.8944,5.2253-13.338,6.7759-22.268,0.93815-5.4027,2.209-11.43,2.8241-13.395,1.4675-4.6871,1.4117-6.6258-0.33693-11.708-1.8509-5.3796-1.8358-8.7392,0.0643-14.38,2.2696-6.7374,2.5426-7.0853,5.5576-7.0853,2.4054,0,2.5321-0.0937,1.3231-0.9777-0.92717-0.67796-1.2062-1.5145-0.91023-2.7286,0.23477-0.96301,0.79332-3.2731,1.2412-5.1335,0.96224-3.9967,2.339-5.4161,5.8927-6.0753,2.1372-0.39642,2.9884-0.16704,4.6345,1.2489,1.7637,1.517,2.0633,2.3895,2.3903,6.9596,0.34718,4.8522,0.25012,5.3261-1.3601,6.6399l-1.734,1.4147,1.6068,1.5089c0.88371,0.8299,1.7486,1.5089,1.922,1.5089,0.17338,0,0.82938-1.285,1.4578-2.8555,0.6284-1.5705,2.0049-3.4533,3.0588-4.1839,1.054-0.7306,2.5603-1.9217,3.3474-2.6469,1.4219-1.31,1.421-1.3357-0.13147-3.967-2.9532-5.0053-2.3444-12.104,1.1126-12.971,3.4625-0.86904,5.7003-0.0156,7.8049,2.9766,1.7662,2.5111,1.9915,3.3848,1.6417,6.3668-0.36296,3.0937-0.2547,3.4562,1.0319,3.4562,0.79056,0,1.606,0.27284,1.8121,0.60632,0.2061,0.33347,1.3281,0.46638,2.4934,0.29535,2.4722-0.36284,6.3032,1.417,7.5946,3.5283,0.49578,0.81054,1.9758,2.143,3.2888,2.961,3.7368,2.3279,5.458,6.4355,5.1298,12.243-0.27352,4.8406-0.27663,4.8467-5.2808,10.372-3.8131,4.2102-5.6022,5.6401-7.5027,5.9966-1.986,0.37258-2.3888,0.71911-1.9726,1.6972,0.28764,0.67594,0.79141,11.707,1.1195,24.513s0.7582,24.142,0.95579,25.19c0.19758,1.0479,0.10766,2.8459-0.19981,3.9956-0.30748,1.1497-0.26522,3.7071,0.0939,5.683,0.35913,1.9759,0.25143,2.8936,0.0211,4.1227-0.40943,2.1849-0.50004,3.2946-4.0586,3.0481-5.9562-0.45-4.0029,0.3376-5.3896-6.9386-0.32108-0.4959-0.60963-1.5565-0.64123-2.3569s-0.11345-2.9014-0.18191-4.669c-0.0685-1.7675-0.30091-3.0372-0.51658-2.8216-3.7284,10.953,0.006,7.596-5.4322,12.223-0.94621,0.8207-2.5604,1.6922-3.5872,1.9367-3.0549,0.1838-3.6645-0.6977-10.028-1.638-2.444-2.429-2.6641-2.2875-4.093-10.124-0.24674-3.2016-0.7782-11.388-1.181-18.191-0.40283-6.8034-0.93432-14.485-1.1811-17.071-0.42581-4.4613-0.49962-4.6096-1.4482-2.9105-0.54972,0.9847-2.3272,6.047-3.9499,11.25-1.6227,5.2026-4.1109,12.897-5.5293,17.099-1.4184,4.2021-2.8628,9.427-3.2098,11.611-0.347,2.1839-1.0435,4.7417-1.5478,5.6841-1.5021,3.6271-10.025,5.3249-6.8695-2.9076-2.5941,5.2023-8.2906,3.0474-12.23,4.5311-2.3844,0-2.6246,0.1849-2.6246,2.021-1.9538,0.4231-0.30369,3.0579-2.7434,3.0223-0.69222,0.3693-3.591,1.296-4.3582,0.047-5.6377-2.5494-3.059-6.965-6.7179-8.061-5.0156-1.5025-10.821,9.7732-13.781,7.5363-5.2374-3.958,0.0476-9.9675-1.4909-12.926-1.5385-2.9582-5.1115-4.5546-5.1176-5.2648-0.009-1.0284-0.14193-1.0849-0.65332-0.2773-0.37335,0.5896-0.3636,1.8133,0.0233,2.9232,0.18347,4.5478,1.1218,5.7655-0.59172,8.0159-0.90504,1.1887-1.8208,1.05-3.31,1.5687-1.4891,0.5187-2.1744,1.7946-3.5008,1.9442-1.7329,0.1955-3.5646-0.5037-5.0247-1.4572-0.95871-0.6261-1.6562-1.6298-2.2025-2.6361-1.166-2.1478-1.3053-3.005-2.1574-7.007-0.85205-4.002-2.1675-8.9455-2.9232-10.986-0.75571-2.04-1.5746-6.133-1.8198-9.0954-0.24518-2.9624-0.7148-7.5146-1.0436-10.116-0.56831-4.4962-0.60304-4.3167-0.70388,3.6382-0.0584,4.6023-0.43048,13.702-0.82699,20.221,0.86554,13.921-2.2913,15.115-7.9169,15.948-2.9224,0.4326-7.1828-0.2486-1.9362-8.6485,0.56897-0.8387,0.669-3.3471,0.31919-8.0039-2.2448-29.879-2.5618-38.899-1.7263-49.095,0.53967-6.5856,0.16663-10.44-1.0103-10.44-0.33382,0-0.4493,1.6408-0.25661,3.6461,0.3305,3.4396,0.20144,3.7866-2.2784,6.1254-2.6252,2.4759-2.6274,2.4832-1.6106,5.3649,1.1799,3.3443,1.5022,8.2108,1.2924,19.517l-0.1502,8.0949-2.0844,0.41687c-2.2882,0.45764-3.009,2.3838-3.0092,8.0418-0.00007,1.6508-0.49122,5.568-1.0914,8.7046-1.4676,7.6694-1.4276,8.0521,1.1489,10.986,3.6121,6.5638-4.1023,4.9047-4.6446,5.1283-6.8487,3.2402-6.2652,0.4132-6.2652,0.4132,0.24053-2.7627,3.6063-1.7693-11.791-2.1674-6.0699-0.1237-2.4941-0.1913-5.7339-6.6026-0.60323-2.248-0.75632-7.0376-0.48841-15.28l0.39021-12.006-1.4341,4.002c-0.78877,2.2011-1.7476,7.4902-2.1307,11.754-0.38312,4.2635-1.1971,9.7055-1.8089,12.094-0.85003,3.3179-0.92583,4.8322-0.32144,6.4219,0.52387,7.1044-1.7449,5.3419-4.0701,5.975-3.5502,0.9666-9.0612-0.703-10.848-3.199-0.61466-0.9381-1.1176-2.3447-1.1176-3.1259,0-0.7811-0.37728-1.5459-0.8384-1.6996-1.0538-0.3513-2.3781-5.2305-4.2032-15.486-0.78344-4.4022-1.9138-9.1726-2.512-10.601-0.59816-1.4284-1.6227-5.6814-2.2768-9.4511-0.65406-3.7697-1.2961-6.961-1.4267-7.0916-0.13064-0.13063-0.63726,2.1578-1.1258,5.0853-0.48857,2.9276-1.5129,7.2874-2.2762,9.6886-0.76336,2.4012-1.8778,8.4587-2.4765,13.461-1.1045,9.2282-1.99,13.02-3.6535,15.644-4.4379,10.416-5.361,8.2893-12.056,5.4572-2.7015-0.4757-0.21528,1.4693-3.1647-2.1829,0.22752-3.0015,0.54365-10.252,0.7025-16.112,0.15886-5.8601,0.61347-12.572,1.0102-14.916,0.91611-5.4118,1.8196-16.02,1.3236-15.54-0.56527,0.54695-5.4064,17.397-5.9579,20.738-0.99163,6.0057-4.066,14.189-5.3319,14.192-1.9064,1.2131-7.1819,12.426-8.4681,13.787-0.25934,0.4196-1.3527,0.776-2.4296,0.7921-3.0604-0.259-3.4963-0.5242-3.7622-2.5716zm164.43,1.8489c1.0654-1.5566,0.4814-2.3753,2.7286-3.4327,1.5007-0.7061,3.8385-2.0312,5.195-2.9446,3.6011-2.4249,5.1732-2.2111,5.1765,0.704,0.004,3.7026,2.433,7.0944,5.08,7.0944,2.8686,0,2.8721-1.5818,0.0107-4.8407-2.4194-2.7556-2.7467-4.2464-1.0733-4.8886,0.94826-0.3639,1.1032-2.6768,1.0656-15.904-0.0242-8.5129,0.29255-18.261,0.70394-21.663,0.41138-3.4017,0.75046-8.497,0.75349-11.323,0.004-4.1602,0.28791-5.4412,1.4891-6.7306,0.81598-0.87586,1.7554-1.5925,2.0877-1.5925,1.1588,0,1.4359,5.2186,0.72613,13.675-0.39319,4.6847-0.49678,13.757-0.23018,20.16,0.41792,10.037,0.67248,11.822,1.8469,12.944,1.7266,1.6499,1.8758,7.4753,0.2379,9.2852-0.61835,0.6833-1.1914,2.1825-1.2734,3.3317-0.1334,1.8695,0.0806,2.0893,2.0338,2.0893,1.6066,0,2.093-0.2881,1.8423-1.0914-0.76703-2.4578-0.82433-13.224-0.0752-14.126,0.48259-0.5815,0.76145-4.6993,0.724-10.691-0.0457-7.3134,0.32902-11.644,1.5016-17.352,1.7564-8.551,1.8395-8.7647,3.4077-8.7647,0.99156,0,1.0634,1.1786,0.58773,9.6411-0.29806,5.3026-0.54317,15.535-0.54469,22.738-0.002,9.2359-0.29744,13.935-1.0023,15.94-1.185,3.3697-0.8918,3.8529,1.7588,2.898,1.6449-0.5925,1.947-1.0854,1.7555-2.8641-0.12721-1.1816-0.5365-2.4594-0.90954-2.8396-0.37303-0.3802-0.67824-2.1149-0.67824-3.8548,0-2.459,0.41456-3.5478,1.8613-4.8886,1.7299-1.6032,1.912-2.4099,2.579-11.425,0.39469-5.3352,1.3602-13.033,2.1455-17.107,1.219-6.3227,1.3938-9.855,1.1947-24.139l-0.23323-16.733-2.254-2.1055c-1.7231-1.6097-2.3583-2.9506-2.6969-5.6938-0.81713-6.6198-1.4759-8.5207-3.4642-9.9963-1.8329-1.3602-2.0752-1.3781-3.7551-0.27741-1.9617,1.2854-3.012,3.9892-3.7273,9.596-0.8969,7.0299-1.5986,7.5984-4.97,4.0263-1.1205-1.1872-3.6311-3.026-5.579-4.0862-3.6233-1.9721-5.267-4.8063-3.6975-6.3758,0.42235-0.42234,0.76791-2.1521,0.76791-3.8439,0-2.4564-0.38619-3.3798-1.9172-4.5841-2.4367-1.9167-3.3811-1.8953-5.6897,0.1291-2.0204,1.7718-2.0264,1.0419,0.0998,12.221,0.28319,1.489-0.29506,2.449-2.9481,4.8945-3.804,3.5064-4.8251,5.1481-4.8251,7.758,0,2.3541-1.9774,2.5147-2.8294,0.22974-0.33575-0.90044-0.83336-3.2743-1.1058-5.2753-0.67972-4.9924-1.6843-7.2863-3.6523-8.3395-1.336-0.71504-1.9776-0.70213-3.2051,0.0645-1.8715,1.1688-2.6998,3.2952-3.5067,9.0027-0.51957,3.675-0.84752,4.3658-2.0725,4.3658-1.1858,0-1.5226-0.60636-1.8191-3.2743-0.31799-2.8619-0.68459-3.4346-2.9105-4.5466-1.4007-0.69973-3.4472-1.2727-4.5477-1.2734-1.1006-0.00062-2.001-0.32856-2.001-0.72876,0-0.40019-0.6259-0.72763-1.3909-0.72763-1.598,0-1.5685-0.89068,0.13641-4.1075,1.7344-3.2724,2.2243-7.6294,1.0281-9.1432-1.4447-1.8282-4.5808-2.83-6.5341-2.0874-3.6166,1.375-3.8848,2.7648-2.2904,11.87,0.42515,2.4279,0.28451,2.7896-1.3223,3.4005-0.98895,0.37599-1.9892,1.1818-2.2229,1.7907-0.23364,0.60888-1.5779,1.3234-2.9873,1.5878-2.6765,0.50211-6.2456,3.4486-6.2456,5.156,0,1.5035-2.7552,1.1868-3.6126-0.4152-0.41428-0.77408-0.75506-2.6568-0.75729-4.1839-0.01-6.5754-2.616-10.882-6.062-10.018-2.7361,0.68673-4.4526,5.5631-3.7992,10.793,0.46527,3.7239,0.39496,3.9901-1.1128,4.2135-2.9147,0.43183-4.2391,3.3222-4.4434,9.6977-0.16471,5.1388,0.014,6.091,1.5244,8.1249,1.4656,1.9734,1.6372,2.7955,1.1968,5.7322-0.67226,4.483-1.0707,5.4252-2.294,5.4252-0.55747,0-1.0179-0.0819-1.0232-0.18191-0.005-0.10005-0.65995-3.2925-1.4549-7.0944-0.79493-3.8019-1.6634-10.341-1.9299-14.531-0.46881-7.3706-0.56344-7.6994-2.9109-10.117-2.686-2.7656-2.9576-4.4642-1.3349-8.3477,1.3134-3.1435,1.418-7.1348,0.21829-8.3345-0.48023-0.48023-2.1099-0.87315-3.6214-0.87315-3.9912,0-5.0736,1.967-4.0617,7.3807,0.93467,5.0004,0.55233,6.1689-2.2176,6.7773-3.7824,0.83075-5.1971,3.1512-5.951,9.7608-1.1746,10.299-1.2589,10.262-9.7014-4.2727-2.0101-3.4606-2.7176-4.0854-5.2304-4.6186-5.0692-1.0757-5.0887-1.106-5.0887-7.8836,0-6.5168-0.6065-7.9246-3.7696-8.75-1.0839-0.28286-2.0792,0.1102-3.141,1.2404-1.7406,1.8528-1.5652,5.1382,0.5219,9.7734,1.4293,3.1742,0.59175,4.6331-2.9949,5.2168-1.4721,0.23958-3.5827,1.3037-4.6902,2.3648-1.3282,1.2726-2.8128,1.9292-4.3615,1.9292-3.139,0-3.6995-1.7077-1.7005-5.181,2.1745-3.7782,2.1006-7.5425-0.17728-9.035-1.4641-0.95932-2.0087-0.99597-3.2531-0.21885-2.3745,1.4829-3.2359,4.4848-2.6847,9.3564,0.47805,4.2254,0.43482,4.3812-1.4099,5.0826-1.0467,0.39795-2.6888,0.72354-3.6492,0.72354-2.3442,0-2.9457,1.5917-2.8872,7.6401,0.0462,4.7797,0.14991,5.0934,1.6836,5.0934,2.4964,0,3.0212,1.5782,3.0334,9.1206,0.008,5.2034-0.37048,8.0228-1.5154,11.278-0.83961,2.3873-2.1232,7.7786-2.8524,11.981-1.6802,9.6824-2.4224,12.836-4.6766,19.869-1.4014,4.3721-1.6365,5.9744-1.0213,6.9596,0.59855,0.9584,0.50809,2.2813-0.36026,5.2684-1.1419,3.9279-3.2386,6.6182-6.3956,8.2063-0.88385,0.4445-1.7286,1.1772-1.8771,1.6282-0.52125,1.5821,3.2466,2.9636,4.8971,0.18,3.3399-5.6327,3.9379-3.9505,2.8982-3.229-3.0134,2.0913,2.9795-9.9311,4.4552-10.317,1.5102-0.395,3.2778-5.7292,6.8131-20.561,2.1315-8.9421,6.62-19.646,8.2383-19.646,0.67991,0,0.86449,0.61653,0.59911,2.001-0.21096,1.1005-0.58832,4.7842-0.83857,8.1859s-0.91546,9.4592-1.4782,13.461c-0.56278,4.002-0.96093,10.387-0.88478,14.189,0.0762,3.8019-0.13555,8.7505-0.47043,10.997-0.62548,4.1957-0.11923,5.443,1.7422,4.2926,0.82398-0.5093,0.8506-1.1448,0.14639-3.4953-0.4734-1.5801-0.71037-3.816-0.52659-4.9687,0.18377-1.1527,0.5264-3.3237,0.76139-4.8245,0.36632-2.3395,0.69556-2.7286,2.309-2.7286h1.8818l-0.35023,5.4572c-0.19262,3.0015-0.072,5.4573,0.26813,5.4573,0.99193,0,0.71302,2.5072-0.44996,4.0448-0.58757,0.7768-1.0787,2.0062-1.0914,2.7319-0.0185,1.0538,0.45288,1.2735,2.3417,1.0914,2.2369-0.2157,2.4015-0.4346,3.0433-4.0481,0.37318-2.101,1.0576-3.82,1.521-3.82,1.0414,0,2.227-5.3666,3.2954-14.916,0.44773-4.0019,1.4273-9.2409,2.1769-11.642,0.74957-2.4012,1.8947-7.6401,2.5448-11.642,1.6973-10.449,1.7238-10.551,2.7526-10.551,0.62442,0,1.5015,3.0853,2.6373,9.2773,0.93594,5.1025,2.4339,11.569,3.3289,14.371,0.89493,2.8014,1.8467,7.058,2.115,9.4592,0.63752,5.7054,3.3413,15.122,4.5545,15.862,0.52457,0.3201,0.96466,1.3024,0.97798,2.1829,0.0133,0.8806,0.68941,2.4003,1.5024,3.3771,1.1858,1.4247,2.3306,1.8377,5.7864,2.0877,5.172,0.3741,5.8744-0.525,4.0461-5.179-0.9775-2.4882-1.0231-3.1847-0.24762-3.7782,1.1409-0.8731,2.4864-7.8946,3.1372-16.372,0.26117-3.4017,1.072-7.822,1.802-9.823,0.72991-2.001,1.5443-4.8546,1.8098-6.3414,0.48541-2.7184,1.7248-3.3272,2.6439-1.2988,0.27203,0.6003,0.51761,7.8902,0.54573,16.2,0.0282,8.3096,0.35467,15.677,0.72566,16.372,0.37098,0.695,0.8352,1.7931,1.0316,2.4404,0.29539,0.9736,1.6246,1.1943,7.6932,1.2776,4.0349,0.055,7.3362-0.06,7.3362-0.2569,0-0.1967-1.4533-0.7235-3.2295-1.1707-5.1801-1.3044-5.3374-1.7177-5.5156-14.488-0.22305-15.987,0.67049-29.124,2.0161-29.64,1.7361-0.6662,2.3403,1.2983,2.3521,7.6475l0.0111,6.0212,2.116,0.42322c1.7709,0.35416,2.2456,0.9379,2.9105,3.5784,0.43696,1.7353,0.79448,4.3369,0.79448,5.7812s0.68997,6.0542,1.5333,10.244c1.6838,8.3659,1.4445,12.203-0.83695,13.424-0.78317,0.4191-1.424,1.0779-1.424,1.4641,0,1.1123,1.91,0.8161,2.9696-0.4606,0.66581-0.8023,1.6882-1.0453,3.2985-0.7839,3.1449,0.5103,3.5485-0.1353,1.481-2.3688-2.4518-2.6487-2.7015-4.4998-1.5138-11.225,0.57549-3.2587,1.2011-8.3058,1.3902-11.216,0.39693-6.1076,1.1778-7.9761,3.4694-8.3015,1.6073-0.22826,1.64-0.42834,1.702-10.42,0.0502-8.0872-0.22522-11.147-1.3361-14.843l-1.3993-4.6563,3.0368-2.7759c2.7652-2.5276,2.9878-2.9898,2.4884-5.1667-1.034-4.5073-0.83539-5.2824,1.4196-5.5401,1.1493-0.13133,2.3893,0.0608,2.7555,0.42709,0.36623,0.36623,0.64909,4.0755,0.62857,8.2427-0.10334,20.982,0.0327,27.77,0.67698,33.772,0.38666,3.6018,0.88141,11.624,1.0995,17.827,0.36682,10.436,0.28785,11.441-1.0573,13.461-1.9181,2.8802-1.8467,3.2743,0.59278,3.2743,1.1949,0,2.704-0.6896,3.603-1.6466,1.3395-1.4259,1.6494-3.0597,2.3111-12.188,0.42032-5.7977,0.81163-15.601,0.86959-21.785,0.12004-12.808,0.28129-13.859,2.1266-13.859,1.5125,0,1.6529,0.60973,2.8498,12.37,1.1938,11.73,1.3441,12.605,3.21,18.689,2.1017,6.8535,3.3475,12.099,3.3475,14.094,0,2.545,2.9406,5.7812,5.2531,5.7812,1.1678,0,2.2513-0.4754,2.4877-1.0915,0.23037-0.6002,1.1369-1.0914,2.0145-1.0914,0.87763,0,1.9886-0.3929,2.4689-0.8732,1.0578-1.0577,1.1572-4.6864,0.14553-5.3117-0.4002-0.2473-0.76115-1.1671-0.80211-2.0439-0.0575-1.2301-0.20267-1.0956-0.63568,0.5887-2.4299,9.4516-5.8346,8.9756-6.683-0.9344-0.26433-3.0879-0.88373-8.5612-1.3765-12.163-0.49271-3.6018-0.84949-8.1859-0.79283-10.187,0.22292-7.873-1.413-23.332-2.9829-28.188-1.2435-3.8464-1.3949-5.0947-0.70194-5.7877,0.69299-0.69299,1.5847-0.19546,4.1343,2.3068,4.619,4.5332,5.5572,6.8112,4.5717,11.1-0.7193,3.1303-0.50809,4.5063,2.3282,15.167,2.8831,10.837,3.0658,12.057,2.4127,16.112-0.38858,2.4129-0.46226,5.4106-0.16374,6.6616,0.29854,1.251,0.5763,1.7015,0.61727,1.0012,0.12329-2.1079,3.4594-1.654,4.0114,0.5457,0.25111,1.0005,0.92291,1.8191,1.4929,1.8191,0.56997,0,1.5224,0.6939,2.1164,1.5421,1.053,1.5033,1.086,1.4804,1.3146-0.9096,0.25454-2.6614-0.45988-6.5921-2.037-11.208-1.6437-4.8104-1.2348-8.1235,2.3992-19.44,1.9445-6.0551,3.4363-7.2058,4.2452-3.2743,0.26762,1.3006,1.0876,4.9843,1.8221,8.1858,0.73456,3.2016,1.5141,9.7503,1.7323,14.553,0.21822,4.8024,0.61105,10.565,0.87297,12.807l0.4762,4.0751-3.2308,1.5641c-4.1875,2.0271-4.8105,1.9736-5.0878-0.437-0.16852-1.4646-0.56356-0.6461-1.4738,3.0538-1.794,7.9599,1.1324,5.4669,2.9379,5.0154zm-101.79-26.411c-0.9474-3.7018-1.9991-9.2694-2.3372-12.372-0.33804-3.103-1.1132-8.74-1.7225-12.527-1.3554-8.4232-0.48161-12.894,3.5533-18.18,1.4353-1.8804,2.6096-3.7212,2.6096-4.0907,0-0.36955,0.63429-0.6719,1.4095-0.6719,1.1904,0,1.3485,0.37613,1.0168,2.4197-0.21597,1.3308,0.15058,4.5233,0.81455,7.0944,0.83071,3.2167,1.0609,5.9598,0.73812,8.7954-0.3567,3.1333-0.1702,4.7506,0.77831,6.7494,1.4483,3.0521,1.1537,7.7974-1.1094,17.871-0.7642,3.4017-1.585,7.4127-1.824,8.9135-0.72517,4.5532-2.0948,3.1575-3.9271-4.002zm5.6136-14.735c0.40553-3.4794,0.22221-5.0835-0.90294-7.901-1.2022-3.0103-1.2897-3.9917-0.58932-6.6102,0.65318-2.4422,0.60503-3.7975-0.23401-6.5854-0.58106-1.9307-1.0565-4.4657-1.0565-5.6334v-2.1231l-1.711,2.0568c-2.2844,2.7461-3.0955,4.4385-3.6804,7.6795-0.664,3.6792,1.8343,23.184,4.0973,31.989l0.87723,3.4131,1.3454-5.9598c0.73994-3.2779,1.5743-7.9244,1.8542-10.326zm-36.158,7.5189,0.0958-3.1531,0.50578,2.5467,0.50577,2.5467,0.40065-2.5467,0.40064-2.5467-0.0927,2.8543c-0.0509,1.5699-0.50196,2.9887-1.0022,3.1531-0.64271,0.21113-0.88144-0.6262-0.81375-2.8543zm70.557-0.78827c0.06-2.5606,0.16609-2.7796,0.61655-1.2734l0.54402,1.8191,0.37581-1.8191c0.26366-1.2763,0.40537-0.89627,0.47489,1.2734,0.074,2.3078-0.17784,3.0924-0.99235,3.0924-0.81035,0-1.0728-0.79646-1.0189-3.0924zm-13.112-24.739c-0.0316-0.70035,0.4337-1.2734,1.034-1.2734,0.60029,0,1.0864,0.57301,1.0803,1.2734-0.009,0.99652-0.14776,1.0577-0.63955,0.28148-0.53054-0.83741-0.68984-0.83741-1.0229,0-0.27501,0.69155-0.41185,0.60631-0.45189-0.28148zm71.388-4.6734c0.32438-3.8385,2.0449-4.0899,2.0449-0.29879,0,2.207-0.292,2.9712-1.1354,2.9712-0.86364,0-1.0813-0.63958-0.90954-2.6724zm-125.58-3.0086c-1.4181-2.7423-0.79713-7.5926,0.92945-7.2601,0.64036,0.12332,1.2668,0.87533,1.3921,1.6711,0.12527,0.79581,0.57063,2.1406,0.98966,2.9884,1.8882,3.8205-1.3608,6.3722-3.3112,2.6005zm106.54-2.8352c-1.611-2.2498-2.9291-4.2925-2.9291-4.5395,0-0.24699,1.146-1.53,2.5467-2.8512s2.5467-2.703,2.5467-3.0706c0-0.36769,0.58571-0.66852,1.3016-0.66852,1.1654,0,1.2986,0.76057,1.2734,7.2671-0.0196,5.0386-0.30145,7.3723-0.91919,7.6102-0.49002,0.18871-2.209-1.4976-3.8201-3.7474zm2.8919-3.5153c0-3.0745-0.0994-3.2467-1.4553-2.5211-0.8004,0.42835-1.4553,1.1063-1.4553,1.5065,0,0.77418,2.1584,4.3146,2.6304,4.3146,0.15407,0,0.28013-1.485,0.28013-3.2999zm-89.126,6.2245c-0.24256-0.39247-0.39076-2.1115-0.32934-3.8201,0.0614-1.7086-0.12891-4.9632-0.42295-7.2326-0.94837-7.3193,1.1889-10.464,3.7482-5.515,0.67258,1.3006,1.8316,3.1881,2.5756,4.1944,1.3239,1.7906,1.3193,1.9302-0.21459,6.5487-0.862,2.5955-1.889,5.1283-2.2821,5.6286-0.85435,1.087-2.4607,1.1894-3.0747,0.19597zm3.496-6.7665c1.1279-3.4069,1.1148-3.532-0.63729-6.1139l-1.7887-2.6358,0.18828,6.6162c0.10356,3.6389,0.39034,6.3902,0.63729,6.1139,0.24696-0.27627,0.96716-2.0674,1.6004-3.9804zm99.259,5.8363c-0.3046-0.79376-0.0111-3.0424,1.3761-10.544,0.37136-2.0082,2.1393-2.1368,3.1599-0.22974,1.1418,2.1334,0.91212,8.2288-0.37947,10.073-1.2349,1.7631-3.5962,2.1614-4.1566,0.70109zm3.2571-5.0453c-0.6089-0.60889-0.87835-0.62874-0.87835-0.0647,0,0.4475-0.21021,1.4134-0.46712,2.1465-0.44489,1.2694-0.40309,1.2725,0.87835,0.0647,1.0509-0.99051,1.1532-1.4605,0.46712-2.1465zm98.452,71.994c-0.28625-1.3006-0.43974-3.8382-0.3411-5.6391,0.21952-4.0081,0.22396-3.4876-0.25463-29.833-0.21446-11.806-0.74309-23.229-1.1747-25.385-0.43164-2.1557-0.7848-4.0236-0.7848-4.1509,0-0.12734,1.2204-0.46048,2.7121-0.74032,2.0686-0.38808,3.7275-1.5988,6.9915-5.1026,2.3537-2.5266,4.8987-5.7494,5.6557-7.1617,1.4861-2.7728,1.8533-6.9389,0.61151-6.9389-0.42061,0-1.2151-1.0778-1.7655-2.3951s-1.8711-2.8609-2.9348-3.4302c-1.0637-0.56929-2.5871-1.9522-3.3853-3.0731-1.5054-2.1142-5.2114-4.4473-5.9273-3.7315-0.22522,0.22521-2.0583,0.18271-4.0735-0.0945-3.4949-0.48068-3.6865-0.62382-4.1513-3.101-0.26962-1.4372-0.15411-3.1305,0.25865-3.7914,0.56798-0.90949,0.281-1.8788-1.2033-4.0644-2.2408-3.2996-3.9481-3.9034-5.94-2.1008-1.9676,1.7806-1.7769,5.8116,0.45998,9.7249,1.5404,2.6949,1.7137,3.5325,1.054,5.0934-0.43426,1.0275-1.8408,2.3593-3.1257,2.9596-1.5403,0.71965-3.0335,2.3927-4.3833,4.9115-2.3284,4.3448-3.5164,4.6876-6.4627,1.8649-2.4616-2.3584-2.5065-3.3982-0.30157-6.9848,1.39-2.2611,1.5969-3.2852,1.1534-5.7104-0.7228-3.9527-2.1298-5.2788-4.9448-4.6605-1.2172,0.26734-2.5642,0.90921-2.9934,1.4264-1.1156,1.3443-2.2778,8.0054-1.4487,8.3041,0.37031,0.13341,0.6733,0.67138,0.6733,1.1955,0,0.52413,0.5119,1.1494,1.1376,1.3895,1.9429,0.74555,0.37182,1.9021-2.5838,1.9021-3.5346,0-4.7156,1.1753-5.8241,5.7962-0.48391,2.0171-1.1744,3.8495-1.5344,4.072-1.0756,0.66476-0.75983,3.0422,1.2679,9.5458l1.9224,6.1658-1.6606,6.3104c-0.91336,3.4708-2.2425,9.9122-2.9537,14.314-1.5829,9.7977-2.8022,13.842-7.0098,23.25-3.685,8.2394-3.9887,10.317-1.7707,12.113,1.9204,1.555,1.9367,2.2589,0.091,3.9293-1.9175,1.7353-1.8446,2.7032,0.18191,2.4154,0.90045-0.1279,1.9604-0.9692,2.3554-1.8697,0.39505-0.9004,0.9445-1.6371,1.221-1.6371s0.72037-1.8828,0.98639-4.1839c0.266-2.3012,1.2822-6.2301,2.2581-8.7309,0.97595-2.5009,2.4057-6.9213,3.1773-9.8231,4.2101-15.834,8.7514-27.105,10.921-27.105,1.1781,0,1.273,0.92935,2.8592,28.014,1.3651,23.308,1.4573,24.611,3.3972,25.098,0.9283,0.233-0.062,0.6696,2.5344,0.8044,1.8635,0.097,5.2399,1.2683,7.3008-0.3024,0.95441-0.7273,2.7995-1.7493,4.1001-2.2711,1.9766-0.793,1.1498-1.4177,1.7256-3.2736,0.63924-2.0604,1.5349-8.1937,2.4611-12.476,0.18034-0.8337,0.80975-1.5159,1.3987-1.5159,1.1908,0,1.5395,2.3204,2.2872,15.22l0.45337,7.8221h2.9231c2.9195,0,2.9224,0,2.4027-2.3648zm-27.274-4.8614c-0.81857-1.9762-0.71758-2.2834,1.3756-4.1839l2.259-2.0511-1.5355-10.187c-1.2765-8.4682-1.4394-11.66-0.96571-18.918,0.31341-4.8024,0.53401-11.433,0.49021-14.735-0.0867-6.5406,0.42277-7.211,3.3838-4.4524,1.2608,1.1746,1.5634,2.0556,1.2479,3.633-0.50893,2.5447,1.3819,17.789,2.8457,22.942,0.69945,2.4625,1.0652,7.1525,1.0652,13.659v9.9092l-3.0032,3.2581c-3.6067,3.9129-5.8615,4.2671-7.1629,1.1253zm8.2776-7.5249c0.90609-4.5304,0.41785-14.396-0.97107-19.621-1.2191-4.5866-2.437-13.472-3.2174-23.474-0.14214-1.8217-0.27285-1.1876-0.34941,1.6951-0.0672,2.5331-0.47672,7.6106-0.90988,11.283-0.64418,5.4621-0.56729,8.3328,0.4223,15.768,2.2188,16.671,2.2202,16.864,0.13025,18.809-1.1268,1.0484-1.672,2.1598-1.4032,2.8603,0.60442,1.5751,5.7049-4.3529,6.2983-7.3201zm-3.4475-59.589c-0.47588-6.1711-0.0468-7.4016,2.4255-6.9556,1.2455,0.2247,1.3569,3.9399,0.27608,9.2033-1.0869,5.2928-2.1909,4.3742-2.7016-2.2477zm-7.4716,4.1932c-0.79554-2.0732,0.041-5.8721,1.3475-6.1196,1.0771-0.20404,1.2734,0.32776,1.2734,3.4503,0,2.8299-0.26009,3.6915-1.1143,3.6915-0.61286,0-1.2908-0.45998-1.5065-1.0222zm28.206-3.9337c0.12478-2.5968,3.4708-13.963,4.1103-13.962,1.3665,0.001,7.7549,2.8448,7.6007,3.3827-0.20102,0.70148-2.6483,5.9044-4.5692,9.7141-1.1277,2.2366-1.6464,2.5635-4.2599,2.6843-2.7998,0.12942-2.9703,0.0218-2.8819-1.8191zm6.3663-3.9576c0.86337-2.101,1.8672-4.3585,2.2307-5.0166,0.52615-0.95253,0.26226-1.2727-1.2941-1.5702-1.0753-0.20555-2.1568-0.24901-2.4035-0.0966-0.24665,0.15243-1.0146,2.295-1.7066,4.7613-1.0392,3.7037-1.0885,4.5917-0.28334,5.102,1.5961,1.0117,1.8185,0.80714,3.4568-3.1799zm-48.321-0.53921c-0.54997-1.7328,0.0574-2.917,1.4961-2.917,0.67992,0,1.0485,0.76737,1.0485,2.1829,0,2.5149-1.8134,3.0381-2.5446,0.73415zm-28.298,66.865c1.8371-2.3187,1.8083-4.8719-0.0781-6.9074l-1.8226-1.9666-0.10718-17.539c-0.0873-14.278-0.21539-16.321-0.68929-10.99-0.32017,3.6018-0.72791,14.202-0.90611,23.557-0.22601,11.865-0.58079,17.167-1.1732,17.533-0.56802,0.3511-0.2325,0.9289,1.0133,1.7452,1.0244,0.6712,1.9106,1.7858,1.9695,2.4769s0.30441-0.5758,0.54572-2.8155,0.80289-4.5317,1.248-5.0934zm-159.28-2.6585c-0.16671-1.1005-0.30312-0.2001-0.30312,2.001s0.13641,3.1015,0.30312,2.001c0.16672-1.1006,0.16672-2.9015,0-4.002zm167.88-1.0203c0.53272-4.7086-0.16542-6.5568-1.7538-4.6428-1.0063,1.2125-1.6395,7.8471-0.97016,10.165,0.37842,1.3103,0.47074,1.3222,1.3137,0.1695,0.49866-0.682,1.1333-3.2432,1.4103-5.6916zm-96.983-5.9992c-0.8039-4.4434-1.4615-9.0612-1.4613-10.262,0.0005-3.466-1.2907-6.0463-3.1581-6.311-1.396-0.19791-1.7403-0.7852-2.0584-3.512-0.32524-2.7877-0.45925-2.301-0.90161,3.2743-0.79275,9.9915-0.55972,23.345,0.43005,24.642,0.46947,0.6153,2.4907,1.7212,4.4917,2.4577l3.6382,1.339,0.24056-1.7744c0.13231-0.976-0.41718-5.41-1.2211-9.8534zm66.873,10.453c1.318-0.7053,1.3771-1.4091,0.99294-11.824-0.42984-11.652-2.8204-25.223-4.2001-23.844-0.38231,0.38231-1.4525,3.6912-2.3781,7.3531l-1.683,6.658,1.753,6.0492c0.96413,3.327,1.7404,7.677,1.725,9.6666-0.0252,3.2625,1.001,6.6909,2.0029,6.6909,0.21232,0,1.0167-0.3375,1.7875-0.7501zm-17.065-11.859c0.21389-4.0707,0.38941-7.8924,0.39005-8.4926,0.00064-0.6003-1.2032-5.5118-2.6752-10.914-2.2328-8.1949-2.619-10.641-2.33-14.757,0.31985-4.5564,0.18618-5.1554-1.7456-7.822-2.1779-3.0065-3.3749-3.811-2.4023-1.6145,0.80586,1.8199,1.5356,9.4076,2.4474,25.449,0.43732,7.6938,1.3011,16.171,1.9196,18.837,0.61843,2.6666,0.93581,5.3399,0.70528,5.9407-0.23052,0.6007-0.003,2.042,0.50649,3.2027l0.92563,2.1105,0.9349-2.2689c0.51419-1.248,1.1099-5.5995,1.3238-9.6702zm53.041,5.3324c0.66905-1.2938,0.81751-2.1829,0.3645-2.1829-0.62818,0-2.1836,2.8844-2.1836,4.0493,0,0.9088,0.81794,0.07,1.8191-1.8664zm-5.6268-23.648c0.0168-5.9202-0.11006-6.8017-0.68061-4.7296-0.81184,2.9484-1.3861,21.111-0.7017,22.193,0.61346,0.9694,1.3567-8.4199,1.3823-17.463zm-10.19-20.73c-0.26633-1.5398-0.31731-1.5182-0.85672,0.36219-0.31544,1.0996-0.3169,2.5731-0.003,3.2743,0.50079,1.1196,0.60522,1.0754,0.85671-0.36218,0.15753-0.90045,0.15898-2.3739,0.003-3.2744zm-93.24-7.9708c-1.0542-1.7412-1.1969-1.2986-0.6468,2.0061,0.42667,2.5632,0.52761,2.6765,0.9379,1.0532,0.25288-1.0005,0.12188-2.3772-0.2911-3.0593zm52.387-22.211c-0.2418-0.24179-0.41376,0.18798-0.38217,0.95502,0.0349,0.84765,0.20733,1.0201,0.43961,0.43961,0.21019-0.52526,0.18434-1.1528-0.0574-1.3946z" fill="#000"/>
   <path id="path3677" d="m829.06,854.36c0,5.4685-3.134,10.678-8.8014,15.417-2.8337,2.3692-6.3008,4.6206-10.326,6.7277-4.0254,2.1071-0.89127,38.25-0.89127,38.25s-23.402-28.975-29.36-27.552c-5.9584,1.4235-12.325,2.6496-19.025,3.6517-13.399,2.0042-28.131,3.1125-43.595,3.1125s-30.196-1.1083-43.595-3.1125c-6.6997-1.0021-35.824,18.244-35.824,18.244s5.2904-24.94,0.22346-26.732c-10.134-3.5836-18.335-7.8509-24.002-12.589-5.6674-4.7384-8.8014-9.9481-8.8014-15.417,0-21.874,50.143-39.606,112-39.606,61.855,0,112,17.732,112,39.606z" stroke="#000" stroke-miterlimit="4" stroke-width="1.74249876" fill="none"/>
   <path id="path3858-1-0" stroke-linejoin="round" style="marker-start:none;" d="m684.08,842.91,6.7983,7.297c0.0651-0.0424,0.16507-0.10688,0.22067-0.14251,0.50716-0.3246,1.618-0.98083,2.4689-1.4546,15.816-8.769,35.165-7.8923,50.359,1.5726,0.67082,0.43234,1.6637,1.1094,2.2013,1.4957,0.17393,0.12504,0.4194,0.30741,0.64945,0.48032l7.2699-6.7732c-0.0717-0.0575-0.172-0.13491-0.23521-0.18475-0.56457-0.4447-1.5347-1.1771-2.1575-1.6248-0.6228-0.44774-1.7153-1.1858-2.4248-1.6408-17.656-11.364-40.203-12.129-58.802-2.8182-0.6952,0.35714-1.8243,0.9723-2.5116,1.3682-0.68729,0.39589-1.8208,1.0866-2.5176,1.5378-0.38417,0.24875-0.85937,0.57339-1.3186,0.88767zm13.584,14.58,6.9368,7.4456c0.1497-0.0724,0.312-0.15168,0.44532-0.21297,0.65792-0.30254,1.7224-0.73209,2.36-0.96188,7.6381-2.7761,15.894-2.0664,23.142,1.3218,0.41098,0.20305,0.99212,0.52073,1.4939,0.80426l7.4253-6.918c-0.30901-0.2088-0.61868-0.42417-0.88067-0.59302-11.316-7.484-27.319-7.0096-37.674-2.5741-0.61164,0.28132-1.5909,0.76608-2.1815,1.0858-0.29751,0.1611-0.68494,0.38177-1.0667,0.60256zm14.321,15.371,5.8416,6.2699,6.2835-5.8541c-0.43902-0.46233-0.80882-0.7949-1.1589-1.0406-2.8887-2.0116-6.1983-1.9668-9.2967-0.57714-0.50267,0.27072-0.93729,0.57435-1.4672,1.0262-0.0678,0.0576-0.13533,0.11614-0.20217,0.17585z" stroke-dashoffset="0" stroke="#000" stroke-linecap="round" stroke-miterlimit="4" stroke-dasharray="none" stroke-width="1.41951704" fill="none"/>
  </g>
 </g>
</svg>
