<?xml version="1.0" encoding="UTF-8" standalone="no"?>
<!-- Created with Inkscape (http://www.inkscape.org/) -->

<svg
   xmlns:dc="http://purl.org/dc/elements/1.1/"
   xmlns:cc="http://creativecommons.org/ns#"
   xmlns:rdf="http://www.w3.org/1999/02/22-rdf-syntax-ns#"
   xmlns:svg="http://www.w3.org/2000/svg"
   xmlns="http://www.w3.org/2000/svg"
   xmlns:xlink="http://www.w3.org/1999/xlink"
   xmlns:sodipodi="http://sodipodi.sourceforge.net/DTD/sodipodi-0.dtd"
   xmlns:inkscape="http://www.inkscape.org/namespaces/inkscape"
   width="200"
   height="200"
   id="svg4440"
   version="1.1"
   inkscape:version="0.48.3.1 r9886"
   sodipodi:docname="New document 2">
  <defs
     id="defs4442">
    <linearGradient
       gradientUnits="userSpaceOnUse"
       y2="99.5"
       x2="199.99986"
       y1="99.5"
       x1="-0.00012500001"
       id="linearGradient5328"
       xlink:href="#linearGradient5322"
       inkscape:collect="always" />
    <linearGradient
       id="linearGradient5322">
      <stop
         id="stop5324"
         offset="0"
         style="stop-color:#34c6cd;stop-opacity:1;" />
      <stop
         id="stop5326"
         offset="1"
         style="stop-color:#f2f2f2;stop-opacity:0;" />
    </linearGradient>
    <linearGradient
       gradientTransform="translate(246.28584,132.86218)"
       y2="99.5"
       x2="199.99986"
       y1="99.5"
       x1="-0.00012500001"
       gradientUnits="userSpaceOnUse"
       id="linearGradient4463"
       xlink:href="#linearGradient5322"
       inkscape:collect="always" />
  </defs>
  <sodipodi:namedview
     id="base"
     pagecolor="#ffffff"
     bordercolor="#666666"
     borderopacity="1.0"
     inkscape:pageopacity="0.0"
     inkscape:pageshadow="2"
     inkscape:zoom="1.979899"
     inkscape:cx="83.00751"
     inkscape:cy="100.11614"
     inkscape:document-units="px"
     inkscape:current-layer="layer1"
     showgrid="false"
     fit-margin-top="0"
     fit-margin-left="0"
     fit-margin-right="0"
     fit-margin-bottom="0"
     inkscape:window-width="1215"
     inkscape:window-height="776"
     inkscape:window-x="65"
     inkscape:window-y="24"
     inkscape:window-maximized="1" />
  <metadata
     id="metadata4445">
    <rdf:RDF>
      <cc:Work
         rdf:about="">
        <dc:format>image/svg+xml</dc:format>
        <dc:type
           rdf:resource="http://purl.org/dc/dcmitype/StillImage" />
        <dc:title></dc:title>
      </cc:Work>
    </rdf:RDF>
  </metadata>
  <g
     inkscape:label="Layer 1"
     inkscape:groupmode="layer"
     id="layer1"
     transform="translate(-246.28571,-132.36218)">
    <path
       inkscape:connector-curvature="0"
       id="path3858"
       d="m 446.28571,132.36218 -40.29099,0 c -0.0536,0.30945 -0.13861,0.78222 -0.18653,1.04458 -0.43701,2.39319 -1.55664,7.48404 -2.49952,11.30387 -0.94289,3.81982 -2.65575,9.81976 -3.80527,13.35571 -1.14951,3.53595 -3.10617,8.95076 -4.32755,12.01269 -1.22138,3.06191 -3.39394,8.04152 -4.81255,11.08001 -1.41858,3.0385 -3.76849,7.74239 -5.26021,10.44582 -1.49168,2.70342 -4.04568,7.01193 -5.63327,9.58776 -1.58759,2.57583 -4.45613,6.92009 -6.37942,9.66238 -1.92326,2.74229 -5.05999,6.96776 -6.9763,9.36393 -1.9163,2.39616 -4.69833,5.7623 -6.19286,7.4986 -1.49452,1.73626 -5.55303,6.00316 -9.02817,9.47583 -3.47512,3.47267 -8.5588,8.21569 -11.26655,10.52043 -2.70774,2.30473 -6.88559,5.6702 -9.28931,7.49861 -2.40375,1.82841 -6.42537,4.71882 -8.95355,6.41671 -2.52819,1.6979 -6.37281,4.14178 -8.54319,5.44674 -2.17033,1.30497 -6.09552,3.54129 -8.72972,4.96177 -2.6342,1.42051 -7.10645,3.65966 -9.92352,4.96176 -2.81706,1.3021 -7.5646,3.35417 -10.55773,4.55138 -2.99311,1.19725 -8.26512,3.09497 -11.71423,4.21564 -3.44915,1.12064 -8.81278,2.67725 -11.93808,3.46949 -3.1253,0.79225 -7.86072,1.86254 -10.48312,2.38762 -0.84866,0.16992 -2.06361,0.39316 -3.20836,0.59691 l 0,40.14176 c 0.36711,-0.054 0.87234,-0.13679 1.19381,-0.18653 2.8692,-0.44399 7.70577,-1.29484 10.74427,-1.90264 3.0385,-0.6078 8.22876,-1.80451 11.5277,-2.64875 3.29894,-0.84422 8.26469,-2.23714 11.04272,-3.09644 2.77807,-0.8593 6.75808,-2.13996 8.84163,-2.8726 2.08354,-0.73262 6.126,-2.26305 8.99086,-3.39488 2.86487,-1.13185 7.99807,-3.30685 11.37848,-4.84985 3.38043,-1.543 8.69551,-4.18547 11.82615,-5.85711 3.13063,-1.67167 8.19077,-4.52059 11.22925,-6.3421 3.03851,-1.82148 7.65486,-4.75192 10.25928,-6.49133 2.60443,-1.73941 6.89481,-4.76769 9.55046,-6.75247 2.65565,-1.98476 6.47356,-4.97506 8.50588,-6.64056 2.0323,-1.66547 5.53987,-4.67787 7.79704,-6.67785 2.25718,-1.99997 6.91028,-6.41365 10.29659,-9.81161 3.3863,-3.39794 7.94805,-8.22667 10.14735,-10.74426 2.19933,-2.51762 5.30307,-6.21069 6.90171,-8.20743 1.59864,-1.99672 4.10392,-5.27868 5.59597,-7.27476 1.49205,-1.99605 4.167,-5.75156 5.93172,-8.35665 1.76474,-2.6051 4.34683,-6.59661 5.7452,-8.87894 1.39839,-2.28231 3.56127,-5.92944 4.77523,-8.09551 1.21396,-2.16606 3.54749,-6.68812 5.2229,-10.03543 1.67543,-3.34732 3.90721,-7.96 4.92446,-10.25928 1.01726,-2.29928 2.75727,-6.48629 3.87987,-9.32662 1.12261,-2.84032 2.9056,-7.73088 3.95449,-10.85619 1.04891,-3.12529 2.61064,-8.19074 3.4695,-11.22924 0.85887,-3.0385 2.15008,-8.07016 2.8726,-11.19194 0.72253,-3.12178 1.80222,-8.37446 2.38762,-11.67693 0.32273,-1.82063 0.6718,-4.11925 1.00726,-6.3421 z m -80.50737,0 -41.11171,0 c -0.19973,0.64103 -0.411,1.33974 -0.59691,1.90263 -0.9176,2.77806 -2.5794,7.10746 -3.65603,9.62507 -1.07664,2.51761 -2.78558,6.2107 -3.84257,8.20743 -1.05701,1.99672 -2.82395,5.11319 -3.91718,6.90169 -1.09326,1.78851 -2.91413,4.55832 -4.0291,6.15557 -1.11495,1.59725 -3.02741,4.16972 -4.25294,5.70789 -1.22554,1.53817 -3.69406,4.41971 -5.48405,6.41672 -1.78997,1.99698 -4.86765,5.14603 -6.86439,6.9763 -1.99672,1.8303 -4.99108,4.41779 -6.64056,5.7452 -1.64947,1.32739 -4.23205,3.27115 -5.70789,4.32755 -1.47585,1.05639 -4.02112,2.76897 -5.67058,3.80526 -1.64947,1.03629 -4.59748,2.73267 -6.56594,3.80526 -1.96849,1.07258 -5.18741,2.69303 -7.12554,3.58142 -1.93817,0.88839 -5.32327,2.29591 -7.53591,3.13375 -1.73182,0.65575 -4.27136,1.49862 -6.49133,2.20108 l 0,40.9998 c 1.46836,-0.33848 2.9577,-0.66052 4.17833,-0.96996 2.77074,-0.70243 7.20206,-2.01402 9.8116,-2.8726 2.60955,-0.85856 6.70711,-2.3226 9.14009,-3.28296 2.43299,-0.96041 7.55868,-3.27517 11.37848,-5.1483 3.81985,-1.87314 9.23461,-4.80866 12.01268,-6.49133 2.77804,-1.68265 6.65839,-4.19274 8.6551,-5.59596 1.99673,-1.40324 5.13093,-3.70534 6.93901,-5.111 1.8081,-1.40562 5.0521,-4.09958 7.23746,-6.00634 2.18535,-1.90674 5.81833,-5.31286 8.0582,-7.57321 2.23989,-2.26033 5.53095,-5.82543 7.31207,-7.90897 1.78112,-2.08353 4.27723,-5.14032 5.55866,-6.78978 1.28146,-1.64947 3.20782,-4.19474 4.25294,-5.67059 1.04512,-1.47583 2.87853,-4.24566 4.10371,-6.15556 1.22519,-1.90992 3.21858,-5.19122 4.40216,-7.27476 1.18356,-2.08355 3.31271,-6.18841 4.73792,-9.14009 1.42522,-2.95168 3.40505,-7.44321 4.40217,-9.96082 0.99712,-2.51761 2.50453,-6.7067 3.35758,-9.28932 0.85305,-2.58261 2.11692,-6.8123 2.79798,-9.43853 0.3431,-1.32301 0.75789,-3.07588 1.15649,-4.81254 z m -84.87221,0 -34.62042,0 0,34.69502 c 2.57557,-0.0246 4.577,-0.20027 6.26749,-0.5596 1.47587,-0.3137 3.78209,-0.95771 5.1483,-1.45495 1.36622,-0.49725 3.4373,-1.42122 4.58869,-2.05185 1.15138,-0.63065 2.95002,-1.75739 3.9918,-2.49954 1.04177,-0.74214 2.81691,-2.24589 3.95449,-3.35758 1.1376,-1.11169 2.81177,-3.0432 3.73064,-4.25294 0.91889,-1.20974 2.46218,-3.76067 3.39489,-5.67058 0.94664,-1.93845 2.03838,-4.84102 2.49954,-6.60325 0.58393,-2.23134 0.88357,-4.35212 1.00727,-7.16284 0.0159,-0.35975 0.0296,-0.71979 0.0374,-1.08189 z"
       style="fill:url(#linearGradient4463);fill-opacity:1;enable-background:new" />
  </g>
</svg>
