<?xml version="1.0" encoding="UTF-8" standalone="no"?>
<!-- Created with Inkscape (http://www.inkscape.org/) -->
<svg id="svg3532" xmlns:rdf="http://www.w3.org/1999/02/22-rdf-syntax-ns#" xmlns="http://www.w3.org/2000/svg" height="192.51" width="140.5" version="1.1" xmlns:cc="http://creativecommons.org/ns#" xmlns:dc="http://purl.org/dc/elements/1.1/">
 <metadata id="metadata3537">
  <rdf:RDF>
   <cc:Work rdf:about="">
    <dc:format>image/svg+xml</dc:format>
    <dc:type rdf:resource="http://purl.org/dc/dcmitype/StillImage"/>
    <dc:title/>
   </cc:Work>
  </rdf:RDF>
 </metadata>
 <g id="layer1" transform="translate(-302.63099,-406.13224)">
  <path id="path7570" fill="#000" d="m356.8,590.84c-2.8951-18.31-6.3188-31.85-8.3988-38.667-5.829-19.103-7.1586-22.334-23.318-45.515-13.57-19.466-18.746-26.847-20.365-34.687-0.44322-2.1458-3.5755-0.93211-1.2101-3.4421l1.0479-1.112-0.38001-1.231c-0.82011-2.6567-0.0288-4.3426,3.8851-8.2776,4.2483-4.2711,9.1632-8.4257,25.363-21.44,20.046-16.103,27.728-22.721,31.181-26.862,0.91489-1.0969,1.8409-1.9943,2.0579-1.9943,0.21693,0,0.6478,0.23802,0.95747,0.52896l0.56306,0.52896,1.0215-0.92283c1.0289-0.92958,2.3359-1.6149,3.0799-1.6149,0.22122,0,0.77972,0.17916,1.2411,0.39803,0.77193,0.36636,0.90571,0.36636,1.6777,0,1.2002-0.56949,2.3105-0.49994,3.2314,0.20239,0.74326,0.5669,0.84102,0.58134,1.7497,0.2575,1.1045-0.39361,3.2077-0.47583,3.4192-0.13365,0.0785,0.12697,0.46644,1.3201,0.8621,2.6512,1.1341,3.8159,2.6389,7.4812,5.0943,12.409,3.5824,7.1894,6.4196,11.784,16.142,26.143,12.297,18.161,17.477,27.155,19.876,34.509,0.59369,1.8207,2.8473,10.366,5.0079,18.991,5.5501,22.153,7.8651,30.033,11.112,37.825,0.83194,1.9963,1.4768,3.8139,1.433,4.0393-0.0438,0.22534-0.85859,0.80771-1.8107,1.2943-0.9521,0.48651-2.2491,1.259-2.8823,1.7167l-1.1512,0.8321,0.50275,1.2642c0.88719,2.231,0.94574,2.4006,0.94574,2.7396,0,0.1833-3.0464,0.54455-4.1655,1.3235-4.4863,3.1231-8.9298,6.1014-19.624,15.402-11.745,10.214-15.906,13.938-22.008,16.96-13.323,6.5997-23.66,12.785-33.628,13.685l-1.8586-3.6679zm9.464,2.5002c9.2842-1.5951,19.778-6.5201,31.031-14.564,7.0522-5.0407,12.377-9.4649,24.177-20.09,12.575-11.322,14.907-13.257,18.189-15.097,0.8478-0.47515,1.5415-0.91537,1.5415-0.97824,0-0.063-0.17778-0.45813-0.39503-0.87831-0.78706-1.522-2.7845-6.8252-4.1155-10.927-2.0667-6.3685-4.0334-13.635-7.9608-29.413-4.8781-19.598-5.612-21.763-10.092-29.778-3.0583-5.4715-5.7717-9.7237-14.787-23.173-9.3836-13.999-12.253-18.641-15.554-25.167-2.4827-4.9079-4.0014-8.5445-5.1974-12.446-0.4352-1.4195-0.92219-2.6246-1.0822-2.6779-0.74762-0.24918-2.6687,0.87005-4.554,2.6532-7.4128,7.0113-23.288,20.094-31.592,26.036-9.0857,6.5008-12.304,8.5929-18.122,11.78-0.88171,0.48312-2.7677,1.8036-4.1911,2.9344-4.3995,3.4954-10.713,8.1596-12.868,9.5066-1.1303,0.70655-2.6655,1.4401-3.4116,1.6301-1.837,0.46785-2.0205,0.98449-1.2634,3.5579,1.6878,5.7367,6.4132,13.677,22.569,37.921,13.247,19.879,14.586,22.085,15.902,26.206,4.8802,15.271,11.396,39.175,15.679,57.526,0.61739,2.6451,1.1808,5.059,1.252,5.3641,0.16654,0.7137,1.0419,0.7272,4.8432,0.074zm1.3217-4.4479c-0.20665-0.3345,0.638-0.8213,7.1148-4.1009,4.0244-2.0378,5.7132-2.7785,5.9027-2.5891,0.146,0.1461,0.21734,0.3104,0.15857,0.3653-0.0588,0.055-2.2156,1.155-4.7929,2.4448-2.5773,1.2896-5.3903,2.745-6.2512,3.2338-1.6806,0.9544-1.9003,1.021-2.132,0.6461zm-2.2153-2.9526c-0.19211-0.3108,0.13421-0.5144,7.3701-4.5984,3.7233-2.1014,6.282-3.4053,6.424-3.2734,0.1481,0.1373,0.10215,0.3414-0.12331,0.5478-0.36899,0.3376-13.168,7.5597-13.398,7.5597-0.0701,0-0.19313-0.1061-0.27328-0.2357zm18.759-2.3001c-0.42217-0.6613-2.2321-5.6483-3.7208-10.252-1.7892-5.5327-3.4338-11.59-6.5732-24.207-5.4413-21.869-8.2128-30.33-13.191-40.271-4.1168-8.2206-7.9001-14.106-18.585-28.909-6.522-9.0362-7.9612-11.162-7.7685-11.474,0.3479-0.56296,0.91707-0.1344,2.0546,1.5469,0.66537,0.98346,3.9004,5.5061,7.1888,10.05,9.4981,13.125,13.375,19.149,17.537,27.253,5.5268,10.761,8.1809,18.616,13.542,40.078,4.3862,17.558,7.1189,27.01,9.7326,33.664,0.47922,1.2199,0.87132,2.3456,0.87132,2.5016,0,0.5572-0.73654,0.5709-1.0881,0.02zm-18.889-1.4022c0-0.6546,5.4468-4.1293,9.742-6.2145,3.0645-1.4877,3.8228-1.6999,3.8228-1.0693,0,0.2036-0.13873,0.3701-0.30829,0.3702-0.73507,0-6.9738,3.299-9.723,5.1409-2.9235,1.9585-3.5334,2.2645-3.5334,1.7727zm23.43-1.7203c0-0.1278,1.3596-1.1438,3.0213-2.2577,3.3866-2.2701,8.5672-6.0857,11.13-8.1971,1.7401-1.4339,1.9936-1.5659,2.2401-1.1669,0.24295,0.3931-6.2396,5.4629-12.111,9.472-3.2377,2.2105-4.2799,2.7341-4.2799,2.1497zm-1.9616-1.309c0.006-0.1695,1.8603-1.5846,4.1199-3.1446,2.2597-1.5599,5.7944-4.0847,7.855-5.6107,2.0606-1.5261,3.8691-2.7747,4.0189-2.7747,0.71274,0,0.0645,0.7554-1.896,2.2095-6.3805,4.7323-13.424,9.6288-13.852,9.6288-0.14178,0-0.2526-0.1387-0.24627-0.3083zm-22.455-1.2965c0-1.0725,12.719-7.7142,13.429-7.0123,0.32954,0.3259,0.0106,0.5531-1.7141,1.2214-2.3792,0.9217-6.2186,2.8985-8.9179,4.5912-1.378,0.8642-2.5711,1.5713-2.6513,1.5713s-0.1458-0.1672-0.1458-0.3716zm20.717-2.4647c-1.2316-2.745-3.3817-8.6762-3.198-8.8219,0.0633-0.051,2.3752-1.3425,5.1375-2.8716,2.7623-1.529,6.947-3.9246,9.2993-5.3237,3.006-1.7878,4.3401-2.459,4.4892-2.2585,0.11671,0.15688,0.52188,1.2285,0.90039,2.3815,0.37851,1.1531,1.0648,2.8666,1.5253,3.8081,0.46039,0.9413,0.83707,1.7961,0.83707,1.8993,0,0.3795-17.576,12.79-18.113,12.79-0.0869,0-0.4817-0.7214-0.8773-1.6032zm14.366-8.5984c2.0008-1.4612,3.6378-2.7217,3.6378-2.8012,0-0.08-0.29445-0.7655-0.65434-1.5247-0.35988-0.7591-0.95816-2.2467-1.3295-3.3058-0.37135-1.0591-0.73181-1.9822-0.80103-2.0513-0.0692-0.0692-2.2733,1.141-4.898,2.6895-2.6246,1.5485-6.5592,3.7994-8.7434,5.002l-3.9713,2.1866,0.72019,1.9821c0.39612,1.0901,1.1707,3.1166,1.7213,4.5033l1.0011,2.5212,4.8397-3.2724c2.6618-1.7998,6.4767-4.4681,8.4775-5.9293zm-36.911,8.511c-0.19826-0.3207,0.69296-1.0394,3.8006-3.0644,3.2423-2.1129,9.5963-5.6035,10.2-5.6035,0.87194,0,0.31411,0.5162-1.7529,1.6219-4.0211,2.1511-7.3291,4.1103-9.6014,5.6864-2.4009,1.6653-2.4438,1.6874-2.6464,1.3596zm-1.8719-4.4733c0-0.6356,7.1893-5.3935,10.464-6.9255,2.4779-1.1591,3.3472-1.3981,3.3472-0.9205,0,0.2027-0.80062,0.6756-1.9163,1.1316-2.3943,0.9791-6.1606,3.1961-9.0507,5.3279-2.1199,1.5638-2.8444,1.9168-2.8444,1.3865zm45.511-3.2908c-0.84066-1.9009-3.1596-8.7327-4.4375-13.074-1.2604-4.281-2.9576-10.99-4.9388-19.522-3.6149-15.568-6.1627-23.725-9.3018-29.78-0.93856-1.8102-1.0861-2.815-0.38158-2.5991,0.46337,0.14211,2.4797,4.1122,3.856,7.5922,2.4443,6.181,3.8832,11.393,8.5455,30.952,2.4784,10.397,4.5836,17.613,7.0286,24.092,0.66889,1.7724,1.1562,3.3196,1.0828,3.4383-0.33955,0.5494-0.91711,0.1122-1.4532-1.1001zm-46.141,0.3079c-0.20373-0.3296-0.29337-0.2486,2.8144-2.5443,4.023-2.9716,11.109-7.0028,11.685-6.6471,0.45319,0.2801,0.0866,0.6221-1.3794,1.2868-2.9576,1.341-7.99,4.4775-11.19,6.9742-1.6837,1.3136-1.691,1.3171-1.93,0.9304zm19.903-3.6163c-1.0626-2.0104-6.4554-23.277-7.6955-30.347-0.26779-1.5266-0.26261-1.8486,0.0342-2.1246,0.1924-0.17887,4.5117-2.9058,9.5985-6.0599,5.0868-3.154,9.424-5.8881,9.6381-6.0758,0.21416-0.18768,0.45495-0.34122,0.5351-0.34122,0.41577,0,1.4053,4.0564,3.7603,15.414,1.2513,6.0349,1.9569,8.821,2.9981,11.838,0.74894,2.1703,1.4525,4.2412,1.5634,4.602,0.18984,0.61714,0.0688,0.74883-2.056,2.2365-4.9165,3.4422-17.386,11.289-17.94,11.289-0.11445,0-0.31072-0.1942-0.43621-0.4316zm9.9006-6.8815c4.912-3.0727,9.0338-5.6783,9.1596-5.7903,0.13691-0.12194-0.17952-1.4186-0.78826-3.2305-1.3885-4.1326-2.926-10.216-4.879-19.305-0.90361-4.2051-1.7244-7.7334-1.8239-7.8405-0.12753-0.13734-17.688,10.839-18.462,11.539-0.18142,0.16424,7.5665,30.213,7.7902,30.213,0.0397,0,4.0911-2.514,9.003-5.5867zm-30.744,6.6271c-0.21955-0.3552,0.163-0.6919,2.9263-2.5748,4.5956-3.1315,10.749-6.5265,11.259-6.2116,0.4648,0.28715,0.12585,0.57856-1.6599,1.4265-2.5176,1.1957-6.0897,3.3017-9.2291,5.4414-3.2609,2.2225-3.1486,2.1571-3.2962,1.9184zm51.488-0.095c-0.19978-0.3232,0.38787-0.8815,4.0947-3.8896,2.7387-2.2226,6.2344-4.7016,6.6298-4.7016,0.75478,0,0.0762,0.77579-1.7339,1.9823-1.1054,0.73698-3.424,2.5204-5.1524,3.9636-3.6991,3.0886-3.6045,3.0235-3.8382,2.6453zm-1.5247-3.6944c0.0518-0.1555,1.1986-0.9763,2.5485-1.8241,2.0616-1.2946,5.726-3.9462,8.1433-5.8925,0.66147-0.53254,1.0934-0.3432,0.69277,0.30364-0.41218,0.66564-5.3945,4.3658-8.2227,6.1067-2.5007,1.5393-3.3576,1.8932-3.1619,1.3062zm-51.056-0.2383c0.19267-0.578,13.191-8.6009,14.091-8.6972,0.79894-0.0851,0.31709,0.55505-0.97366,1.2943-3.3926,1.943-7.0613,4.1686-9.6651,5.8633-2.625,1.7084-3.6624,2.1711-3.4519,1.5396zm49.276-2.4693c0-0.7984,10.034-8.6016,11.06-8.6016,0.62557,0,0.22896,0.68045-0.70138,1.2033-1.5141,0.8509-4.8002,3.3343-7.4313,5.6158-2.289,1.985-2.9275,2.3737-2.9275,1.7824zm-48.34-1.2861c0-0.47259,11.896-8.7954,12.571-8.7954,0.79771,0-0.0985,0.84212-2.756,2.5897-1.6503,1.0852-4.4454,2.9996-6.2115,4.2545-1.7661,1.2547-3.2994,2.2812-3.4072,2.2812-0.10791,0-0.19621-0.14845-0.19621-0.32998zm63.938-0.71815c-0.96124-1.2008-9.1677-28.829-8.8269-29.717,0.0732-0.19067,0.31256-0.31075,0.53197-0.26676,0.29435,0.0594,0.7699,1.4374,1.8142,5.2591,1.7789,6.5101,3.5132,12.289,5.7178,19.053,0.94803,2.9086,1.6639,5.444,1.5909,5.6343-0.16447,0.4286-0.50268,0.44412-0.82792,0.0372zm-16.59-1.73c0.006-0.52562,10.102-7.8306,10.822-7.8306,0.78343,0,0.25699,0.59328-1.6443,1.8532-1.1837,0.7843-3.6238,2.5195-5.4226,3.8559-1.7987,1.3364-3.3802,2.4298-3.5145,2.4298-0.13425,0-0.24245-0.1387-0.2404-0.30826zm-50.924-3.4735c-0.61527-1.9442-1.1187-3.6459-1.1187-3.7813,0-0.35482,2.467-2.1358,5.1492-3.7174,2.0272-1.1953,9.1424-4.7507,9.5074-4.7507,0.36569,0,1.8678,5.2876,1.8678,6.5748,0,0.3534-0.81456,0.90048-3.2601,2.1891-3.6471,1.9218-7.6244,4.475-9.356,6.0059-0.63122,0.55807-1.2654,1.0147-1.4093,1.0147-0.14389,0-0.76504-1.5909-1.3803-3.5352zm6.452-1.0786c1.1118-0.7256,3.4147-2.0464,5.1176-2.9353,1.7029-0.88886,3.0962-1.6826,3.0962-1.7639,0-0.67283-1.3297-5.485-1.5156-5.485-0.13171,0-2.1099,0.94481-4.3959,2.0997-3.9407,1.9907-8.1726,4.5483-8.8072,5.3226-0.22915,0.27979-0.0831,0.99252,0.68944,3.3657l0.98017,3.0108,1.4069-1.1477c0.77383-0.63123,2.3166-1.7414,3.4284-2.4669zm63.571,2.3749c-0.2086-0.33752,1.6424-2.2596,4.9445-5.1344,3.8299-3.3342,4.5345-3.852,4.834-3.5526,0.18538,0.18543-0.37669,0.79441-1.9159,2.0759-1.198,0.99749-3.4189,2.955-4.9353,4.3501-1.7028,1.5667-2.8222,2.4312-2.9274,2.261zm-21.164-0.89178c-0.0867-0.0869-0.15772-0.25177-0.15772-0.36679,0-0.21115,12.095-8.3409,12.409-8.3409,0.0933,0,0.16953,0.16539,0.16953,0.36749,0,0.20566-2.5796,2.0862-5.8575,4.2703-6.9093,4.6035-6.3662,4.2667-6.563,4.0699zm19.573-1.366c0-0.33549,9.9555-8.4356,10.736-8.7351,0.21428-0.0825,0.36248,0.009,0.36248,0.21195,0,0.34391-9.8987,8.4195-10.694,8.7249-0.25956,0.0996-0.40409,0.0275-0.40409-0.20175zm-0.97649-1.7261c-0.85924-2.088-4.447-13.974-4.3432-14.389,0.0823-0.32865,1.9591-1.7303,5.2518-3.922,2.8181-1.8759,5.7709-3.9065,6.5617-4.5126,0.92586-0.70945,1.5228-1.0169,1.6764-0.86331,0.81744,0.81747,5.0033,12.428,4.8539,13.463-0.13674,0.94756-10.724,9.5106-12.864,10.405-0.87747,0.36661-0.91298,0.36093-1.136-0.18109zm6.9426-5.7784c3.5456-2.9904,5.7426-5.0119,5.7324-5.2742-0.0248-0.6401-3.9012-11.084-4.1145-11.086-0.13486,0-10.768,7.2132-11.511,7.8096-0.18651,0.14978,0.46297,2.5788,2.1474,8.0308,0.91074,2.948,1.7325,5.3619,1.8261,5.3643,0.0936,0,2.7572-2.1776,5.9192-4.8445zm-27.421,5.2804c0.006-0.95865,11.838-8.9139,12.409-8.3432,0.31997,0.31997,0.5455,0.14145-2.6688,2.1123-3.1848,1.9529-5.2925,3.4069-7.5708,5.2228-1.6734,1.3338-2.1728,1.5659-2.1692,1.0081zm-46.855-3.6994c0.0116-0.49661,11.307-8.0772,12.036-8.0772,0.82374,0,0.009,0.77481-2.2482,2.1377-1.3855,0.83662-4.0573,2.5846-5.9371,3.8845-1.8799,1.2998-3.5169,2.3633-3.6378,2.3633-0.12092,0-0.21661-0.1387-0.21269-0.30826zm46.113-0.26001c0-0.20601,0.84375-1.0096,1.875-1.7857,2.3748-1.7874,10.221-6.7715,10.661-6.7715,0.8236,0-0.1855,0.80549-4.4149,3.524-2.4994,1.6066-5.1917,3.4202-5.9829,4.0301-1.6998,1.3106-2.1377,1.516-2.1377,1.003zm-48.485-1.9334c-0.35535-0.57492,6.2558-5.8029,10.545-8.3391,2.6812-1.5853,2.9178-1.6794,2.9178-1.16,0,0.18188-0.58265,0.64684-1.2948,1.0333-0.71215,0.38638-2.4951,1.5126-3.9621,2.5027-2.3396,1.5791-3.4308,2.4238-7.2008,5.5751-0.58861,0.49192-0.87345,0.60188-1.0056,0.38798zm46.522-1.506c0.0217-0.66307,13.068-9.557,14.018-9.557,0.679,0,0.14663,0.59124-1.3887,1.5424-2.5652,1.5892-8.1979,5.4106-10.236,6.9444-1.8406,1.3853-2.4128,1.6412-2.3941,1.0703zm-47.009-2.43c-0.21672-0.35065,0.34351-0.84531,4.7017-4.1512,4.3579-3.3057,8.2757-5.7749,8.6164-5.4303,0.18602,0.18827,0.12101,0.34524-0.22337,0.53936-1.6661,0.93923-7.5571,5.0529-9.7449,6.8048-1.4268,1.1426-2.7231,2.18-2.8806,2.3054-0.18171,0.14464-0.35315,0.11972-0.46921-0.0683zm46.399-0.68737c-0.0746-0.1207,1.4449-1.1919,3.3766-2.3805,1.9317-1.1887,5.1991-3.3082,7.2608-4.7101s3.8163-2.4394,3.899-2.3055c0.0827,0.13391,0.0836,0.35154,0.003,0.48367-0.365,0.59062-13.627,9.1319-14.179,9.1319-0.12288,0-0.28442-0.0988-0.359-0.21949zm-47.247-2.8334c0-0.35188,1.8196-2.0134,4.8093-4.3916,1.8061-1.4367,7.116-5.1339,7.3734-5.1339,0.0819,0,0.14895,0.15076,0.14895,0.33504s-0.63817,0.75663-1.4182,1.2719c-2.3401,1.5459-5.7834,4.1498-8.2854,6.2654-1.2963,1.0962-2.4178,1.9929-2.4925,1.9929-0.0746,0-0.13566-0.15288-0.13566-0.33983zm47.104-2.5439c-0.15978-0.78776-0.43798-2.1503-0.61817-3.0277-0.18021-0.87759-0.28188-1.6695-0.22594-1.7601,0.15415-0.24938,12.088-8.236,16.015-10.718,6.5121-4.1156,13.022-7.9838,13.225-7.8584,0.31341,0.19367,1.1381,3.0565,1.2374,4.2955l0.0888,1.1079-1.5517,0.98843c-7.29,4.6437-12.671,8.201-19.41,12.831-4.3398,2.9818-8.0209,5.4555-8.1801,5.4973-0.17491,0.0452-0.40453-0.49112-0.58007-1.3565zm15.541-9.6279c4.4086-2.9544,9.2055-6.0925,10.66-6.9735,2.5596-1.5506,2.6441-1.6295,2.6362-2.4651-0.004-0.4748-0.19557-1.4418-0.42467-2.1489l-0.41653-1.2858-4.5627,2.7755c-8.3567,5.0835-22.936,14.611-23.328,15.244-0.082,0.13276,0.0469,1.2829,0.28668,2.5556l0.43587,2.3142,3.3487-2.3225c1.8418-1.2773,6.9557-4.7396,11.364-7.6939zm-64.618,9.1066c0-0.74972,12.297-10.16,13.276-10.16,0.71997,0,0.0969,0.59864-2.3617,2.269-2.8573,1.9412-6.6276,4.8726-8.8164,6.8547-1.2422,1.125-2.0982,1.5477-2.0982,1.0361zm68.564-0.8494c0.003-0.87112,11.655-8.9173,12.17-8.4026,0.33293,0.33291,0.11459,0.54308-1.6271,1.5662-2.3946,1.4067-5.2756,3.4056-7.8648,5.4568-2.12,1.6795-2.6792,1.9675-2.6782,1.3796zm-43.267-3.0858c-0.32238-0.32236-0.044-0.62618,1.8937-2.0671,2.694-2.0032,10.433-7.1171,10.771-7.1171,0.84805,0-0.15804,0.88121-3.3787,2.9594-1.997,1.2886-4.8714,3.248-6.3877,4.3543-1.5163,1.1064-2.8204,1.9481-2.898,1.8705zm-25.791-0.52916c0-0.77065,11.313-9.3949,12.323-9.3949,0.70592,0,0.0704,0.7278-1.4599,1.6718-2.1566,1.3305-6.5377,4.6135-8.6768,6.5022-1.5508,1.3692-2.1867,1.7243-2.1867,1.2209zm69.361-0.0842c0.1038-0.32573,10.723-7.8306,11.08-7.8306,0.11456,0,0.20831,0.15865,0.20831,0.35252s-1.526,1.3962-3.3912,2.6718-4.2783,2.9483-5.3626,3.7169c-1.9244,1.3644-2.7326,1.7117-2.5342,1.0894zm-22.254-1.1535c0-0.67646,30.025-20.489,31.05-20.489,0.81854,0-0.23075,0.82338-4.1867,3.2854-4.8952,3.0465-15.863,10.293-22.026,14.553-3.9009,2.6964-4.8374,3.2094-4.8374,2.6502zm19.484-0.33424c0-0.35056,5.2051-3.9957,10.429-7.3032,2.8354-1.7954,3.1362-1.9333,3.1362-1.4379,0,0.20306-1.5177,1.3344-3.3912,2.528-1.8652,1.1882-4.7569,3.0938-6.4262,4.2345-3.4062,2.3279-3.7474,2.508-3.7474,1.9786zm-69.304-1.0137c0-0.9481,13.302-10.887,13.702-10.239,0.20328,0.3289,0.2691,0.27276-2.7273,2.3252-3.1372,2.1487-5.8233,4.1806-8.5375,6.4579-1.1793,0.98942-2.2102,1.799-2.2909,1.799s-0.14673-0.15448-0.14673-0.34337zm28.48-1.3933c-0.23696-0.38341,0.43264-1.0436,3.0892-3.0458,2.5244-1.9026,8.3623-5.5761,8.8615-5.5761,0.76171,0-0.11999,0.75382-2.8378,2.4261-3.283,2.0202-6.2944,4.1324-7.8889,5.533-0.65994,0.57971-1.121,0.82935-1.2241,0.66271zm22.437-1.9843c-0.18948-0.30654-0.28827-0.20661,1.9863-2.0092,3.7294-2.9554,9.6671-6.5941,10.083-6.1786,0.34722,0.34722,0.0694,0.59947-1.5677,1.4239-2.0401,1.0274-5.5424,3.3701-8.2226,5.5002-1.0601,0.84252-1.9692,1.5319-2.0202,1.5319s-0.16717-0.12064-0.25831-0.26812zm-51.903-0.54803c0-0.3336,1.4107-1.6051,4.1928-3.779,2.5793-2.0155,8.42-6.01,8.7877-6.01,0.76119,0,0.21911,0.55996-1.9436,2.0077-3.0424,2.0365-6.5453,4.6238-8.8532,6.5392-1.9873,1.6493-2.1835,1.7609-2.1835,1.2422zm27.734-1.6693c-0.20029-0.32405-0.52161-0.0552,3.0948-2.5879,1.6956-1.1874,4.4278-3.1915,6.0715-4.4536,2.6898-2.0652,3.3006-2.3974,3.3006-1.7953,0,0.30116-9.0798,7.0711-11.64,8.6792-0.4395,0.27602-0.72001,0.3295-0.82628,0.15756zm-29.652-1.5223c0.29535-0.94762,13.179-10.48,13.598-10.06,0.13674,0.13672,0.20055,0.2891,0.14179,0.33863-0.0588,0.0498-1.7162,1.2353-3.6831,2.635-1.9669,1.3998-4.942,3.6363-6.6114,4.97-2.9166,2.3303-3.6531,2.7828-3.4456,2.1168zm52.971-0.0613c0-0.20313,0.91562-1.0997,2.0347-1.9923,2.3786-1.8974,8.8402-6.2705,9.265-6.2705,0.84536,0-0.0452,0.82146-2.8625,2.6404-1.724,1.1131-4.2768,2.9166-5.6727,4.0078-1.396,1.0912-2.589,1.9839-2.6513,1.9839s-0.1132-0.16614-0.1132-0.36928zm-24.907-2.4053c0.003-0.16955,0.63977-0.74552,1.4181-1.2798,0.77839-0.53434,3.5656-2.5681,6.1938-4.5195,3.1052-2.3055,4.8628-3.4636,5.0191-3.3073,0.23166,0.23168-4.6648,4.0768-10.015,7.8645-2.2564,1.5975-2.6215,1.7708-2.6164,1.2422zm23.92-0.54136c0-0.87535,10.397-9.0157,11.515-9.0157,0.71772,0,0.22926,0.54156-1.5877,1.7603-2.7059,1.8151-4.5193,3.2068-7.246,5.561-1.3063,1.1279-2.4439,2.0506-2.528,2.0506s-0.15292-0.16035-0.15292-0.35634zm-54.506-0.11035c0-0.27528,2.3198-2.4316,4.7678-4.432,2.5199-2.0591,8.7806-6.4464,9.1991-6.4464,0.76101,0,0.21931,0.55989-1.9436,2.0088-3.8739,2.595-9.5215,7.0369-10.89,8.565-0.47581,0.53129-1.1333,0.70792-1.1333,0.30451zm69.669-0.33482c-0.062-0.16955-0.56232-3.2278-1.1118-6.7961-2.0689-13.435-3.9115-20.131-7.4179-26.958-1.587-3.0896-5.9638-9.6686-11.55-17.361-10.833-14.918-16.541-23.094-16.541-23.692,0-0.16628,0.16226-0.36465,0.36055-0.44073,0.254-0.0974,1.142,1.0061,3.005,3.7348,2.8544,4.1805,6.8778,9.8233,13.664,19.164,5.9969,8.254,10.476,15.023,12.242,18.5,2.5373,4.9968,4.3072,10.342,5.7388,17.33,0.93056,4.5428,2.7591,16.323,2.5789,16.615-0.19652,0.31792-0.84124,0.25321-0.96944-0.0973zm-44.322-2.6978c-0.74122-1.5344-1.9752-3.7224-2.7422-4.8623-0.76699-1.1399-1.3945-2.1628-1.3945-2.2731,0-0.39537,33.599-26.114,34.635-26.511,0.75198-0.28856,3.5886,3.8871,4.8335,7.1151,1.2828,3.3264,1.3433,3.0783-1.1584,4.7405-6.4468,4.2831-16.676,11.899-25.968,19.334-3.453,2.763-6.4086,5.0738-6.5682,5.135-0.17219,0.0661-0.83787-1.0226-1.6378-2.6784zm7.3868-2.7325c9.108-7.305,17.922-13.884,25.66-19.154,1.2567-0.8558,2.3407-1.6463,2.4089-1.7565,0.35061-0.56732-2.2805-6.1357-3.8186-8.0815l-1.0188-1.2889-7.5738,5.7227c-6.2394,4.7144-18.693,14.252-25.003,19.148l-1.3979,1.0847,1.4851,2.2575c0.81681,1.2416,1.9453,3.2275,2.5078,4.4131,0.56247,1.1856,1.0474,2.1567,1.0777,2.158,0.0302,0,2.5829-2.0251,5.6726-4.5031zm-34.076,2.0617c-0.14569-0.23569,2.2564-2.4493,5.1653-4.76,2.5619-2.0351,7.5319-5.6213,7.7904-5.6213,0.75375,0-0.20709,0.91432-3.2986,3.1387-1.9279,1.3872-4.8077,3.6346-6.3996,4.9944-1.5919,1.3597-2.9449,2.4722-3.0067,2.4722s-0.17464-0.10082-0.25076-0.22399zm55.489-0.25205c-0.485-0.78475,10.892-9.0674,11.55-8.409,0.30061,0.30062,0.45106,0.17405-2.0655,1.7376-2.4985,1.5523-6.0524,4.1569-7.8471,5.7508-1.4033,1.2463-1.4278,1.2601-1.6376,0.92051zm-58.339-2.2778c0-0.43992,3.7092-3.9529,6.2456-5.9153,3.1622-2.4466,6.9909-5.1422,7.3035-5.1422,0.72125,0,0.0446,0.75138-1.7766,1.9731-3.126,2.0968-7.2268,5.3529-9.396,7.4606-1.9445,1.8893-2.3764,2.1845-2.3764,1.6239zm80.313-0.13017c-0.33887-0.3389-0.0656-0.5855,2.6169-2.3607,3.2599-2.1573,4.9272-3.1408,5.3243-3.1408,0.62291,0,0.22949,0.53891-0.85972,1.1775-0.63049,0.36976-2.323,1.454-3.7611,2.4097-3.318,2.2048-3.1351,2.0994-3.3203,1.9142zm-23.45-0.54613c-0.14498-0.23461,2.2303-2.4255,5.1653-4.7644,1.9254-1.5344,6.4818-4.6303,6.8144-4.6303,0.67676,0-0.0293,0.77045-1.695,1.8498-2.219,1.4377-5.9035,4.2676-8.2353,6.3252-1.7172,1.5154-1.8265,1.5803-2.0494,1.2198zm20.935-2.019c-0.21044-0.34054,0.51655-0.95459,3.7139-3.1367,2.8412-1.9391,5.1303-3.2524,5.6688-3.2524,0.77231,0,0.3211,0.47991-1.2911,1.3733-1.9712,1.0924-4.969,3.0569-6.3508,4.1618-1.3505,1.0799-1.5429,1.1743-1.7408,0.85404zm-80.018-0.68333c0-0.88332,4.5902-4.7114,9.8435-8.2092,2.7562-1.8351,4.128-2.6146,4.2996-2.4429,0.30726,0.30722,0.60535,0.0668-2.8688,2.318-3.7988,2.4621-7.3389,5.1551-9.2493,7.036-1.4437,1.4216-2.025,1.7941-2.025,1.298zm56.838-0.29735c-0.0925-0.14973-0.0725-0.35184,0.0446-0.44918,0.11701-0.0973,0.98969-0.84688,1.9392-1.6656,4.8806-4.208,11.32-8.7203,11.783-8.2571,0.14799,0.14803,0.22098,0.30716,0.16221,0.35368-0.0588,0.0463-1.2167,0.80662-2.5732,1.6893-2.6572,1.7289-6.4277,4.599-9.0021,6.8522-1.9429,1.7006-2.1393,1.8237-2.3538,1.4766zm-59.551-2.4369c0-0.73216,12.84-11.107,13.75-11.11,0.54301,0,0.33145,0.45034-0.49327,1.0536-4.7634,3.4845-7.8984,5.9413-10.106,7.9198-2.5006,2.2411-3.1506,2.6818-3.1506,2.1361zm28.116-0.49476c0-0.29571,1.6379-1.596,9.9886-7.9295,10.165-7.7094,25.236-18.717,25.627-18.717,0.75849,0-0.78511,1.3035-6.0196,5.0834-7.4554,5.3835-18.044,13.273-24.341,18.137-4.5125,3.4853-5.2548,3.9694-5.2548,3.4265zm55.01-0.3188c0.0148-0.40478,3.0144-2.8571,5.5978-4.5763,1.456-0.96895,2.1278-1.2886,2.315-1.1014,0.18717,0.18713-0.34836,0.67092-1.8454,1.6671-1.16,0.77188-2.8903,2.0594-3.8452,2.8612-1.7427,1.4632-2.2432,1.7221-2.2222,1.1495zm-24.428-0.15354c0-0.73823,12.331-10.325,12.86-9.9983,0.42043,0.25981,0.1855,0.54149-1.3299,1.5943-2.5712,1.7863-6.3453,4.674-8.7573,6.7008-2.167,1.8208-2.7728,2.1929-2.7728,1.7032zm-61.763-1.4815c-0.0826-0.13365,0.82287-0.99545,2.0121-1.9151,1.1892-0.9197,4.4207-3.4911,7.1809-5.7142,3.3273-2.6799,5.1013-3.9595,5.2639-3.7968,0.24878,0.24877-4.5016,4.2626-10.861,9.1768-3.3197,2.5654-3.3782,2.602-3.5961,2.2494zm83.814-0.31295c-0.33349-0.53965,3.6082-3.8515,7.4684-6.275,1.9158-1.2028,2.5428-1.416,2.5428-0.86487,0,0.10634-0.80463,0.67154-1.7881,1.2561-2.0911,1.2428-4.099,2.7322-6.3929,4.7418-1.1346,0.99403-1.7026,1.3485-1.8303,1.142zm-52.592-1.4186c0.0452-0.12214,7.6166-5.8449,16.825-12.717,11.122-8.3001,16.826-12.413,16.989-12.249,0.27867,0.27868-32.861,25.189-33.51,25.189-0.21229,0-0.34895-0.0999-0.30374-0.22208zm-33.09-1.5935c0-0.36466,13.643-11.749,14.08-11.749,0.14636,0,0.22173,0.1387,0.16748,0.30825-0.10624,0.33209-13.755,11.754-14.062,11.768-0.10173,0.007-0.18497-0.14264-0.18497-0.32731zm27.787-3.4121c-1.2673-1.9402-5.0729-7.7451-8.457-12.9-3.384-5.1546-6.3976-9.772-6.6969-10.261l-0.54411-0.88878,8.8138-6.8802c11.423-8.9167,20.358-15.995,23.027-18.242l2.1265-1.7898,1.1053,1.5196c3.1967,4.3952,13.388,19.852,15.96,24.208,0.70046,1.1859,1.2397,2.3375,1.1982,2.559-0.0414,0.22152-1.5731,1.6037-3.4037,3.0715-6.9647,5.5844-28.059,21.487-30.148,22.729l-0.67706,0.40226zm20.116-10.894c8.3734-6.4782,15.27-11.855,15.325-11.948,0.26422-0.44571-15.194-24.531-16.873-26.289-0.43802-0.4588-0.82473-0.16929-16.435,12.302-8.7923,7.0244-16.136,12.912-16.32,13.083-0.27693,0.25797,0.27269,1.194,3.2062,5.4604,1.9472,2.832,5.8603,8.6702,8.6958,12.974l5.1553,7.8249,1.0105-0.81371c0.55575-0.44762,7.8614-6.114,16.235-12.592zm37.597,13.984c-0.0907-0.0907-0.16497-0.2481-0.16497-0.34967s2.0645-1.8142,4.5878-3.8059c3.289-2.596,4.6633-3.5457,4.8545-3.3545,0.14669,0.14673,0.21864,0.30606,0.15987,0.35409-0.0588,0.0483-1.9936,1.5652-4.2996,3.3715s-4.3682,3.4338-4.5827,3.6168c-0.2145,0.1829-0.46422,0.25839-0.55493,0.16765zm-1.1515-3.4997c0-0.45601,5.0221-4.613,8.0455-6.6596,1.6403-1.1103,1.8198-1.1803,1.8198-0.709,0,0.17214-0.99326,1.014-2.2073,1.8709-1.214,0.85683-3.295,2.4902-4.6244,3.6296-2.2319,1.9129-3.0336,2.4066-3.0336,1.8682zm-85.045-0.37842c0.14069-0.6043,12.586-10.804,12.854-10.535,0.16154,0.16151,0.003,0.44796-0.4692,0.84442-6.3549,5.343-12.082,10.033-12.251,10.033-0.1179,0-0.17845-0.15416-0.1346-0.34251zm-1.77-2.1163c0-0.13147,0.84456-0.80901,1.8768-1.5055,2.5668-1.7321,4.6586-3.5075,7.9002-6.7052,1.7587-1.7348,2.8559-2.644,3.0477-2.5254,0.65434,0.40437-7.4436,7.8638-11.022,10.153-1.3216,0.84538-1.8027,1.0011-1.8027,0.58332zm86.613-1.169c0.17767-0.92249,8.5545-7.4256,9.1172-7.0779,0.42192,0.26076,0.18285,0.55934-1.085,1.3549-1.6662,1.0457-4.0688,2.888-6.1372,4.7063-1.7446,1.5337-2.0234,1.6832-1.895,1.0166zm-90.538-4.2855c-0.99264-1.3681-1.8485-2.6721-1.9019-2.8979-0.0674-0.28515,0.3366-0.67092,1.3234-1.2634,0.78129-0.46909,3.0853-2.1946,5.12-3.8345,4.3282-3.4882,5.9584-4.6424,6.278-4.4448,0.22388,0.13835,3.1515,3.8599,3.5642,4.5306,0.14019,0.22793-0.0931,0.57371-0.74864,1.1098-0.52374,0.42841-2.0654,1.7777-3.426,2.9985-4.4192,3.9655-7.4277,6.2891-8.1425,6.2891-0.14399,0-1.074-1.1194-2.0666-2.4874zm4.7229-0.0409c1.604-1.246,8.8207-7.593,8.8207-7.7577,0-0.25844-2.8436-3.7722-3.0527-3.7722-0.30311,0-2.2543,1.4803-5.9333,4.5014-1.6366,1.3439-3.606,2.834-4.3764,3.3114l-1.4007,0.86785,1.6473,2.2862c1.8916,2.6252,1.6766,2.597,4.295,0.56302zm85.03,0.97208c0-0.89824,8.8949-7.6485,9.2729-7.037,0.096,0.15531,0,0.4043-0.21085,0.55328-0.21195,0.14898-1.3665,0.96105-2.5657,1.8046-1.1992,0.84354-3.0444,2.3141-4.1005,3.2679-1.9227,1.7363-2.3958,2.0151-2.3958,1.4113zm-1.3817-2.9242c-0.31095-0.50314,7.8299-7.8283,8.7191-7.8454,0.66121-0.0129,0.21871,0.49095-2.0964,2.3861-1.3226,1.0827-3.3116,2.8221-4.4202,3.8652-1.3829,1.3013-2.0742,1.8017-2.2025,1.594zm-1.5778-2.8674c0-0.77304,8.8558-7.646,9.4104-7.3033,0.34585,0.21377,0.0976,0.4451-2.3173,2.1593-1.256,0.89157-3.2536,2.4577-4.439,3.4802-2.0138,1.7371-2.654,2.1385-2.654,1.6638zm-90.628-0.77644c-0.18412-0.2979-0.0957-0.36724,3.5702-2.8007,13.484-8.9503,55.025-41.482,64.419-50.448,1.5924-1.5198,2.4151-1.8397,2.4151-0.93878,0,1.631-41.55,34.789-61.328,48.941-6.8502,4.9016-8.6479,5.9408-9.0768,5.2468zm89.888-2.5879c0-0.6451,7.1784-6.7989,7.9309-6.7989,0.64665,0-0.0396,0.79558-1.8385,2.1317-1.122,0.83333-2.8846,2.3038-3.9168,3.2678-1.0323,0.96405-1.9441,1.7528-2.0262,1.7528-0.0822,0-0.14942-0.15899-0.14942-0.35335zm-94.302-3.7777c-1.3078-1.7295-2.3779-3.315-2.378-3.5232-0.00004-0.22017,0.66341-0.70587,1.5849-1.1603,0.87178-0.42991,2.7308-1.6534,4.1311-2.7188s3.2432-2.4684,4.0952-3.1176c0.852-0.64919,1.701-1.1221,1.8868-1.0508,0.48559,0.18638,4.1119,6.1292,4.031,6.6061-0.0647,0.38107-4.626,4.274-7.2256,6.1668-1.2488,0.90921-3.1242,1.9423-3.526,1.9423-0.12184,0-1.2916-1.415-2.5994-3.1445zm5.0209,0.59531c1.2991-0.8778,7.1524-5.5996,7.1524-5.7699,0-0.24332-3.0471-4.999-3.203-4.999-0.0901,0-1.3208,0.90424-2.7348,2.0094-2.7828,2.1749-5.8826,4.2858-6.6525,4.5302-0.26467,0.084-0.48123,0.26158-0.48123,0.39462s0.83737,1.3476,1.8608,2.6991c2.086,2.7545,1.7863,2.6706,4.0584,1.1356zm86.815,0.734c0-0.50348,8.0332-7.5568,8.6066-7.5568,0.60924,0,0.16836,0.52753-1.8844,2.2548-1.1861,0.99804-3.1006,2.674-4.2544,3.7244-2.1502,1.9573-2.4678,2.1604-2.4678,1.5776zm-1.7264-2.3297c0-0.24653,8.5234-7.8168,8.801-7.8168,0.71191,0-0.24153,1.0337-3.8837,4.2109-3.9831,3.4744-4.9173,4.1595-4.9173,3.6058zm-2.0813-2.7364c-0.22095-0.3575,8.9803-7.5288,9.278-7.2311,0.17247,0.17248-1.1841,1.3946-4.2736,3.8503-2.4894,1.9786-4.6029,3.5988-4.6967,3.6003-0.0937,0-0.23221-0.0972-0.30773-0.21942zm-2.3581-2.0928c0-0.70056,8.3527-8.0436,9.1496-8.0436,0.53241,0,0.13347,0.67208-0.78454,1.3218-1.5278,1.0812-5.3849,4.3964-6.7527,5.8042-1.2678,1.3048-1.6124,1.5009-1.6124,0.91766zm-1.3755-2.8954c-0.0969-0.15688,0.0518-0.46125,0.33279-0.68128,0.27942-0.2188,2.1887-1.7851,4.2428-3.4807s3.8392-3.1199,3.9668-3.1651c0.12761-0.045,0.23203,0.0741,0.23203,0.26513,0,0.19101-1.7955,1.8373-3.99,3.6584-4.5822,3.8026-4.5515,3.7807-4.7845,3.4036zm-3.4187-1.4245c-0.30485-0.49327,9.2404-8.9033,10.105-8.9033,0.63883,0,0.39143,0.36575-0.89902,1.3292-1.5308,1.1428-6.6757,5.6658-7.8514,6.9024-0.8823,0.92788-1.1226,1.0471-1.3546,0.67175zm-0.95-4.19c-0.32376-0.52385,8.2492-7.6749,9.2009-7.6749,0.62279,0,0.20687,0.65989-0.82799,1.3136-1.5779,0.99687-5.7517,4.3601-6.8997,5.5598-1.0023,1.0474-1.241,1.1773-1.4733,0.80152zm-52.936-1.4803c0.37537-0.70137-2.6598-4.896-3.6229-5.0068-0.67397-0.0776-0.67189-0.0819,0.37401-0.79135l1.0517-0.71337,2.3879,0.64443c1.3133,0.35443,2.4168,0.61553,2.4521,0.58019,0.0354-0.0355-0.35464-0.6148-0.86666-1.2876-0.64312-0.84511-1.0994-1.217-1.4759-1.203-0.7282,0.0272-0.57794-0.30266,0.42808-0.9396l0.82776-0.52412-0.16821,0.52998c-0.13131,0.41377,0.24261,1.0858,1.7053,3.0647,1.1724,1.5862,1.7505,2.5609,1.5448,2.6048-0.18077,0.0381-1.7665-0.3126-3.5238-0.78018-1.7573-0.46766-3.2179-0.82781-3.2457-0.8005-0.0278,0.0272,0.59125,0.87794,1.3757,1.8901,1.1487,1.482,1.5426,1.8286,2.0236,1.7804,0.55743-0.0559,0.53967-0.0109-0.2659,0.6716-0.99546,0.84354-1.3576,0.94484-1.002,0.28031zm50.822-0.72017c0-0.61308,8.8598-8.6524,9.557-8.6721,0.67588-0.0191,0.1968,0.52398-2.343,2.6554-1.4582,1.2237-3.5366,3.1227-4.6186,4.2199-1.7688,1.7937-2.5954,2.3659-2.5954,1.7968zm-1.8292-2.975c-0.27932-0.45192,8.1931-8.1721,8.9684-8.1721,0.61551,0,0.1038,0.56989-2.3915,2.6636-1.4582,1.2235-3.4252,3.0115-4.3711,3.9732-1.7339,1.763-1.9654,1.9242-2.2058,1.5352zm-42.849-0.70342c0.21783-0.40709-0.0168-0.86133-1.4904-2.8856-1.3471-1.8504-1.8542-2.375-2.2073-2.2826-0.75011,0.19612-0.31392-0.21956,1.9303-1.8397l2.1264-1.535,0.57782,0.72215c0.74958,0.9368,0.73207,1.1416-0.0624,0.72944-0.70939-0.36806-1.8059-0.12977-2.3346,0.50729-0.23351,0.28135-0.15346,0.55431,0.39444,1.3449,0.37808,0.54558,0.80869,0.94886,0.9569,0.8962,0.14882-0.0531,0.24739-0.56506,0.22015-1.144l-0.0493-1.0482,1.091,1.4446c0.60001,0.79457,1.0939,1.5227,1.0975,1.6182,0.004,0.0954-0.30769-0.007-0.69178-0.22732-0.38858-0.22302-0.89002-0.32725-1.1304-0.23501-0.38418,0.14741-0.34546,0.27513,0.34914,1.1522,0.87718,1.1075,1.1773,1.1869,1.9922,0.52712,0.38743-0.3137,0.611-0.82031,0.70557-1.5989l0.13842-1.1396,0.55067,0.96208,0.55066,0.96208-2.1538,1.5726c-2.8356,2.0705-2.8826,2.098-2.561,1.497zm40.485-1.559c0-0.70832,8.8124-8.6227,9.601-8.6227,0.642,0,0.0989,0.60274-2.2637,2.512-1.3904,1.1236-3.4948,3.0158-4.6766,4.2049-2.032,2.0446-2.6608,2.4949-2.6608,1.9058zm-2.5306-5.2709c-0.6458-1.139-2.0054-3.315-3.0212-4.8356-1.0159-1.5205-1.8471-2.848-1.8471-2.95,0-0.38747,9.1381-8.1517,9.5807-8.1402,0.0887,0,0.96064,1.5283,1.9376,3.3912,0.97693,1.8628,2.2692,4.2194,2.8716,5.2367,0.60243,1.0174,1.0441,1.9347,0.98144,2.0385-0.0627,0.10381-1.1884,1.0046-2.5017,2.0017-1.3133,0.99715-3.3012,2.6048-4.4177,3.5724-1.1165,0.96766-2.1154,1.7587-2.2197,1.7578-0.10435,0-0.71812-0.93361-1.3639-2.0726zm3.9515-0.92719c1.3105-1.1082,3.1362-2.5646,4.0571-3.2366,0.92091-0.67188,1.6744-1.2643,1.6744-1.3163,0-0.0518-0.70721-1.3425-1.5715-2.8676-0.86435-1.5252-1.9872-3.6054-2.4952-4.6228-0.50803-1.0173-0.96473-1.8945-1.0149-1.9493-0.11072-0.12085-3.0697,2.2795-6.2966,5.1077l-2.3762,2.0826,2.028,3.1137c1.1154,1.7125,2.3512,3.6962,2.7461,4.4082,0.39498,0.71199,0.75142,1.2947,0.7921,1.2948,0.0407,0.00014,1.1462-0.90648,2.4567-2.0146zm-36.806,0.64851c-1.6241-1.0119-3.1501-1.8399-3.3912-1.8399-0.67398,0-0.52104-0.31035,0.48618-0.98652,1.5425-1.0356,1.5457-1.037,1.3919-0.63639-0.0996,0.25947,0.3759,0.70546,1.5885,1.4899,1.8597,1.203,2.0547,1.2865,1.8953,0.81125-0.0568-0.16955-0.2206-0.76676-0.36385-1.3272-0.20535-0.80341-0.42965-1.0895-1.0604-1.3527-0.43996-0.18359-0.9498-0.30028-1.133-0.25941-0.55278,0.12344-0.10631-0.35579,1.2181-1.3072,1.0186-0.73176,1.2248-0.80867,1.0981-0.40961-0.12593,0.39679,0.11923,0.67623,1.2735,1.4518,0.78618,0.52822,1.5526,1.0322,1.7032,1.1199,0.15961,0.0931,0.056-0.62466-0.24861-1.7209-0.36354-1.3087-0.66214-1.9295-0.98194-2.0416-0.41864-0.14686-0.40276-0.19843,0.17827-0.57909,0.72184-0.47296,1.0029-0.53448,0.77776-0.17017-0.0842,0.13631,0.24218,1.6948,0.72534,3.4635,0.48315,1.7686,0.87845,3.3736,0.87845,3.5665,0,0.22841-0.66269-0.0737-1.8989-0.86575-1.0444-0.66915-1.9379-1.1777-1.9856-1.13s0.14629,0.99914,0.43102,2.1143c0.28473,1.1151,0.4846,2.1224,0.44414,2.2384-0.0404,0.11594-1.4023-0.61711-3.0264-1.6291zm8.2833-3.7778c-0.92543-1.1684-0.97598-1.4615-0.15986-0.92671,0.71256,0.46682,2.3704,0.52752,2.7956,0.10231,0.43734-0.43734,0.35924-1.3802-0.13565-1.6374-0.23739-0.12337-1.0284-0.1453-1.7578-0.049-0.7294,0.0965-1.592,0.12459-1.917,0.0627-0.73105-0.13972-1.5662-1.1622-1.5662-1.9174,0-0.78067,1.0992-2.0134,1.9648-2.2035,0.39506-0.0868,0.75274-0.33154,0.79487-0.54394,0.0525-0.26473,0.28753-0.0893,0.74752,0.55804,0.66729,0.93905,0.73652,1.3985,0.13662,0.90649-0.75578-0.61977-2.5217-0.35751-2.7209,0.40409-0.24738,0.94599,0.13612,1.1019,2.2715,0.92386,1.9913-0.16608,2.0157-0.16111,2.7369,0.56016,0.40028,0.40021,0.72773,0.9637,0.72773,1.2522,0,0.92202-0.69054,1.9006-1.6539,2.3437-0.51466,0.23679-1.0619,0.58878-1.2162,0.78224-0.23213,0.29115-0.41258,0.18481-1.0482-0.61773zm18.223-13.826c0-0.42289,6.3609-5.6933,6.8713-5.6933,0.59594,0,0.22569,0.64817-0.77244,1.3523-0.57362,0.40463-2.064,1.5977-3.3119,2.6513-2.1537,1.8181-2.787,2.2021-2.787,1.6897zm-3.068-1.4765c-0.0756-0.12241,0.55599-0.81356,1.4036-1.5359,0.84762-0.72242,2.89-2.509,4.5387-3.9702,1.6486-1.4613,3.0637-2.6568,3.1446-2.6568,0.56315,0-0.14506,0.94232-1.8877,2.5116-2.707,2.4378-6.7593,5.8739-6.9272,5.8739-0.0739,0-0.19622-0.10013-0.27186-0.22255zm-1.8646-2.8341c0-0.40689,5.6837-5.9282,7.8375-7.6135,0.96019-0.75138,1.5623-1.0762,1.6705-0.90118,0.093,0.15048,0.0172,0.40852-0.16837,0.57345-0.1856,0.16492-1.4473,1.2561-2.8038,2.4249-1.3565,1.1687-3.2959,2.9654-4.3099,3.9925-1.8722,1.8966-2.2259,2.1387-2.2259,1.5239zm-61.675,37.542c2.1663-1.36,6.9929-4.9596,12.846-9.5807,10.952-8.646,13.245-10.43,19.603-15.245,12.727-9.6405,20.995-16.512,27.124-22.543,3.3634-3.3092,3.6593-3.6694,3.3053-4.0234-1.1732-1.1732-2.9628-0.0463-6.4114,4.0362-6.8658,8.1283-17.213,16.438-30.249,24.292-5.9127,3.5624-24.02,18.516-28.629,23.642l-1.1079,1.2323,0.94914-0.39653c0.52203-0.21813,1.6782-0.8543,2.5694-1.4138zm24.434-16.692c9.3228-5.8753,32.474-24.214,40.781-32.304,2.3008-2.2406,2.4966-2.7841,1.0645-2.9554-0.71099-0.085-0.71797-0.0789-3.57,3.1116-4.1918,4.6892-15.752,14.493-27.671,23.467-5.3195,4.0051-11.706,8.9681-12.332,9.5833-0.45963,0.45178-0.24296,0.33849,1.7264-0.9026zm14.921-16.573c1.7634-1.3226,4.0941-3.1445,5.1793-4.0488,2.7691-2.3073,7.6388-6.9019,8.3014-7.8325,0.70475-0.98973-2.7689,1.7098-8.5919,6.6771-2.2818,1.9465-6.0633,5.0918-8.4032,6.9896s-4.2544,3.4989-4.2544,3.558c0,0.20041,4.5482-2.9278,7.7689-5.3433z"/>
 </g>
</svg>
