<?xml version="1.0" encoding="UTF-8" standalone="no"?>
<!-- Created with Inkscape (http://www.inkscape.org/) -->
<svg id="svg3195" xmlns:rdf="http://www.w3.org/1999/02/22-rdf-syntax-ns#" xmlns="http://www.w3.org/2000/svg" height="414.21" width="623.67" version="1.1" xmlns:cc="http://creativecommons.org/ns#" xmlns:xlink="http://www.w3.org/1999/xlink" xmlns:dc="http://purl.org/dc/elements/1.1/">
 <defs id="defs3197">
  <linearGradient id="linearGradient3193" y2="99.5" gradientUnits="userSpaceOnUse" y1="99.5" gradientTransform="matrix(-1.5591705,-1.5591705,1.5591705,-1.5591705,369.35082,818.68686)" x2="200" x1="-0.000125">
   <stop id="stop5324" stop-color="#ffcd66" stop-opacity="0.76862746" offset="0"/>
   <stop id="stop4855" stop-color="#93dcdf" stop-opacity="0.49803922" offset="0.5"/>
   <stop id="stop5326" stop-color="#f2f2f2" stop-opacity="0" offset="1"/>
  </linearGradient>
 </defs>
 <metadata id="metadata3200">
  <rdf:RDF>
   <cc:Work rdf:about="">
    <dc:format>image/svg+xml</dc:format>
    <dc:type rdf:resource="http://purl.org/dc/dcmitype/StillImage"/>
    <dc:title/>
   </cc:Work>
  </rdf:RDF>
 </metadata>
 <g id="layer1" transform="translate(-56.737339,-405.2577)">
  <path id="path3858" fill="url(#linearGradient3193)" d="m56.737,507.63,62.821,62.821c0.56604-0.39891,1.4357-1.0035,1.9195-1.3378,4.4127-3.05,14.096-9.2418,21.522-13.727,7.4259-4.4856,19.451-11.17,26.757-14.891,7.3054-3.7209,18.799-9.1127,25.477-11.982,6.6784-2.8697,17.83-7.2464,24.779-9.772,6.9493-2.5257,17.947-6.196,24.488-8.0852,6.5409-1.8893,17.241-4.6249,23.732-6.1657,6.4915-1.5408,17.737-3.8417,25.012-5.1187,7.2744-1.277,18.753-2.9746,25.477-3.7227,6.7239-0.7482,16.31-1.6589,21.347-2.0359,5.0373-0.37692,18.018-0.70183,28.851-0.69797,10.833,0.004,26.154,0.53498,33.97,1.1633,7.8153,0.62835,19.577,1.895,26.175,2.792,6.5987,0.89706,17.376,2.6608,23.965,3.9554,6.5892,1.2946,16.394,3.4786,21.813,4.8279,5.4186,1.3492,15.025,3.9825,21.347,5.8749s16.786,5.3741,23.209,7.7362c6.4225,2.3621,17.024,6.5648,23.558,9.3649,6.5335,2.8001,17.712,8.0612,24.837,11.692,7.1251,3.6305,17.915,9.5663,24.023,13.204,6.1081,3.6376,15.16,9.3522,20.068,12.622,1.5881,1.0583,3.8305,2.6045,5.9331,4.0717l62.588-62.588c-0.65658-0.48819-1.5734-1.1468-2.1522-1.5705-5.1658-3.7813-14.033-9.9957-19.719-13.786-5.6852-3.7899-15.644-10.016-22.104-13.844-6.4599-3.8273-16.374-9.398-22.045-12.39-5.6713-2.9917-13.874-7.2004-18.264-9.3067-4.3909-2.1063-13.08-6.023-19.311-8.7251-6.2316-2.702-17.626-7.3144-25.303-10.179-7.6765-2.8649-20.084-7.0319-27.571-9.3068-7.4876-2.2748-19.819-5.7224-27.397-7.6199-7.5776-1.8976-19.344-4.5262-26.117-5.8749-6.7728-1.3487-18.184-3.3165-25.419-4.3626-7.2352-1.046-17.85-2.3364-23.616-2.9084-5.7655-0.57195-15.931-1.344-22.569-1.745-6.6376-0.40102-20.774-0.77433-31.352-0.75616-10.578,0.0176-25.219,0.43443-32.574,0.93068-7.3545,0.49628-17.952,1.4151-23.558,2.0358-5.6058,0.62068-14.629,1.8316-20.068,2.6175-5.4385,0.78582-15.465,2.4706-22.278,3.7809-6.8133,1.3103-17.063,3.5078-22.802,4.886-5.7388,1.3782-14.798,3.6924-20.068,5.1769s-15.959,4.8968-23.79,7.5036c-7.8313,2.6068-18.503,6.319-23.674,8.3179s-14.412,5.8142-20.591,8.4924c-6.1789,2.6782-16.584,7.5234-23.092,10.761-6.5083,3.2374-16.841,8.7003-22.918,12.099-6.0766,3.3984-15.935,9.2304-21.929,12.971-5.9939,3.7408-15.867,10.247-21.929,14.484-3.3418,2.3355-7.47,5.3752-11.459,8.3179zm125.52,125.52,64.1,64.1c1.3109-0.6881,2.7297-1.4481,3.8972-2.0359,5.7622-2.9007,15.103-7.06,20.707-9.3067s14.027-5.3404,18.788-6.8056c4.7613-1.4652,12.375-3.5693,16.868-4.6534,4.4932-1.084,11.651-2.5636,15.88-3.3155,4.2288-0.75197,11.222-1.781,15.531-2.2685,4.3091-0.48744,12.651-1.1314,18.555-1.4542,5.9045-0.32277,15.613-0.43405,21.58-0.17441,5.967,0.25946,14.67,0.89386,19.311,1.396,4.6415,0.50216,11.699,1.4982,15.647,2.1522,3.9482,0.65403,10.587,1.9523,14.774,2.9084,4.1876,0.95607,11.429,2.9076,16.17,4.3044,4.7415,1.3969,12.287,3.8892,16.694,5.5258,4.4071,1.6368,11.88,4.7202,16.636,6.8638,3.7226,1.6777,8.9964,4.3231,13.553,6.6892l63.926-63.926c-2.8172-1.7617-5.6414-3.5817-8.0271-5.0024-5.4153-3.2249-14.369-8.089-19.777-10.819-5.4074-2.7301-14.079-6.8362-19.37-9.1323-5.2909-2.296-16.892-6.6787-25.768-9.7139-8.8763-3.0352-21.896-6.9008-28.851-8.6087s-16.919-3.8444-22.22-4.7697c-5.3011-0.92535-13.777-2.2228-18.788-2.8502-5.0107-0.62753-14.269-1.4851-20.649-1.9195-6.3802-0.43441-17.355-0.78811-24.372-0.75619-7.0166,0.032-17.707,0.45915-23.732,0.93067-6.0256,0.47152-14.684,1.3457-19.253,1.9195-4.5698,0.5738-11.542,1.5388-15.472,2.2104-3.9306,0.67157-11.108,2.1316-15.996,3.1992-4.8882,1.0676-13.112,3.0757-18.206,4.4789s-14.814,4.4837-21.638,6.8637c-6.8244,2.38-16.914,6.2962-22.394,8.6669-5.4801,2.3707-14.362,6.5519-19.719,9.2486-5.3568,2.6967-13.922,7.3209-19.079,10.354-2.5978,1.5278-5.9775,3.6141-9.3067,5.7004zm132.33,132.33,53.979,53.979,54.095-54.096c-4.0541-3.9774-7.4486-6.824-10.645-8.8995-2.7902-1.812-7.3902-4.4037-10.296-5.7586-2.9055-1.3549-7.5753-3.1434-10.354-3.9554-2.7785-0.8119-7.3396-1.8595-10.121-2.3266-2.7815-0.4672-7.8938-0.8904-11.401-0.9307-3.507-0.04-9.1289,0.3608-12.448,0.8143-3.3189,0.4535-9.7025,2.0246-14.135,3.5482-4.4984,1.5464-10.726,4.3698-14.193,6.3984-4.3895,2.5686-8.1634,5.408-12.739,9.5976-0.58567,0.5361-1.1684,1.0761-1.7451,1.6286z"/>
 </g>
</svg>
