<?xml version="1.0" encoding="UTF-8" standalone="no"?>
<!-- Created with Inkscape (http://www.inkscape.org/) -->
<svg id="svg4199" xmlns:rdf="http://www.w3.org/1999/02/22-rdf-syntax-ns#" xmlns="http://www.w3.org/2000/svg" height="360.13" width="623.69" version="1.1" xmlns:cc="http://creativecommons.org/ns#" xmlns:xlink="http://www.w3.org/1999/xlink" xmlns:dc="http://purl.org/dc/elements/1.1/">
 <defs id="defs4201">
  <linearGradient id="linearGradient4197" y2="99.5" gradientUnits="userSpaceOnUse" y1="99.5" gradientTransform="matrix(-1.5591705,-1.5591705,1.5591705,-1.5591705,389.35082,820.02465)" x2="200" x1="-0.000125">
   <stop id="stop5324" stop-color="#ffcd66" stop-opacity="0.76862746" offset="0"/>
   <stop id="stop4855" stop-color="#93dcdf" stop-opacity="0.49803922" offset="0.5"/>
   <stop id="stop5326" stop-color="#f2f2f2" stop-opacity="0" offset="1"/>
  </linearGradient>
 </defs>
 <metadata id="metadata4204">
  <rdf:RDF>
   <cc:Work rdf:about="">
    <dc:format>image/svg+xml</dc:format>
    <dc:type rdf:resource="http://purl.org/dc/dcmitype/StillImage"/>
    <dc:title/>
   </cc:Work>
  </rdf:RDF>
 </metadata>
 <g id="layer1" transform="translate(-76.727681,-406.5851)">
  <path id="path3858" fill="url(#linearGradient4197)" d="m387.48,406.59c-10.578,0.0176-25.239,0.44125-32.594,0.9375-7.3545,0.49628-17.957,1.4105-23.562,2.0312-5.6058,0.62068-14.624,1.8391-20.062,2.625-5.4385,0.78582-15.468,2.471-22.281,3.7812-6.8133,1.3103-17.042,3.4968-22.781,4.875-5.7388,1.3782-14.792,3.703-20.062,5.1875s-15.981,4.8932-23.812,7.5c-7.8313,2.6068-18.485,6.3136-23.656,8.3125s-14.415,5.8218-20.594,8.5c-6.1789,2.6782-16.585,7.5125-23.094,10.75-6.5083,3.2374-16.861,8.7266-22.938,12.125-6.0766,3.3984-15.912,9.2279-21.906,12.969-5.9939,3.7408-15.876,10.232-21.937,14.469-3.3418,2.3355-7.4799,5.3697-11.469,8.3125l62.844,62.844c0.56604-0.39891,1.4225-1.0094,1.9062-1.3438,4.4127-3.05,14.105-9.2644,21.531-13.75,7.4259-4.4856,19.445-11.154,26.75-14.875,7.3054-3.7209,18.79-9.099,25.469-11.969,6.6784-2.8697,17.832-7.2556,24.781-9.7812,6.9493-2.5257,17.959-6.2045,24.5-8.0938,6.5409-1.8893,17.227-4.6154,23.719-6.1562,6.4915-1.5408,17.757-3.848,25.031-5.125,7.2744-1.277,18.745-2.9706,25.469-3.7188,6.7239-0.7482,16.306-1.6543,21.344-2.0312,5.0373-0.37692,18.011-0.72261,28.844-0.71875,10.833,0.004,26.153,0.55914,33.969,1.1875,7.8153,0.62835,19.589,1.8842,26.188,2.7812,6.5987,0.89706,17.38,2.6742,23.969,3.9688,6.5892,1.2946,16.394,3.4632,21.812,4.8125,5.4186,1.3492,15.022,3.9826,21.344,5.875s16.765,5.3879,23.188,7.75c6.4225,2.3621,17.029,6.5436,23.562,9.3438,6.5335,2.8001,17.719,8.0571,24.844,11.688,7.1251,3.6305,17.923,9.5811,24.031,13.219,6.1081,3.6376,15.155,9.3549,20.062,12.625,1.5881,1.0583,3.835,2.5953,5.9375,4.0625l62.594-62.594c-0.65658-0.48819-1.5775-1.1388-2.1562-1.5625-5.1658-3.7813-14.034-9.9914-19.719-13.781-5.6852-3.7899-15.634-10.016-22.094-13.844-6.4599-3.8273-16.391-9.4146-22.062-12.406-5.6713-2.9917-13.859-7.175-18.25-9.2812-4.3909-2.1063-13.081-6.0479-19.312-8.75-6.2316-2.702-17.636-7.2914-25.312-10.156-7.6765-2.8649-20.075-7.0377-27.562-9.3125-7.4876-2.2748-19.829-5.7275-27.406-7.625-7.5776-1.8976-19.352-4.5263-26.125-5.875-6.7728-1.3487-18.171-3.329-25.406-4.375-7.2352-1.046-17.859-2.3343-23.625-2.9062-5.7655-0.57195-15.925-1.3178-22.562-1.7188-6.6376-0.40102-20.766-0.79942-31.344-0.78125zm-0.40625,174.34c-7.0166,0.032-17.724,0.46598-23.75,0.9375-6.0256,0.47152-14.68,1.3324-19.25,1.9062-4.5698,0.5738-11.538,1.5472-15.469,2.2188-3.9306,0.67157-11.112,2.1199-16,3.1875-4.8882,1.0676-13.125,3.0656-18.219,4.4688s-14.801,4.495-21.625,6.875c-6.8244,2.38-16.926,6.2855-22.406,8.6562-5.4801,2.3707-14.362,6.5533-19.719,9.25-5.3568,2.6967-13.906,7.3422-19.062,10.375-2.5978,1.5278-5.9833,3.6012-9.3125,5.6875l64.094,64.094c1.3109-0.6881,2.7387-1.4434,3.9062-2.0312,5.7622-2.9007,15.115-7.0658,20.719-9.3125s14.02-5.3161,18.781-6.7812c4.7613-1.4652,12.382-3.5722,16.875-4.6562,4.4932-1.084,11.646-2.5605,15.875-3.3125,4.2288-0.75197,11.222-1.7938,15.531-2.2812,4.3091-0.48744,12.658-1.146,18.562-1.4688,5.9045-0.32277,15.596-0.41589,21.562-0.15625,5.967,0.25946,14.671,0.90408,19.312,1.4062,4.6415,0.50216,11.708,1.471,15.656,2.125,3.9482,0.65403,10.594,1.9502,14.781,2.9062,4.1876,0.95607,11.415,2.9157,16.156,4.3125,4.7415,1.3969,12.28,3.8946,16.688,5.5312,4.4071,1.6368,11.9,4.7314,16.656,6.875,3.7226,1.6777,8.9747,4.3214,13.531,6.6875l63.938-63.938c-2.8172-1.7617-5.6456-3.5793-8.0312-5-5.4153-3.2249-14.374-8.0824-19.781-10.812-5.4074-2.7301-14.084-6.8289-19.375-9.125-5.2909-2.296-16.874-6.6836-25.75-9.7188-8.8763-3.0352-21.889-6.9171-28.844-8.625s-16.918-3.8246-22.219-4.75c-5.3011-0.92535-13.802-2.2476-18.812-2.875-5.0107-0.62753-14.245-1.4719-20.625-1.9062-6.3802-0.43441-17.358-0.78192-24.375-0.75zm2.7812,163.91c-3.507-0.04-9.1186,0.359-12.438,0.8125-3.3189,0.4535-9.7241,2.0389-14.156,3.5625-4.4984,1.5464-10.721,4.3464-14.188,6.375-4.3895,2.5686-8.1435,5.4354-12.719,9.625-0.54235,0.49644-1.0902,0.99004-1.625,1.5h107.94c-4.0541-3.9774-7.4602-6.8308-10.656-8.9062-2.7902-1.812-7.3758-4.3951-10.281-5.75-2.9055-1.3549-7.5653-3.1568-10.344-3.9688-2.7785-0.8119-7.3436-1.8454-10.125-2.3125-2.7815-0.4672-7.8993-0.8972-11.406-0.9375z"/>
  <path id="path4734" fill-opacity="0.52156866" fill="#FFF" d="m387.48,406.59c-10.578,0.0176-25.239,0.44125-32.594,0.9375-7.3545,0.49628-17.957,1.4105-23.562,2.0312-5.6058,0.62068-14.624,1.8391-20.062,2.625-5.4385,0.78582-15.468,2.471-22.281,3.7812-6.8133,1.3103-17.042,3.4968-22.781,4.875-5.7388,1.3782-14.792,3.703-20.062,5.1875s-15.981,4.8932-23.812,7.5c-7.8313,2.6068-18.485,6.3136-23.656,8.3125s-14.415,5.8218-20.594,8.5c-6.1789,2.6782-16.585,7.5125-23.094,10.75-6.5083,3.2374-16.861,8.7266-22.938,12.125-6.0766,3.3984-15.912,9.2279-21.906,12.969-5.9939,3.7408-15.876,10.232-21.937,14.469-3.3418,2.3355-7.4799,5.3697-11.469,8.3125l62.844,62.844c0.56604-0.39891,1.4225-1.0094,1.9062-1.3438,4.4127-3.05,14.105-9.2644,21.531-13.75,7.4259-4.4856,19.445-11.154,26.75-14.875,7.3054-3.7209,18.79-9.099,25.469-11.969,6.6784-2.8697,17.832-7.2556,24.781-9.7812,6.9493-2.5257,17.959-6.2045,24.5-8.0938,6.5409-1.8893,17.227-4.6154,23.719-6.1562,6.4915-1.5408,17.757-3.848,25.031-5.125,7.2744-1.277,18.745-2.9706,25.469-3.7188,6.7239-0.7482,16.306-1.6543,21.344-2.0312,5.0373-0.37692,18.011-0.72261,28.844-0.71875,10.833,0.004,26.153,0.55914,33.969,1.1875,7.8153,0.62835,19.589,1.8842,26.188,2.7812,6.5987,0.89706,17.38,2.6742,23.969,3.9688,6.5892,1.2946,16.394,3.4632,21.812,4.8125,5.4186,1.3492,15.022,3.9826,21.344,5.875s16.765,5.3879,23.188,7.75c6.4225,2.3621,17.029,6.5436,23.562,9.3438,6.5335,2.8001,17.719,8.0571,24.844,11.688,7.1251,3.6305,17.923,9.5811,24.031,13.219,6.1081,3.6376,15.155,9.3549,20.062,12.625,1.5881,1.0583,3.835,2.5953,5.9375,4.0625l62.594-62.594c-0.65658-0.48819-1.5775-1.1388-2.1562-1.5625-5.1658-3.7813-14.034-9.9914-19.719-13.781-5.6852-3.7899-15.634-10.016-22.094-13.844-6.4599-3.8273-16.391-9.4146-22.062-12.406-5.6713-2.9917-13.859-7.175-18.25-9.2812-4.3909-2.1063-13.081-6.0479-19.312-8.75-6.2316-2.702-17.636-7.2914-25.312-10.156-7.6765-2.8649-20.075-7.0377-27.562-9.3125-7.4876-2.2748-19.829-5.7275-27.406-7.625-7.5776-1.8976-19.352-4.5263-26.125-5.875-6.7728-1.3487-18.171-3.329-25.406-4.375-7.2352-1.046-17.859-2.3343-23.625-2.9062-5.7655-0.57195-15.925-1.3178-22.562-1.7188-6.6376-0.40102-20.766-0.79942-31.344-0.78125zm-0.40625,174.34c-7.0166,0.032-17.724,0.46598-23.75,0.9375-6.0256,0.47152-14.68,1.3324-19.25,1.9062-4.5698,0.5738-11.538,1.5472-15.469,2.2188-3.9306,0.67157-11.112,2.1199-16,3.1875-4.8882,1.0676-13.125,3.0656-18.219,4.4688s-14.801,4.495-21.625,6.875c-6.8244,2.38-16.926,6.2855-22.406,8.6562-5.4801,2.3707-14.362,6.5533-19.719,9.25-5.3568,2.6967-13.906,7.3422-19.062,10.375-2.5978,1.5278-5.9833,3.6012-9.3125,5.6875l64.094,64.094c1.3109-0.6881,2.7387-1.4434,3.9062-2.0312,5.7622-2.9007,15.115-7.0658,20.719-9.3125s14.02-5.3161,18.781-6.7812c4.7613-1.4652,12.382-3.5722,16.875-4.6562,4.4932-1.084,11.646-2.5605,15.875-3.3125,4.2288-0.75197,11.222-1.7938,15.531-2.2812,4.3091-0.48744,12.658-1.146,18.562-1.4688,5.9045-0.32277,15.596-0.41589,21.562-0.15625,5.967,0.25946,14.671,0.90408,19.312,1.4062,4.6415,0.50216,11.708,1.471,15.656,2.125,3.9482,0.65403,10.594,1.9502,14.781,2.9062,4.1876,0.95607,11.415,2.9157,16.156,4.3125,4.7415,1.3969,12.28,3.8946,16.688,5.5312,4.4071,1.6368,11.9,4.7314,16.656,6.875,3.7226,1.6777,8.9747,4.3214,13.531,6.6875l63.938-63.938c-2.8172-1.7617-5.6456-3.5793-8.0312-5-5.4153-3.2249-14.374-8.0824-19.781-10.812-5.4074-2.7301-14.084-6.8289-19.375-9.125-5.2909-2.296-16.874-6.6836-25.75-9.7188-8.8763-3.0352-21.889-6.9171-28.844-8.625s-16.918-3.8246-22.219-4.75c-5.3011-0.92535-13.802-2.2476-18.812-2.875-5.0107-0.62753-14.245-1.4719-20.625-1.9062-6.3802-0.43441-17.358-0.78192-24.375-0.75zm2.7812,163.91c-3.507-0.04-9.1186,0.359-12.438,0.8125-3.3189,0.4535-9.7241,2.0389-14.156,3.5625-4.4984,1.5464-10.721,4.3464-14.188,6.375-4.3895,2.5686-8.1435,5.4354-12.719,9.625-0.54235,0.49644-1.0902,0.99004-1.625,1.5h107.94c-4.0541-3.9774-7.4602-6.8308-10.656-8.9062-2.7902-1.812-7.3758-4.3951-10.281-5.75-2.9055-1.3549-7.5653-3.1568-10.344-3.9688-2.7785-0.8119-7.3436-1.8454-10.125-2.3125-2.7815-0.4672-7.8993-0.8972-11.406-0.9375z"/>
 </g>
</svg>
